{"glyphs":{"0":{"ha":810,"x_min":71,"x_max":739,"o":"m 406 -15 q 223 44 299 -15 q 109 214 147 103 q 71 482 71 325 q 109 749 71 638 q 223 919 147 860 q 406 979 299 979 q 587 919 513 979 q 700 749 661 860 q 739 482 739 638 q 700 214 739 325 q 587 44 661 103 q 406 -15 513 -15 m 406 83 q 525 132 479 83 q 592 269 571 181 q 613 482 613 358 q 592 694 613 604 q 525 832 571 783 q 406 881 479 881 q 284 832 331 881 q 217 694 238 783 q 196 482 196 604 q 217 269 196 358 q 284 132 238 181 q 406 83 331 83 z "},"1":{"ha":671,"x_min":114,"x_max":442,"o":"m 319 844 l 317 844 l 114 747 l 114 850 l 349 967 l 442 967 l 442 0 l 319 0 l 319 844 z "},"2":{"ha":771,"x_min":67,"x_max":688,"o":"m 67 78 q 269 265 181 183 q 419 415 358 346 q 510 549 479 485 q 542 685 542 614 q 522 780 542 736 q 459 850 501 824 q 351 876 417 876 q 235 856 292 876 q 132 808 178 836 l 97 896 q 222 953 150 928 q 372 978 293 978 q 535 940 469 978 q 635 839 601 903 q 668 696 668 775 q 634 537 668 610 q 538 394 600 464 q 392 248 476 324 q 208 82 307 172 l 188 103 l 688 101 l 682 0 l 67 0 l 67 78 z "},"3":{"ha":736,"x_min":61,"x_max":671,"o":"m 322 -15 q 177 5 246 -15 q 61 50 108 25 l 89 139 q 192 103 131 119 q 314 86 253 86 q 443 114 392 86 q 519 185 494 142 q 544 281 544 229 q 523 363 544 328 q 466 419 501 397 q 385 453 431 442 q 292 464 340 464 l 215 464 l 218 557 l 290 557 q 367 567 328 557 q 440 597 407 576 q 494 651 474 618 q 514 732 514 685 q 467 838 514 796 q 335 879 421 879 q 222 863 275 879 q 126 826 168 847 l 103 915 q 218 960 151 940 q 360 979 285 979 q 506 951 444 979 q 603 871 568 922 q 638 753 638 819 q 588 607 638 667 q 440 515 539 547 l 440 513 q 556 469 504 501 q 640 387 608 438 q 671 267 671 336 q 628 126 671 190 q 508 23 586 61 q 322 -15 429 -15 z "},"4":{"ha":778,"x_min":26,"x_max":735,"o":"m 479 0 l 479 617 l 482 847 l 479 847 l 404 728 l 147 360 l 147 357 l 735 357 l 728 260 l 26 260 l 26 346 l 453 967 l 600 967 l 600 0 l 479 0 z "},"5":{"ha":740,"x_min":64,"x_max":674,"o":"m 311 -15 q 174 2 239 -15 q 64 42 108 19 l 88 133 q 185 101 128 115 q 304 86 242 86 q 436 116 382 86 q 519 196 490 146 q 547 304 547 246 q 471 456 547 404 q 263 507 394 507 q 187 501 221 507 q 121 486 153 494 l 119 488 l 165 963 l 639 963 l 633 861 l 263 861 l 233 588 q 277 597 250 592 q 338 601 304 601 q 584 525 494 601 q 674 315 674 449 q 628 147 674 221 q 501 28 583 72 q 311 -15 419 -15 z "},"6":{"ha":793,"x_min":67,"x_max":731,"o":"m 406 -15 q 222 35 297 -15 q 106 176 146 86 q 67 381 67 265 q 111 644 67 531 q 233 834 156 758 q 414 947 311 910 q 633 982 517 983 l 633 885 q 423 840 517 886 q 270 708 329 794 q 194 499 211 621 l 197 499 q 302 596 238 564 q 442 628 367 628 q 592 590 526 628 q 694 483 657 551 q 731 322 731 415 q 690 152 731 229 q 577 30 650 75 q 406 -15 504 -15 m 404 81 q 508 110 463 81 q 580 192 554 139 q 606 314 606 246 q 581 432 606 383 q 511 508 556 481 q 408 535 467 535 q 320 518 364 535 q 242 467 276 501 q 190 382 208 433 q 212 226 188 294 q 285 119 236 158 q 404 81 335 81 z "},"7":{"ha":701,"x_min":42,"x_max":644,"o":"m 447 744 l 503 858 l 503 861 l 42 861 l 42 963 l 644 963 l 644 882 l 232 0 l 99 0 l 447 744 z "},"8":{"ha":799,"x_min":64,"x_max":733,"o":"m 396 -15 q 221 19 296 -15 q 105 113 146 54 q 64 243 64 172 q 126 404 64 335 q 292 513 188 474 l 386 465 q 290 419 335 449 q 218 349 246 390 q 190 254 190 308 q 217 165 190 206 q 291 99 243 124 q 399 74 339 74 q 507 98 460 74 q 581 164 554 122 q 608 254 608 206 q 572 360 608 317 q 480 428 536 403 q 360 464 424 453 l 278 494 l 278 508 q 144 601 190 542 q 99 732 99 661 q 140 863 99 808 q 252 947 182 917 q 403 976 322 976 q 558 944 490 976 q 662 859 625 913 q 699 742 699 806 q 647 601 699 663 q 507 501 596 540 l 413 549 q 490 587 453 563 q 553 648 528 611 q 579 732 579 685 q 557 808 579 772 q 494 867 535 844 q 397 889 454 889 q 304 867 344 889 q 241 809 264 844 q 218 733 218 774 q 276 615 218 665 q 439 547 333 565 l 522 521 l 522 507 q 623 456 575 489 q 702 374 671 424 q 733 257 733 325 q 690 119 733 181 q 572 21 647 57 q 396 -15 496 -15 z "},"9":{"ha":793,"x_min":64,"x_max":728,"o":"m 389 982 q 572 931 497 982 q 688 792 647 881 q 728 588 728 703 q 683 322 728 436 q 560 133 639 208 q 380 21 482 58 q 160 -15 278 -17 l 160 83 q 372 128 278 82 q 525 260 465 174 q 599 468 585 346 l 596 468 q 492 372 558 404 q 351 339 426 339 q 203 377 268 339 q 101 484 138 415 q 64 644 64 553 q 103 815 64 739 q 216 937 143 892 q 389 982 289 982 m 389 886 q 285 857 331 886 q 214 776 240 828 q 188 653 188 724 q 213 536 188 586 q 282 459 238 486 q 385 432 326 432 q 474 449 431 432 q 553 501 518 467 q 603 585 588 535 q 582 742 607 674 q 508 848 557 810 q 389 886 460 886 z "},"A":{"ha":853,"x_min":26,"x_max":829,"o":"m 351 1011 l 506 1011 l 829 0 l 700 0 l 501 674 l 429 903 l 428 903 l 356 674 l 156 0 l 26 0 l 351 1011 m 268 411 l 589 411 l 613 313 l 244 313 l 268 411 z "},"Á":{"ha":853,"x_min":26,"x_max":829,"o":"m 351 1011 l 506 1011 l 829 0 l 700 0 l 501 674 l 429 903 l 428 903 l 356 674 l 156 0 l 26 0 l 351 1011 m 268 411 l 589 411 l 613 313 l 244 313 l 268 411 m 386 1072 l 500 1247 l 613 1247 l 468 1072 l 386 1072 z "},"Ă":{"ha":853,"x_min":26,"x_max":829,"o":"m 351 1011 l 506 1011 l 829 0 l 700 0 l 501 674 l 429 903 l 428 903 l 356 674 l 156 0 l 26 0 l 351 1011 m 268 411 l 589 411 l 613 313 l 244 313 l 268 411 m 429 1068 q 333 1090 376 1068 q 265 1152 289 1111 q 243 1250 240 1193 l 301 1249 q 335 1163 299 1196 q 429 1129 372 1129 q 523 1163 486 1129 q 557 1249 560 1196 l 615 1250 q 593 1152 618 1193 q 525 1090 568 1111 q 429 1068 482 1068 z "},"Ặ":{"ha":853,"x_min":26,"x_max":829,"o":"m 351 1011 l 506 1011 l 829 0 l 700 0 l 501 674 l 429 903 l 428 903 l 356 674 l 156 0 l 26 0 l 351 1011 m 268 411 l 589 411 l 613 313 l 244 313 l 268 411 m 429 -199 q 381 -180 400 -199 q 361 -133 361 -161 q 381 -86 361 -106 q 429 -67 400 -67 q 478 -86 458 -67 q 497 -133 497 -106 q 478 -180 497 -161 q 429 -199 458 -199 m 429 1068 q 333 1090 376 1068 q 265 1152 289 1111 q 243 1250 240 1193 l 301 1249 q 335 1163 299 1196 q 429 1129 372 1129 q 523 1163 486 1129 q 557 1249 560 1196 l 615 1250 q 593 1152 618 1193 q 525 1090 568 1111 q 429 1068 482 1068 z "},"Ǎ":{"ha":853,"x_min":26,"x_max":829,"o":"m 351 1011 l 506 1011 l 829 0 l 700 0 l 501 674 l 429 903 l 428 903 l 356 674 l 156 0 l 26 0 l 351 1011 m 268 411 l 589 411 l 613 313 l 244 313 l 268 411 m 367 1072 l 218 1251 l 318 1251 l 426 1114 l 539 1251 l 639 1251 l 486 1072 l 367 1072 z "},"Â":{"ha":853,"x_min":26,"x_max":829,"o":"m 351 1011 l 506 1011 l 829 0 l 700 0 l 501 674 l 429 903 l 428 903 l 356 674 l 156 0 l 26 0 l 351 1011 m 268 411 l 589 411 l 613 313 l 244 313 l 268 411 m 217 1072 l 365 1247 l 488 1247 l 640 1072 l 540 1072 l 428 1206 l 315 1072 l 217 1072 z "},"Ậ":{"ha":853,"x_min":26,"x_max":829,"o":"m 351 1011 l 506 1011 l 829 0 l 700 0 l 501 674 l 429 903 l 428 903 l 356 674 l 156 0 l 26 0 l 351 1011 m 268 411 l 589 411 l 613 313 l 244 313 l 268 411 m 429 -199 q 381 -180 400 -199 q 361 -133 361 -161 q 381 -86 361 -106 q 429 -67 400 -67 q 478 -86 458 -67 q 497 -133 497 -106 q 478 -180 497 -161 q 429 -199 458 -199 m 217 1072 l 365 1247 l 488 1247 l 640 1072 l 540 1072 l 428 1206 l 315 1072 l 217 1072 z "},"Ä":{"ha":853,"x_min":26,"x_max":829,"o":"m 351 1011 l 506 1011 l 829 0 l 700 0 l 501 674 l 429 903 l 428 903 l 356 674 l 156 0 l 26 0 l 351 1011 m 268 411 l 589 411 l 613 313 l 244 313 l 268 411 m 303 1088 q 254 1107 274 1088 q 235 1154 235 1126 q 254 1201 235 1182 q 303 1219 274 1219 q 351 1199 332 1219 q 371 1154 371 1179 q 351 1107 371 1126 q 303 1088 332 1088 m 554 1088 q 506 1107 525 1088 q 486 1154 486 1126 q 506 1201 486 1182 q 554 1219 525 1219 q 603 1201 583 1219 q 622 1154 622 1182 q 603 1107 622 1126 q 554 1088 583 1088 z "},"Ȧ":{"ha":853,"x_min":26,"x_max":829,"o":"m 351 1011 l 506 1011 l 829 0 l 700 0 l 501 674 l 429 903 l 428 903 l 356 674 l 156 0 l 26 0 l 351 1011 m 268 411 l 589 411 l 613 313 l 244 313 l 268 411 m 429 1088 q 381 1107 400 1088 q 361 1154 361 1126 q 381 1201 361 1182 q 429 1219 400 1219 q 478 1201 458 1219 q 497 1154 497 1182 q 478 1107 497 1126 q 429 1088 458 1088 z "},"Ạ":{"ha":853,"x_min":26,"x_max":829,"o":"m 351 1011 l 506 1011 l 829 0 l 700 0 l 501 674 l 429 903 l 428 903 l 356 674 l 156 0 l 26 0 l 351 1011 m 268 411 l 589 411 l 613 313 l 244 313 l 268 411 m 429 -199 q 381 -180 400 -199 q 361 -133 361 -161 q 381 -86 361 -106 q 429 -67 400 -67 q 478 -86 458 -67 q 497 -133 497 -106 q 478 -180 497 -161 q 429 -199 458 -199 z "},"À":{"ha":853,"x_min":26,"x_max":829,"o":"m 351 1011 l 506 1011 l 829 0 l 700 0 l 501 674 l 429 903 l 428 903 l 356 674 l 156 0 l 26 0 l 351 1011 m 268 411 l 589 411 l 613 313 l 244 313 l 268 411 m 389 1072 l 242 1247 l 354 1247 l 471 1072 l 389 1072 z "},"Ā":{"ha":853,"x_min":26,"x_max":829,"o":"m 351 1011 l 506 1011 l 829 0 l 700 0 l 501 674 l 429 903 l 428 903 l 356 674 l 156 0 l 26 0 l 351 1011 m 268 411 l 589 411 l 613 313 l 244 313 l 268 411 m 243 1106 l 243 1175 l 615 1175 l 615 1106 l 243 1106 z "},"Ą":{"ha":853,"x_min":26,"x_max":842,"o":"m 351 1011 l 506 1011 l 829 0 l 700 0 l 501 674 l 429 903 l 428 903 l 356 674 l 156 0 l 26 0 l 351 1011 m 268 411 l 589 411 l 613 313 l 244 313 l 268 411 m 729 -294 q 635 -260 665 -294 q 604 -183 604 -225 q 657 -69 604 -125 q 800 7 710 -14 l 831 0 q 712 -74 756 -26 q 668 -172 668 -122 q 690 -228 668 -207 q 754 -250 713 -250 q 794 -246 772 -250 q 842 -235 817 -242 l 842 -272 q 781 -289 810 -283 q 729 -294 753 -294 z "},"Å":{"ha":853,"x_min":26,"x_max":829,"o":"m 351 1011 l 506 1011 l 829 0 l 700 0 l 501 674 l 429 903 l 428 903 l 356 674 l 156 0 l 26 0 l 351 1011 m 268 411 l 589 411 l 613 313 l 244 313 l 268 411 m 428 993 q 359 1012 390 993 q 309 1063 328 1031 q 290 1132 290 1094 q 309 1201 290 1171 q 359 1251 328 1232 q 428 1269 390 1269 q 498 1251 467 1269 q 548 1201 529 1232 q 567 1132 567 1171 q 548 1063 567 1094 q 498 1012 529 1031 q 428 993 467 993 m 428 1039 q 493 1066 467 1039 q 519 1132 519 1093 q 493 1196 519 1169 q 428 1222 467 1222 q 363 1196 390 1222 q 336 1132 336 1169 q 363 1066 336 1093 q 428 1039 390 1039 z "},"Ã":{"ha":853,"x_min":26,"x_max":829,"o":"m 351 1011 l 506 1011 l 829 0 l 700 0 l 501 674 l 429 903 l 428 903 l 356 674 l 156 0 l 26 0 l 351 1011 m 268 411 l 589 411 l 613 313 l 244 313 l 268 411 m 590 1225 l 649 1211 q 597 1118 631 1150 q 522 1086 564 1086 q 467 1099 493 1086 q 418 1131 442 1113 q 374 1162 394 1149 q 335 1175 353 1175 q 299 1157 315 1175 q 267 1099 282 1139 l 210 1113 q 260 1204 228 1172 q 335 1236 293 1236 q 390 1223 364 1236 q 439 1192 415 1210 q 483 1161 463 1175 q 522 1147 503 1147 q 558 1166 542 1147 q 590 1225 575 1185 z "},"Æ":{"ha":1124,"x_min":26,"x_max":1069,"o":"m 456 1011 l 611 1011 l 574 903 l 532 903 l 156 0 l 26 0 l 456 1011 m 290 411 l 550 411 l 568 313 l 267 313 l 290 411 m 539 1011 l 1049 1011 l 1043 907 l 664 907 l 664 576 l 1013 576 l 1006 471 l 664 471 l 664 104 l 1069 104 l 1061 0 l 539 0 l 539 1011 z "},"Ǽ":{"ha":1124,"x_min":26,"x_max":1069,"o":"m 456 1011 l 611 1011 l 574 903 l 532 903 l 156 0 l 26 0 l 456 1011 m 290 411 l 550 411 l 568 313 l 267 313 l 290 411 m 539 1011 l 1049 1011 l 1043 907 l 664 907 l 664 576 l 1013 576 l 1006 471 l 664 471 l 664 104 l 1069 104 l 1061 0 l 539 0 l 539 1011 m 560 1072 l 674 1247 l 786 1247 l 642 1072 l 560 1072 z "},"Ǣ":{"ha":1124,"x_min":26,"x_max":1069,"o":"m 456 1011 l 611 1011 l 574 903 l 532 903 l 156 0 l 26 0 l 456 1011 m 290 411 l 550 411 l 568 313 l 267 313 l 290 411 m 539 1011 l 1049 1011 l 1043 907 l 664 907 l 664 576 l 1013 576 l 1006 471 l 664 471 l 664 104 l 1069 104 l 1061 0 l 539 0 l 539 1011 m 415 1106 l 415 1175 l 788 1175 l 788 1106 l 415 1106 z "},"B":{"ha":801,"x_min":100,"x_max":742,"o":"m 304 -4 q 190 -3 242 -4 q 100 1 138 -1 l 100 1004 q 219 1013 154 1010 q 342 1015 283 1015 q 495 1001 428 1015 q 610 956 563 986 q 681 878 657 925 q 706 764 706 831 q 656 621 706 685 q 508 533 606 557 l 518 535 q 631 489 579 522 q 712 403 682 456 q 742 282 742 351 q 711 143 742 199 q 623 55 681 88 q 485 9 565 22 q 304 -4 404 -4 m 343 94 q 448 103 399 94 q 534 134 497 113 q 592 194 571 156 q 613 290 613 232 q 545 432 613 383 q 374 481 478 481 l 222 481 l 222 96 q 279 94 247 94 q 343 94 311 94 m 363 574 q 483 597 435 574 q 555 659 531 619 q 579 749 579 699 q 522 877 579 836 q 358 918 465 918 q 283 917 321 918 q 222 913 246 915 l 222 574 l 363 574 z "},"Ḃ":{"ha":801,"x_min":100,"x_max":742,"o":"m 304 -4 q 190 -3 242 -4 q 100 1 138 -1 l 100 1004 q 219 1013 154 1010 q 342 1015 283 1015 q 495 1001 428 1015 q 610 956 563 986 q 681 878 657 925 q 706 764 706 831 q 656 621 706 685 q 508 533 606 557 l 518 535 q 631 489 579 522 q 712 403 682 456 q 742 282 742 351 q 711 143 742 199 q 623 55 681 88 q 485 9 565 22 q 304 -4 404 -4 m 343 94 q 448 103 399 94 q 534 134 497 113 q 592 194 571 156 q 613 290 613 232 q 545 432 613 383 q 374 481 478 481 l 222 481 l 222 96 q 279 94 247 94 q 343 94 311 94 m 363 574 q 483 597 435 574 q 555 659 531 619 q 579 749 579 699 q 522 877 579 836 q 358 918 465 918 q 283 917 321 918 q 222 913 246 915 l 222 574 l 363 574 m 381 1088 q 332 1107 351 1088 q 313 1154 313 1126 q 332 1201 313 1182 q 381 1219 351 1219 q 429 1201 410 1219 q 449 1154 449 1182 q 429 1107 449 1126 q 381 1088 410 1088 z "},"Ḅ":{"ha":801,"x_min":100,"x_max":742,"o":"m 304 -4 q 190 -3 242 -4 q 100 1 138 -1 l 100 1004 q 219 1013 154 1010 q 342 1015 283 1015 q 495 1001 428 1015 q 610 956 563 986 q 681 878 657 925 q 706 764 706 831 q 656 621 706 685 q 508 533 606 557 l 518 535 q 631 489 579 522 q 712 403 682 456 q 742 282 742 351 q 711 143 742 199 q 623 55 681 88 q 485 9 565 22 q 304 -4 404 -4 m 343 94 q 448 103 399 94 q 534 134 497 113 q 592 194 571 156 q 613 290 613 232 q 545 432 613 383 q 374 481 478 481 l 222 481 l 222 96 q 279 94 247 94 q 343 94 311 94 m 363 574 q 483 597 435 574 q 555 659 531 619 q 579 749 579 699 q 522 877 579 836 q 358 918 465 918 q 283 917 321 918 q 222 913 246 915 l 222 574 l 363 574 m 396 -199 q 347 -180 367 -199 q 328 -133 328 -161 q 347 -86 328 -106 q 396 -67 367 -67 q 444 -86 425 -67 q 464 -133 464 -106 q 444 -180 464 -161 q 396 -199 425 -199 z "},"C":{"ha":826,"x_min":54,"x_max":779,"o":"m 529 -17 q 321 23 411 -17 q 172 133 231 63 q 83 297 113 204 q 54 499 54 390 q 111 773 54 653 q 276 960 168 893 q 536 1028 385 1028 q 677 1014 613 1028 q 779 982 742 1000 l 763 881 q 663 910 719 897 q 543 922 606 922 q 350 870 431 922 q 227 724 269 818 q 185 503 185 629 q 226 288 185 381 q 347 142 267 194 q 544 89 428 89 q 660 101 603 89 q 764 132 718 113 l 778 31 q 665 -4 731 8 q 529 -17 600 -17 z "},"Ć":{"ha":826,"x_min":54,"x_max":779,"o":"m 529 -17 q 321 23 411 -17 q 172 133 231 63 q 83 297 113 204 q 54 499 54 390 q 111 773 54 653 q 276 960 168 893 q 536 1028 385 1028 q 677 1014 613 1028 q 779 982 742 1000 l 763 881 q 663 910 719 897 q 543 922 606 922 q 350 870 431 922 q 227 724 269 818 q 185 503 185 629 q 226 288 185 381 q 347 142 267 194 q 544 89 428 89 q 660 101 603 89 q 764 132 718 113 l 778 31 q 665 -4 731 8 q 529 -17 600 -17 m 485 1072 l 599 1247 l 711 1247 l 567 1072 l 485 1072 z "},"Č":{"ha":826,"x_min":54,"x_max":779,"o":"m 529 -17 q 321 23 411 -17 q 172 133 231 63 q 83 297 113 204 q 54 499 54 390 q 111 773 54 653 q 276 960 168 893 q 536 1028 385 1028 q 677 1014 613 1028 q 779 982 742 1000 l 763 881 q 663 910 719 897 q 543 922 606 922 q 350 870 431 922 q 227 724 269 818 q 185 503 185 629 q 226 288 185 381 q 347 142 267 194 q 544 89 428 89 q 660 101 603 89 q 764 132 718 113 l 778 31 q 665 -4 731 8 q 529 -17 600 -17 m 467 1072 l 318 1251 l 418 1251 l 526 1114 l 639 1251 l 739 1251 l 586 1072 l 467 1072 z "},"Ç":{"ha":826,"x_min":54,"x_max":779,"o":"m 529 -17 q 321 23 411 -17 q 172 133 231 63 q 83 297 113 204 q 54 499 54 390 q 111 773 54 653 q 276 960 168 893 q 536 1028 385 1028 q 677 1014 613 1028 q 779 982 742 1000 l 763 881 q 663 910 719 897 q 543 922 606 922 q 350 870 431 922 q 227 724 269 818 q 185 503 185 629 q 226 288 185 381 q 347 142 267 194 q 544 89 428 89 q 660 101 603 89 q 764 132 718 113 l 778 31 q 665 -4 731 8 q 529 -17 600 -17 m 481 -328 q 415 -322 449 -328 q 350 -308 382 -317 l 371 -264 q 426 -274 399 -271 q 479 -278 454 -278 q 575 -254 542 -278 q 608 -193 608 -231 q 585 -146 608 -161 q 526 -131 563 -131 q 447 -146 489 -131 l 422 -119 l 479 0 l 533 0 l 485 -100 q 581 -94 538 -87 q 649 -126 624 -101 q 675 -192 675 -150 q 622 -291 675 -254 q 481 -328 568 -328 z "},"Ĉ":{"ha":826,"x_min":54,"x_max":779,"o":"m 529 -17 q 321 23 411 -17 q 172 133 231 63 q 83 297 113 204 q 54 499 54 390 q 111 773 54 653 q 276 960 168 893 q 536 1028 385 1028 q 677 1014 613 1028 q 779 982 742 1000 l 763 881 q 663 910 719 897 q 543 922 606 922 q 350 870 431 922 q 227 724 269 818 q 185 503 185 629 q 226 288 185 381 q 347 142 267 194 q 544 89 428 89 q 660 101 603 89 q 764 132 718 113 l 778 31 q 665 -4 731 8 q 529 -17 600 -17 m 317 1072 l 465 1247 l 588 1247 l 740 1072 l 640 1072 l 528 1206 l 415 1072 l 317 1072 z "},"Ċ":{"ha":826,"x_min":54,"x_max":779,"o":"m 529 -17 q 321 23 411 -17 q 172 133 231 63 q 83 297 113 204 q 54 499 54 390 q 111 773 54 653 q 276 960 168 893 q 536 1028 385 1028 q 677 1014 613 1028 q 779 982 742 1000 l 763 881 q 663 910 719 897 q 543 922 606 922 q 350 870 431 922 q 227 724 269 818 q 185 503 185 629 q 226 288 185 381 q 347 142 267 194 q 544 89 428 89 q 660 101 603 89 q 764 132 718 113 l 778 31 q 665 -4 731 8 q 529 -17 600 -17 m 528 1088 q 479 1107 499 1088 q 460 1154 460 1126 q 479 1201 460 1182 q 528 1219 499 1219 q 576 1201 557 1219 q 596 1154 596 1182 q 576 1107 596 1126 q 528 1088 557 1088 z "},"D":{"ha":936,"x_min":100,"x_max":882,"o":"m 322 -4 q 204 -2 257 -4 q 100 1 151 0 l 100 1004 q 231 1013 163 1011 q 358 1015 299 1015 q 650 956 533 1015 q 824 785 767 896 q 882 522 882 675 q 819 235 882 353 q 632 57 757 118 q 322 -4 507 -4 m 342 99 q 565 145 474 99 q 703 286 656 192 q 750 519 750 381 q 708 730 750 642 q 579 866 665 818 q 363 914 493 914 q 294 913 331 914 q 225 907 257 911 l 225 100 q 278 99 251 99 q 342 99 304 99 z "},"Ɖ":{"ha":940,"x_min":7,"x_max":886,"o":"m 326 -4 q 208 -2 261 -4 q 104 1 156 0 l 104 1004 q 235 1013 167 1011 q 363 1015 303 1015 q 655 956 539 1015 q 828 785 771 896 q 886 522 886 675 q 824 235 886 353 q 636 57 761 118 q 326 -4 511 -4 m 346 99 q 569 145 478 99 q 707 286 660 192 q 754 519 754 381 q 712 730 754 642 q 583 866 669 818 q 367 914 497 914 q 298 913 335 914 q 229 907 261 911 l 229 100 q 282 99 256 99 q 346 99 308 99 m 7 454 l 14 558 l 456 558 l 449 454 l 7 454 z "},"Ð":{"ha":940,"x_min":7,"x_max":886,"o":"m 326 -4 q 208 -2 261 -4 q 104 1 156 0 l 104 1004 q 235 1013 167 1011 q 363 1015 303 1015 q 655 956 539 1015 q 828 785 771 896 q 886 522 886 675 q 824 235 886 353 q 636 57 761 118 q 326 -4 511 -4 m 346 99 q 569 145 478 99 q 707 286 660 192 q 754 519 754 381 q 712 730 754 642 q 583 866 669 818 q 367 914 497 914 q 298 913 335 914 q 229 907 261 911 l 229 100 q 282 99 256 99 q 346 99 308 99 m 7 454 l 14 558 l 456 558 l 449 454 l 7 454 z "},"Ď":{"ha":936,"x_min":100,"x_max":882,"o":"m 322 -4 q 204 -2 257 -4 q 100 1 151 0 l 100 1004 q 231 1013 163 1011 q 358 1015 299 1015 q 650 956 533 1015 q 824 785 767 896 q 882 522 882 675 q 819 235 882 353 q 632 57 757 118 q 322 -4 507 -4 m 342 99 q 565 145 474 99 q 703 286 656 192 q 750 519 750 381 q 708 730 750 642 q 579 866 665 818 q 363 914 493 914 q 294 913 331 914 q 225 907 257 911 l 225 100 q 278 99 251 99 q 342 99 304 99 m 360 1072 l 211 1251 l 311 1251 l 419 1114 l 532 1251 l 632 1251 l 479 1072 l 360 1072 z "},"Đ":{"ha":940,"x_min":7,"x_max":886,"o":"m 326 -4 q 208 -2 261 -4 q 104 1 156 0 l 104 1004 q 235 1013 167 1011 q 363 1015 303 1015 q 655 956 539 1015 q 828 785 771 896 q 886 522 886 675 q 824 235 886 353 q 636 57 761 118 q 326 -4 511 -4 m 346 99 q 569 145 478 99 q 707 286 660 192 q 754 519 754 381 q 712 730 754 642 q 583 866 669 818 q 367 914 497 914 q 298 913 335 914 q 229 907 261 911 l 229 100 q 282 99 256 99 q 346 99 308 99 m 7 454 l 14 558 l 456 558 l 449 454 l 7 454 z "},"Ḋ":{"ha":936,"x_min":100,"x_max":882,"o":"m 322 -4 q 204 -2 257 -4 q 100 1 151 0 l 100 1004 q 231 1013 163 1011 q 358 1015 299 1015 q 650 956 533 1015 q 824 785 767 896 q 882 522 882 675 q 819 235 882 353 q 632 57 757 118 q 322 -4 507 -4 m 342 99 q 565 145 474 99 q 703 286 656 192 q 750 519 750 381 q 708 730 750 642 q 579 866 665 818 q 363 914 493 914 q 294 913 331 914 q 225 907 257 911 l 225 100 q 278 99 251 99 q 342 99 304 99 m 422 1088 q 374 1107 393 1088 q 354 1154 354 1126 q 374 1201 354 1182 q 422 1219 393 1219 q 471 1201 451 1219 q 490 1154 490 1182 q 471 1107 490 1126 q 422 1088 451 1088 z "},"Ḍ":{"ha":936,"x_min":100,"x_max":882,"o":"m 322 -4 q 204 -2 257 -4 q 100 1 151 0 l 100 1004 q 231 1013 163 1011 q 358 1015 299 1015 q 650 956 533 1015 q 824 785 767 896 q 882 522 882 675 q 819 235 882 353 q 632 57 757 118 q 322 -4 507 -4 m 342 99 q 565 145 474 99 q 703 286 656 192 q 750 519 750 381 q 708 730 750 642 q 579 866 665 818 q 363 914 493 914 q 294 913 331 914 q 225 907 257 911 l 225 100 q 278 99 251 99 q 342 99 304 99 m 426 -199 q 378 -180 397 -199 q 358 -133 358 -161 q 378 -86 358 -106 q 426 -67 397 -67 q 475 -86 456 -67 q 494 -133 494 -106 q 475 -180 494 -161 q 426 -199 456 -199 z "},"E":{"ha":718,"x_min":100,"x_max":664,"o":"m 100 1011 l 643 1011 l 636 907 l 225 907 l 225 576 l 607 576 l 600 471 l 225 471 l 225 104 l 664 104 l 656 0 l 100 0 l 100 1011 z "},"É":{"ha":718,"x_min":100,"x_max":664,"o":"m 100 1011 l 643 1011 l 636 907 l 225 907 l 225 576 l 607 576 l 600 471 l 225 471 l 225 104 l 664 104 l 656 0 l 100 0 l 100 1011 m 342 1072 l 456 1247 l 568 1247 l 424 1072 l 342 1072 z "},"Ĕ":{"ha":718,"x_min":100,"x_max":664,"o":"m 100 1011 l 643 1011 l 636 907 l 225 907 l 225 576 l 607 576 l 600 471 l 225 471 l 225 104 l 664 104 l 656 0 l 100 0 l 100 1011 m 385 1068 q 288 1090 332 1068 q 220 1152 244 1111 q 199 1250 196 1193 l 257 1249 q 291 1163 254 1196 q 385 1129 328 1129 q 478 1163 442 1129 q 513 1249 515 1196 l 571 1250 q 549 1152 574 1193 q 481 1090 524 1111 q 385 1068 438 1068 z "},"Ě":{"ha":718,"x_min":100,"x_max":664,"o":"m 100 1011 l 643 1011 l 636 907 l 225 907 l 225 576 l 607 576 l 600 471 l 225 471 l 225 104 l 664 104 l 656 0 l 100 0 l 100 1011 m 324 1072 l 175 1251 l 275 1251 l 383 1114 l 496 1251 l 596 1251 l 443 1072 l 324 1072 z "},"Ȩ":{"ha":718,"x_min":100,"x_max":664,"o":"m 100 1011 l 643 1011 l 636 907 l 225 907 l 225 576 l 607 576 l 600 471 l 225 471 l 225 104 l 664 104 l 656 0 l 100 0 l 100 1011 m 358 -328 q 293 -322 326 -328 q 228 -308 260 -317 l 249 -264 q 304 -274 276 -271 q 357 -278 332 -278 q 453 -254 419 -278 q 486 -193 486 -231 q 463 -146 486 -161 q 403 -131 440 -131 q 325 -146 367 -131 l 300 -119 l 357 0 l 411 0 l 363 -100 q 458 -94 415 -87 q 527 -126 501 -101 q 553 -192 553 -150 q 499 -291 553 -254 q 358 -328 446 -328 z "},"Ê":{"ha":718,"x_min":100,"x_max":664,"o":"m 100 1011 l 643 1011 l 636 907 l 225 907 l 225 576 l 607 576 l 600 471 l 225 471 l 225 104 l 664 104 l 656 0 l 100 0 l 100 1011 m 174 1072 l 322 1247 l 444 1247 l 597 1072 l 497 1072 l 385 1206 l 272 1072 l 174 1072 z "},"Ḙ":{"ha":718,"x_min":100,"x_max":664,"o":"m 100 1011 l 643 1011 l 636 907 l 225 907 l 225 576 l 607 576 l 600 471 l 225 471 l 225 104 l 664 104 l 656 0 l 100 0 l 100 1011 m 175 -257 l 324 -58 l 446 -58 l 599 -257 l 499 -257 l 386 -100 l 274 -257 l 175 -257 z "},"Ệ":{"ha":718,"x_min":100,"x_max":664,"o":"m 100 1011 l 643 1011 l 636 907 l 225 907 l 225 576 l 607 576 l 600 471 l 225 471 l 225 104 l 664 104 l 656 0 l 100 0 l 100 1011 m 385 -199 q 336 -180 356 -199 q 317 -133 317 -161 q 336 -86 317 -106 q 385 -67 356 -67 q 433 -86 414 -67 q 453 -133 453 -106 q 433 -180 453 -161 q 385 -199 414 -199 m 174 1072 l 322 1247 l 444 1247 l 597 1072 l 497 1072 l 385 1206 l 272 1072 l 174 1072 z "},"Ë":{"ha":718,"x_min":100,"x_max":664,"o":"m 100 1011 l 643 1011 l 636 907 l 225 907 l 225 576 l 607 576 l 600 471 l 225 471 l 225 104 l 664 104 l 656 0 l 100 0 l 100 1011 m 258 1088 q 210 1107 229 1088 q 190 1154 190 1126 q 210 1201 190 1182 q 258 1219 229 1219 q 307 1199 288 1219 q 326 1154 326 1179 q 307 1107 326 1126 q 258 1088 288 1088 m 510 1088 q 461 1107 481 1088 q 442 1154 442 1126 q 461 1201 442 1182 q 510 1219 481 1219 q 558 1201 539 1219 q 578 1154 578 1182 q 558 1107 578 1126 q 510 1088 539 1088 z "},"Ė":{"ha":718,"x_min":100,"x_max":664,"o":"m 100 1011 l 643 1011 l 636 907 l 225 907 l 225 576 l 607 576 l 600 471 l 225 471 l 225 104 l 664 104 l 656 0 l 100 0 l 100 1011 m 385 1088 q 336 1107 356 1088 q 317 1154 317 1126 q 336 1201 317 1182 q 385 1219 356 1219 q 433 1201 414 1219 q 453 1154 453 1182 q 433 1107 453 1126 q 385 1088 414 1088 z "},"Ẹ":{"ha":718,"x_min":100,"x_max":664,"o":"m 100 1011 l 643 1011 l 636 907 l 225 907 l 225 576 l 607 576 l 600 471 l 225 471 l 225 104 l 664 104 l 656 0 l 100 0 l 100 1011 m 385 -199 q 336 -180 356 -199 q 317 -133 317 -161 q 336 -86 317 -106 q 385 -67 356 -67 q 433 -86 414 -67 q 453 -133 453 -106 q 433 -180 453 -161 q 385 -199 414 -199 z "},"È":{"ha":718,"x_min":100,"x_max":664,"o":"m 100 1011 l 643 1011 l 636 907 l 225 907 l 225 576 l 607 576 l 600 471 l 225 471 l 225 104 l 664 104 l 656 0 l 100 0 l 100 1011 m 344 1072 l 197 1247 l 310 1247 l 426 1072 l 344 1072 z "},"Ē":{"ha":718,"x_min":100,"x_max":664,"o":"m 100 1011 l 643 1011 l 636 907 l 225 907 l 225 576 l 607 576 l 600 471 l 225 471 l 225 104 l 664 104 l 656 0 l 100 0 l 100 1011 m 199 1106 l 199 1175 l 571 1175 l 571 1106 l 199 1106 z "},"Ę":{"ha":718,"x_min":100,"x_max":668,"o":"m 100 1011 l 643 1011 l 636 907 l 225 907 l 225 576 l 607 576 l 600 471 l 225 471 l 225 104 l 664 104 l 656 0 l 100 0 l 100 1011 m 554 -294 q 460 -260 490 -294 q 429 -183 429 -225 q 482 -69 429 -125 q 625 7 535 -14 l 656 0 q 537 -74 581 -26 q 493 -172 493 -122 q 515 -228 493 -207 q 579 -250 538 -250 q 619 -246 597 -250 q 667 -235 642 -242 l 667 -272 q 606 -289 635 -283 q 554 -294 578 -294 z "},"Ẽ":{"ha":718,"x_min":100,"x_max":664,"o":"m 100 1011 l 643 1011 l 636 907 l 225 907 l 225 576 l 607 576 l 600 471 l 225 471 l 225 104 l 664 104 l 656 0 l 100 0 l 100 1011 m 546 1225 l 604 1211 q 553 1118 586 1150 q 478 1086 519 1086 q 423 1099 449 1086 q 374 1131 397 1113 q 329 1162 350 1149 q 290 1175 308 1175 q 254 1157 271 1175 q 222 1099 238 1139 l 165 1113 q 216 1204 183 1172 q 290 1236 249 1236 q 345 1223 319 1236 q 394 1192 371 1210 q 438 1161 418 1175 q 478 1147 458 1147 q 514 1166 497 1147 q 546 1225 531 1185 z "},"Ḛ":{"ha":718,"x_min":100,"x_max":664,"o":"m 100 1011 l 643 1011 l 636 907 l 225 907 l 225 576 l 607 576 l 600 471 l 225 471 l 225 104 l 664 104 l 656 0 l 100 0 l 100 1011 m 543 -62 l 606 -79 q 553 -176 588 -143 q 472 -210 518 -210 q 417 -196 443 -210 q 366 -164 390 -182 q 321 -132 342 -146 q 281 -118 300 -118 q 244 -137 261 -118 q 211 -199 226 -157 l 149 -183 q 201 -86 165 -119 q 281 -53 236 -53 q 336 -66 310 -53 q 387 -97 363 -79 q 433 -129 411 -115 q 472 -143 454 -143 q 510 -124 493 -143 q 543 -62 528 -104 z "},"F":{"ha":697,"x_min":100,"x_max":642,"o":"m 100 1011 l 642 1011 l 635 907 l 225 907 l 225 561 l 600 561 l 592 457 l 225 457 l 225 0 l 100 0 l 100 1011 z "},"Ḟ":{"ha":697,"x_min":100,"x_max":642,"o":"m 100 1011 l 642 1011 l 635 907 l 225 907 l 225 561 l 600 561 l 592 457 l 225 457 l 225 0 l 100 0 l 100 1011 m 349 1088 q 300 1107 319 1088 q 281 1154 281 1126 q 300 1201 281 1182 q 349 1219 319 1219 q 397 1201 378 1219 q 417 1154 417 1182 q 397 1107 417 1126 q 349 1088 378 1088 z "},"G":{"ha":906,"x_min":54,"x_max":829,"o":"m 540 -15 q 336 21 426 -15 q 183 125 246 57 q 88 288 121 193 q 54 499 54 383 q 88 710 54 614 q 186 878 122 807 q 341 988 250 949 q 547 1028 432 1028 q 697 1012 629 1028 q 806 979 764 996 l 786 876 q 683 908 742 893 q 551 922 625 922 q 399 892 467 922 q 283 806 331 861 q 211 673 236 750 q 186 504 186 596 q 232 280 186 372 q 360 139 278 188 q 547 90 442 90 q 641 99 599 90 q 711 118 683 108 l 711 464 l 761 408 l 511 408 l 518 507 l 829 507 l 829 39 q 751 13 797 26 q 651 -8 706 0 q 540 -15 597 -15 z "},"Ǵ":{"ha":906,"x_min":54,"x_max":829,"o":"m 540 -15 q 336 21 426 -15 q 183 125 246 57 q 88 288 121 193 q 54 499 54 383 q 88 710 54 614 q 186 878 122 807 q 341 988 250 949 q 547 1028 432 1028 q 697 1012 629 1028 q 806 979 764 996 l 786 876 q 683 908 742 893 q 551 922 625 922 q 399 892 467 922 q 283 806 331 861 q 211 673 236 750 q 186 504 186 596 q 232 280 186 372 q 360 139 278 188 q 547 90 442 90 q 641 99 599 90 q 711 118 683 108 l 711 464 l 761 408 l 511 408 l 518 507 l 829 507 l 829 39 q 751 13 797 26 q 651 -8 706 0 q 540 -15 597 -15 m 496 1072 l 610 1247 l 722 1247 l 578 1072 l 496 1072 z "},"Ğ":{"ha":906,"x_min":54,"x_max":829,"o":"m 540 -15 q 336 21 426 -15 q 183 125 246 57 q 88 288 121 193 q 54 499 54 383 q 88 710 54 614 q 186 878 122 807 q 341 988 250 949 q 547 1028 432 1028 q 697 1012 629 1028 q 806 979 764 996 l 786 876 q 683 908 742 893 q 551 922 625 922 q 399 892 467 922 q 283 806 331 861 q 211 673 236 750 q 186 504 186 596 q 232 280 186 372 q 360 139 278 188 q 547 90 442 90 q 641 99 599 90 q 711 118 683 108 l 711 464 l 761 408 l 511 408 l 518 507 l 829 507 l 829 39 q 751 13 797 26 q 651 -8 706 0 q 540 -15 597 -15 m 539 1068 q 442 1090 486 1068 q 374 1152 399 1111 q 353 1250 350 1193 l 411 1249 q 445 1163 408 1196 q 539 1129 482 1129 q 633 1163 596 1129 q 667 1249 669 1196 l 725 1250 q 703 1152 728 1193 q 635 1090 678 1111 q 539 1068 592 1068 z "},"Ǧ":{"ha":906,"x_min":54,"x_max":829,"o":"m 540 -15 q 336 21 426 -15 q 183 125 246 57 q 88 288 121 193 q 54 499 54 383 q 88 710 54 614 q 186 878 122 807 q 341 988 250 949 q 547 1028 432 1028 q 697 1012 629 1028 q 806 979 764 996 l 786 876 q 683 908 742 893 q 551 922 625 922 q 399 892 467 922 q 283 806 331 861 q 211 673 236 750 q 186 504 186 596 q 232 280 186 372 q 360 139 278 188 q 547 90 442 90 q 641 99 599 90 q 711 118 683 108 l 711 464 l 761 408 l 511 408 l 518 507 l 829 507 l 829 39 q 751 13 797 26 q 651 -8 706 0 q 540 -15 597 -15 m 478 1072 l 329 1251 l 429 1251 l 538 1114 l 650 1251 l 750 1251 l 597 1072 l 478 1072 z "},"Ĝ":{"ha":906,"x_min":54,"x_max":829,"o":"m 540 -15 q 336 21 426 -15 q 183 125 246 57 q 88 288 121 193 q 54 499 54 383 q 88 710 54 614 q 186 878 122 807 q 341 988 250 949 q 547 1028 432 1028 q 697 1012 629 1028 q 806 979 764 996 l 786 876 q 683 908 742 893 q 551 922 625 922 q 399 892 467 922 q 283 806 331 861 q 211 673 236 750 q 186 504 186 596 q 232 280 186 372 q 360 139 278 188 q 547 90 442 90 q 641 99 599 90 q 711 118 683 108 l 711 464 l 761 408 l 511 408 l 518 507 l 829 507 l 829 39 q 751 13 797 26 q 651 -8 706 0 q 540 -15 597 -15 m 328 1072 l 476 1247 l 599 1247 l 751 1072 l 651 1072 l 539 1206 l 426 1072 l 328 1072 z "},"Ģ":{"ha":906,"x_min":54,"x_max":829,"o":"m 540 -15 q 336 21 426 -15 q 183 125 246 57 q 88 288 121 193 q 54 499 54 383 q 88 710 54 614 q 186 878 122 807 q 341 988 250 949 q 547 1028 432 1028 q 697 1012 629 1028 q 806 979 764 996 l 786 876 q 683 908 742 893 q 551 922 625 922 q 399 892 467 922 q 283 806 331 861 q 211 673 236 750 q 186 504 186 596 q 232 280 186 372 q 360 139 278 188 q 547 90 442 90 q 641 99 599 90 q 711 118 683 108 l 711 464 l 761 408 l 511 408 l 518 507 l 829 507 l 829 39 q 751 13 797 26 q 651 -8 706 0 q 540 -15 597 -15 m 499 -57 l 579 -57 l 542 -304 l 474 -304 l 499 -57 z "},"Ġ":{"ha":906,"x_min":54,"x_max":829,"o":"m 540 -15 q 336 21 426 -15 q 183 125 246 57 q 88 288 121 193 q 54 499 54 383 q 88 710 54 614 q 186 878 122 807 q 341 988 250 949 q 547 1028 432 1028 q 697 1012 629 1028 q 806 979 764 996 l 786 876 q 683 908 742 893 q 551 922 625 922 q 399 892 467 922 q 283 806 331 861 q 211 673 236 750 q 186 504 186 596 q 232 280 186 372 q 360 139 278 188 q 547 90 442 90 q 641 99 599 90 q 711 118 683 108 l 711 464 l 761 408 l 511 408 l 518 507 l 829 507 l 829 39 q 751 13 797 26 q 651 -8 706 0 q 540 -15 597 -15 m 539 1088 q 490 1107 510 1088 q 471 1154 471 1126 q 490 1201 471 1182 q 539 1219 510 1219 q 588 1201 568 1219 q 607 1154 607 1182 q 588 1107 607 1126 q 539 1088 568 1088 z "},"Ḡ":{"ha":906,"x_min":54,"x_max":829,"o":"m 540 -15 q 336 21 426 -15 q 183 125 246 57 q 88 288 121 193 q 54 499 54 383 q 88 710 54 614 q 186 878 122 807 q 341 988 250 949 q 547 1028 432 1028 q 697 1012 629 1028 q 806 979 764 996 l 786 876 q 683 908 742 893 q 551 922 625 922 q 399 892 467 922 q 283 806 331 861 q 211 673 236 750 q 186 504 186 596 q 232 280 186 372 q 360 139 278 188 q 547 90 442 90 q 641 99 599 90 q 711 118 683 108 l 711 464 l 761 408 l 511 408 l 518 507 l 829 507 l 829 39 q 751 13 797 26 q 651 -8 706 0 q 540 -15 597 -15 m 353 1106 l 353 1175 l 725 1175 l 725 1106 l 353 1106 z "},"H":{"ha":917,"x_min":100,"x_max":815,"o":"m 100 1011 l 225 1011 l 225 579 l 692 579 l 692 1011 l 815 1011 l 815 0 l 692 0 l 692 471 l 225 471 l 225 0 l 100 0 l 100 1011 z "},"Ħ":{"ha":915,"x_min":24,"x_max":890,"o":"m 24 751 l 31 828 l 890 828 l 883 751 l 24 751 m 99 1011 l 224 1011 l 224 579 l 690 579 l 690 1011 l 815 1011 l 815 0 l 690 0 l 690 471 l 224 471 l 224 0 l 99 0 l 99 1011 z "},"Ȟ":{"ha":917,"x_min":100,"x_max":815,"o":"m 100 1011 l 225 1011 l 225 579 l 692 579 l 692 1011 l 815 1011 l 815 0 l 692 0 l 692 471 l 225 471 l 225 0 l 100 0 l 100 1011 m 397 1072 l 249 1251 l 349 1251 l 457 1114 l 569 1251 l 669 1251 l 517 1072 l 397 1072 z "},"Ĥ":{"ha":917,"x_min":100,"x_max":815,"o":"m 100 1011 l 225 1011 l 225 579 l 692 579 l 692 1011 l 815 1011 l 815 0 l 692 0 l 692 471 l 225 471 l 225 0 l 100 0 l 100 1011 m 247 1072 l 396 1247 l 518 1247 l 671 1072 l 571 1072 l 458 1206 l 346 1072 l 247 1072 z "},"Ḧ":{"ha":917,"x_min":100,"x_max":815,"o":"m 100 1011 l 225 1011 l 225 579 l 692 579 l 692 1011 l 815 1011 l 815 0 l 692 0 l 692 471 l 225 471 l 225 0 l 100 0 l 100 1011 m 332 1088 q 283 1107 303 1088 q 264 1154 264 1126 q 283 1201 264 1182 q 332 1219 303 1219 q 381 1199 361 1219 q 400 1154 400 1179 q 381 1107 400 1126 q 332 1088 361 1088 m 583 1088 q 535 1107 554 1088 q 515 1154 515 1126 q 535 1201 515 1182 q 583 1219 554 1219 q 632 1201 613 1219 q 651 1154 651 1182 q 632 1107 651 1126 q 583 1088 613 1088 z "},"Ḣ":{"ha":917,"x_min":100,"x_max":815,"o":"m 100 1011 l 225 1011 l 225 579 l 692 579 l 692 1011 l 815 1011 l 815 0 l 692 0 l 692 471 l 225 471 l 225 0 l 100 0 l 100 1011 m 458 1088 q 410 1107 429 1088 q 390 1154 390 1126 q 410 1201 390 1182 q 458 1219 429 1219 q 507 1201 488 1219 q 526 1154 526 1182 q 507 1107 526 1126 q 458 1088 488 1088 z "},"Ḥ":{"ha":917,"x_min":100,"x_max":815,"o":"m 100 1011 l 225 1011 l 225 579 l 692 579 l 692 1011 l 815 1011 l 815 0 l 692 0 l 692 471 l 225 471 l 225 0 l 100 0 l 100 1011 m 458 -199 q 410 -180 429 -199 q 390 -133 390 -161 q 410 -86 390 -106 q 458 -67 429 -67 q 507 -86 488 -67 q 526 -133 526 -106 q 507 -180 526 -161 q 458 -199 488 -199 z "},"I":{"ha":326,"x_min":100,"x_max":225,"o":"m 100 1011 l 225 1011 l 225 0 l 100 0 l 100 1011 z "},"Ĳ":{"ha":651,"x_min":100,"x_max":550,"o":"m 100 1011 l 225 1011 l 225 0 l 100 0 l 100 1011 m 314 -69 q 378 -60 354 -68 q 415 -25 403 -53 q 426 63 426 3 l 426 1011 l 551 1011 l 551 63 q 533 -60 551 -14 q 484 -131 515 -107 q 411 -163 453 -154 q 321 -172 369 -172 l 314 -69 z "},"Í":{"ha":326,"x_min":100,"x_max":344,"o":"m 100 1011 l 225 1011 l 225 0 l 100 0 l 100 1011 m 119 1072 l 233 1247 l 346 1247 l 201 1072 l 119 1072 z "},"Î":{"ha":326,"x_min":-49,"x_max":375,"o":"m 100 1011 l 225 1011 l 225 0 l 100 0 l 100 1011 m -50 1072 l 99 1247 l 221 1247 l 374 1072 l 274 1072 l 161 1206 l 49 1072 l -50 1072 z "},"Ï":{"ha":326,"x_min":-32,"x_max":356,"o":"m 100 1011 l 225 1011 l 225 0 l 100 0 l 100 1011 m 36 1088 q -12 1107 7 1088 q -32 1154 -32 1126 q -12 1201 -32 1182 q 36 1219 7 1219 q 85 1199 65 1219 q 104 1154 104 1179 q 85 1107 104 1126 q 36 1088 65 1088 m 288 1088 q 239 1107 258 1088 q 219 1154 219 1126 q 239 1201 219 1182 q 288 1219 258 1219 q 336 1201 317 1219 q 356 1154 356 1182 q 336 1107 356 1126 q 288 1088 317 1088 z "},"İ":{"ha":326,"x_min":93,"x_max":231,"o":"m 100 1011 l 225 1011 l 225 0 l 100 0 l 100 1011 m 163 1088 q 114 1107 133 1088 q 94 1154 94 1126 q 114 1201 94 1182 q 163 1219 133 1219 q 211 1201 192 1219 q 231 1154 231 1182 q 211 1107 231 1126 q 163 1088 192 1088 z "},"Ì":{"ha":326,"x_min":-25,"x_max":225,"o":"m 100 1011 l 225 1011 l 225 0 l 100 0 l 100 1011 m 122 1072 l -25 1247 l 88 1247 l 204 1072 l 122 1072 z "},"Ī":{"ha":326,"x_min":-24,"x_max":349,"o":"m 100 1011 l 225 1011 l 225 0 l 100 0 l 100 1011 m -24 1106 l -24 1175 l 349 1175 l 349 1106 l -24 1106 z "},"Į":{"ha":326,"x_min":-1,"x_max":236,"o":"m 100 1011 l 225 1011 l 225 0 l 100 0 l 100 1011 m 124 -294 q 29 -260 60 -294 q -1 -183 -1 -225 q 51 -69 -1 -125 q 194 7 104 -14 l 225 0 q 106 -74 150 -26 q 63 -172 63 -122 q 85 -228 63 -207 q 149 -250 107 -250 q 189 -246 167 -250 q 236 -235 211 -242 l 236 -272 q 176 -289 204 -283 q 124 -294 147 -294 z "},"Ĩ":{"ha":326,"x_min":-57,"x_max":382,"o":"m 100 1011 l 225 1011 l 225 0 l 100 0 l 100 1011 m 324 1225 l 382 1211 q 331 1118 364 1150 q 256 1086 297 1086 q 201 1099 226 1086 q 151 1131 175 1113 q 107 1162 128 1149 q 68 1175 86 1175 q 32 1157 49 1175 q 0 1099 15 1139 l -57 1113 q -6 1204 -39 1172 q 68 1236 26 1236 q 123 1223 97 1236 q 172 1192 149 1210 q 216 1161 196 1175 q 256 1147 236 1147 q 292 1166 275 1147 q 324 1225 308 1185 z "},"J":{"ha":326,"x_min":-12,"x_max":225,"o":"m -12 -69 q 52 -60 28 -68 q 88 -25 76 -53 q 100 63 100 3 l 100 1011 l 225 1011 l 225 63 q 207 -60 225 -14 q 158 -131 189 -107 q 85 -163 126 -154 q -6 -172 43 -172 l -12 -69 z "},"K":{"ha":792,"x_min":100,"x_max":790,"o":"m 100 1011 l 225 1011 l 225 522 l 328 583 l 618 1011 l 769 1011 l 428 550 l 790 0 l 642 0 l 332 478 l 225 418 l 225 0 l 100 0 l 100 1011 z "},"Ḱ":{"ha":792,"x_min":100,"x_max":790,"o":"m 100 1011 l 225 1011 l 225 522 l 328 583 l 618 1011 l 769 1011 l 428 550 l 790 0 l 642 0 l 332 478 l 225 418 l 225 0 l 100 0 l 100 1011 m 367 1072 l 481 1247 l 593 1247 l 449 1072 l 367 1072 z "},"Ǩ":{"ha":792,"x_min":100,"x_max":790,"o":"m 100 1011 l 225 1011 l 225 522 l 328 583 l 618 1011 l 769 1011 l 428 550 l 790 0 l 642 0 l 332 478 l 225 418 l 225 0 l 100 0 l 100 1011 m 349 1072 l 200 1251 l 300 1251 l 408 1114 l 521 1251 l 621 1251 l 468 1072 l 349 1072 z "},"Ķ":{"ha":792,"x_min":100,"x_max":790,"o":"m 100 1011 l 225 1011 l 225 522 l 328 583 l 618 1011 l 769 1011 l 428 550 l 790 0 l 642 0 l 332 478 l 225 418 l 225 0 l 100 0 l 100 1011 m 386 -57 l 467 -57 l 429 -304 l 361 -304 l 386 -57 z "},"Ḳ":{"ha":792,"x_min":100,"x_max":790,"o":"m 100 1011 l 225 1011 l 225 522 l 328 583 l 618 1011 l 769 1011 l 428 550 l 790 0 l 642 0 l 332 478 l 225 418 l 225 0 l 100 0 l 100 1011 m 428 -199 q 379 -180 399 -199 q 360 -133 360 -161 q 379 -86 360 -106 q 428 -67 399 -67 q 476 -86 457 -67 q 496 -133 496 -106 q 476 -180 496 -161 q 428 -199 457 -199 z "},"L":{"ha":686,"x_min":100,"x_max":658,"o":"m 100 1011 l 225 1011 l 225 106 l 658 106 l 651 0 l 100 0 l 100 1011 z "},"Ĺ":{"ha":686,"x_min":100,"x_max":658,"o":"m 100 1011 l 225 1011 l 225 106 l 658 106 l 651 0 l 100 0 l 100 1011 m 119 1072 l 233 1247 l 346 1247 l 201 1072 l 119 1072 z "},"Ƚ":{"ha":699,"x_min":15,"x_max":658,"o":"m 15 454 l 22 558 l 464 642 l 457 538 l 15 454 m 100 1011 l 225 1011 l 225 106 l 658 106 l 651 0 l 100 0 l 100 1011 z "},"Ľ":{"ha":699,"x_min":100,"x_max":703,"o":"m 100 1011 l 225 1011 l 225 106 l 658 106 l 651 0 l 100 0 l 100 1011 m 604 651 l 514 664 l 576 1013 l 704 1013 l 604 651 z "},"Ḽ":{"ha":686,"x_min":100,"x_max":658,"o":"m 100 1011 l 225 1011 l 225 106 l 658 106 l 651 0 l 100 0 l 100 1011 m 169 -257 l 318 -58 l 440 -58 l 593 -257 l 493 -257 l 381 -100 l 268 -257 l 169 -257 z "},"Ļ":{"ha":686,"x_min":100,"x_max":658,"o":"m 100 1011 l 225 1011 l 225 106 l 658 106 l 651 0 l 100 0 l 100 1011 m 339 -57 l 419 -57 l 382 -304 l 314 -304 l 339 -57 z "},"Ŀ":{"ha":688,"x_min":100,"x_max":658,"o":"m 100 1011 l 225 1011 l 225 106 l 658 106 l 651 0 l 100 0 l 100 1011 m 467 444 q 404 469 431 444 q 378 533 378 494 q 404 598 378 572 q 467 624 431 624 q 531 598 504 624 q 557 533 557 572 q 531 469 557 494 q 467 444 504 444 z "},"Ḷ":{"ha":686,"x_min":100,"x_max":658,"o":"m 100 1011 l 225 1011 l 225 106 l 658 106 l 651 0 l 100 0 l 100 1011 m 379 -199 q 331 -180 350 -199 q 311 -133 311 -161 q 331 -86 311 -106 q 379 -67 350 -67 q 428 -86 408 -67 q 447 -133 447 -106 q 428 -180 447 -161 q 379 -199 408 -199 z "},"Ł":{"ha":697,"x_min":0,"x_max":671,"o":"m 0 401 l 0 488 l 404 683 l 404 594 l 0 401 m 111 1011 l 236 1011 l 236 106 l 671 106 l 664 0 l 111 0 l 111 1011 z "},"M":{"ha":1163,"x_min":100,"x_max":1061,"o":"m 143 1011 l 304 1011 l 461 550 l 579 172 l 582 172 l 701 550 l 858 1011 l 1018 1011 l 1061 0 l 939 0 l 924 421 l 910 833 l 907 833 l 631 0 l 524 0 l 254 833 l 251 833 l 236 421 l 219 0 l 100 0 l 143 1011 z "},"Ḿ":{"ha":1163,"x_min":100,"x_max":1061,"o":"m 143 1011 l 304 1011 l 461 550 l 579 172 l 582 172 l 701 550 l 858 1011 l 1018 1011 l 1061 0 l 939 0 l 924 421 l 910 833 l 907 833 l 631 0 l 524 0 l 254 833 l 251 833 l 236 421 l 219 0 l 100 0 l 143 1011 m 539 1072 l 653 1247 l 765 1247 l 621 1072 l 539 1072 z "},"Ṁ":{"ha":1163,"x_min":100,"x_max":1061,"o":"m 143 1011 l 304 1011 l 461 550 l 579 172 l 582 172 l 701 550 l 858 1011 l 1018 1011 l 1061 0 l 939 0 l 924 421 l 910 833 l 907 833 l 631 0 l 524 0 l 254 833 l 251 833 l 236 421 l 219 0 l 100 0 l 143 1011 m 582 1088 q 533 1107 553 1088 q 514 1154 514 1126 q 533 1201 514 1182 q 582 1219 553 1219 q 631 1201 611 1219 q 650 1154 650 1182 q 631 1107 650 1126 q 582 1088 611 1088 z "},"Ṃ":{"ha":1163,"x_min":100,"x_max":1061,"o":"m 143 1011 l 304 1011 l 461 550 l 579 172 l 582 172 l 701 550 l 858 1011 l 1018 1011 l 1061 0 l 939 0 l 924 421 l 910 833 l 907 833 l 631 0 l 524 0 l 254 833 l 251 833 l 236 421 l 219 0 l 100 0 l 143 1011 m 581 -199 q 532 -180 551 -199 q 513 -133 513 -161 q 532 -86 513 -106 q 581 -67 551 -67 q 629 -86 610 -67 q 649 -133 649 -106 q 629 -180 649 -161 q 581 -199 610 -199 z "},"N":{"ha":924,"x_min":100,"x_max":822,"o":"m 100 1011 l 242 1011 q 479 600 365 799 q 707 189 593 401 l 710 189 l 704 540 l 704 1011 l 822 1011 l 822 0 l 690 0 q 547 248 613 133 q 425 463 482 363 q 316 653 368 563 q 215 832 264 744 l 213 832 l 218 479 l 218 0 l 100 0 l 100 1011 z "},"Ń":{"ha":924,"x_min":100,"x_max":822,"o":"m 100 1011 l 242 1011 q 479 600 365 799 q 707 189 593 401 l 710 189 l 704 540 l 704 1011 l 822 1011 l 822 0 l 690 0 q 547 248 613 133 q 425 463 482 363 q 316 653 368 563 q 215 832 264 744 l 213 832 l 218 479 l 218 0 l 100 0 l 100 1011 m 426 1072 l 540 1247 l 653 1247 l 508 1072 l 426 1072 z "},"Ň":{"ha":924,"x_min":100,"x_max":822,"o":"m 100 1011 l 242 1011 q 479 600 365 799 q 707 189 593 401 l 710 189 l 704 540 l 704 1011 l 822 1011 l 822 0 l 690 0 q 547 248 613 133 q 425 463 482 363 q 316 653 368 563 q 215 832 264 744 l 213 832 l 218 479 l 218 0 l 100 0 l 100 1011 m 408 1072 l 260 1251 l 360 1251 l 468 1114 l 581 1251 l 681 1251 l 528 1072 l 408 1072 z "},"Ṋ":{"ha":924,"x_min":100,"x_max":822,"o":"m 100 1011 l 242 1011 q 479 600 365 799 q 707 189 593 401 l 710 189 l 704 540 l 704 1011 l 822 1011 l 822 0 l 690 0 q 547 248 613 133 q 425 463 482 363 q 316 653 368 563 q 215 832 264 744 l 213 832 l 218 479 l 218 0 l 100 0 l 100 1011 m 246 -257 l 394 -58 l 517 -58 l 669 -257 l 569 -257 l 457 -100 l 344 -257 l 246 -257 z "},"Ņ":{"ha":924,"x_min":100,"x_max":822,"o":"m 100 1011 l 242 1011 q 479 600 365 799 q 707 189 593 401 l 710 189 l 704 540 l 704 1011 l 822 1011 l 822 0 l 690 0 q 547 248 613 133 q 425 463 482 363 q 316 653 368 563 q 215 832 264 744 l 213 832 l 218 479 l 218 0 l 100 0 l 100 1011 m 415 -57 l 496 -57 l 458 -304 l 390 -304 l 415 -57 z "},"Ṅ":{"ha":924,"x_min":100,"x_max":822,"o":"m 100 1011 l 242 1011 q 479 600 365 799 q 707 189 593 401 l 710 189 l 704 540 l 704 1011 l 822 1011 l 822 0 l 690 0 q 547 248 613 133 q 425 463 482 363 q 316 653 368 563 q 215 832 264 744 l 213 832 l 218 479 l 218 0 l 100 0 l 100 1011 m 471 1088 q 422 1107 442 1088 q 403 1154 403 1126 q 422 1201 403 1182 q 471 1219 442 1219 q 519 1201 500 1219 q 539 1154 539 1182 q 519 1107 539 1126 q 471 1088 500 1088 z "},"Ṇ":{"ha":924,"x_min":100,"x_max":822,"o":"m 100 1011 l 242 1011 q 479 600 365 799 q 707 189 593 401 l 710 189 l 704 540 l 704 1011 l 822 1011 l 822 0 l 690 0 q 547 248 613 133 q 425 463 482 363 q 316 653 368 563 q 215 832 264 744 l 213 832 l 218 479 l 218 0 l 100 0 l 100 1011 m 456 -199 q 407 -180 426 -199 q 388 -133 388 -161 q 407 -86 388 -106 q 456 -67 426 -67 q 504 -86 485 -67 q 524 -133 524 -106 q 504 -180 524 -161 q 456 -199 485 -199 z "},"Ǹ":{"ha":924,"x_min":100,"x_max":822,"o":"m 100 1011 l 242 1011 q 479 600 365 799 q 707 189 593 401 l 710 189 l 704 540 l 704 1011 l 822 1011 l 822 0 l 690 0 q 547 248 613 133 q 425 463 482 363 q 316 653 368 563 q 215 832 264 744 l 213 832 l 218 479 l 218 0 l 100 0 l 100 1011 m 431 1072 l 283 1247 l 396 1247 l 513 1072 l 431 1072 z "},"Ŋ":{"ha":924,"x_min":100,"x_max":822,"o":"m 497 -319 l 489 -214 q 606 -186 563 -207 q 670 -121 650 -165 q 690 0 690 -76 q 547 248 613 133 q 424 463 482 363 q 315 653 367 563 q 215 832 264 744 l 213 832 l 218 479 l 218 0 l 100 0 l 100 1011 l 242 1011 q 479 601 365 800 q 707 189 593 401 l 710 189 l 704 540 l 704 1011 l 822 1011 l 822 8 q 786 -181 822 -111 q 678 -283 750 -251 q 497 -319 606 -314 z "},"Ñ":{"ha":924,"x_min":100,"x_max":822,"o":"m 100 1011 l 242 1011 q 479 600 365 799 q 707 189 593 401 l 710 189 l 704 540 l 704 1011 l 822 1011 l 822 0 l 690 0 q 547 248 613 133 q 425 463 482 363 q 316 653 368 563 q 215 832 264 744 l 213 832 l 218 479 l 218 0 l 100 0 l 100 1011 m 632 1225 l 690 1211 q 639 1118 672 1150 q 564 1086 606 1086 q 509 1099 535 1086 q 460 1131 483 1113 q 415 1162 436 1149 q 376 1175 394 1175 q 340 1157 357 1175 q 308 1099 324 1139 l 251 1113 q 302 1204 269 1172 q 376 1236 335 1236 q 431 1223 406 1236 q 481 1192 457 1210 q 524 1161 504 1175 q 564 1147 544 1147 q 600 1166 583 1147 q 632 1225 617 1185 z "},"O":{"ha":976,"x_min":54,"x_max":922,"o":"m 489 -17 q 307 22 388 -17 q 170 130 226 60 q 84 296 114 200 q 54 506 54 392 q 84 715 54 619 q 170 881 114 811 q 307 990 226 951 q 489 1028 388 1028 q 669 990 589 1028 q 806 881 750 951 q 892 715 863 811 q 922 506 922 619 q 892 296 922 392 q 806 130 863 200 q 669 22 750 60 q 489 -17 589 -17 m 489 89 q 622 122 565 89 q 717 211 679 154 q 773 344 754 268 q 792 506 792 419 q 773 667 792 592 q 717 800 754 743 q 622 890 679 857 q 489 922 565 922 q 355 890 413 922 q 260 800 297 857 q 204 667 222 743 q 186 506 186 592 q 204 344 186 419 q 260 211 222 268 q 355 122 297 154 q 489 89 413 89 z "},"Ó":{"ha":976,"x_min":54,"x_max":922,"o":"m 489 -17 q 307 22 388 -17 q 170 130 226 60 q 84 296 114 200 q 54 506 54 392 q 84 715 54 619 q 170 881 114 811 q 307 990 226 951 q 489 1028 388 1028 q 669 990 589 1028 q 806 881 750 951 q 892 715 863 811 q 922 506 922 619 q 892 296 922 392 q 806 130 863 200 q 669 22 750 60 q 489 -17 589 -17 m 489 89 q 622 122 565 89 q 717 211 679 154 q 773 344 754 268 q 792 506 792 419 q 773 667 792 592 q 717 800 754 743 q 622 890 679 857 q 489 922 565 922 q 355 890 413 922 q 260 800 297 857 q 204 667 222 743 q 186 506 186 592 q 204 344 186 419 q 260 211 222 268 q 355 122 297 154 q 489 89 413 89 m 446 1072 l 560 1247 l 672 1247 l 528 1072 l 446 1072 z "},"Ŏ":{"ha":976,"x_min":54,"x_max":922,"o":"m 489 -17 q 307 22 388 -17 q 170 130 226 60 q 84 296 114 200 q 54 506 54 392 q 84 715 54 619 q 170 881 114 811 q 307 990 226 951 q 489 1028 388 1028 q 669 990 589 1028 q 806 881 750 951 q 892 715 863 811 q 922 506 922 619 q 892 296 922 392 q 806 130 863 200 q 669 22 750 60 q 489 -17 589 -17 m 489 89 q 622 122 565 89 q 717 211 679 154 q 773 344 754 268 q 792 506 792 419 q 773 667 792 592 q 717 800 754 743 q 622 890 679 857 q 489 922 565 922 q 355 890 413 922 q 260 800 297 857 q 204 667 222 743 q 186 506 186 592 q 204 344 186 419 q 260 211 222 268 q 355 122 297 154 q 489 89 413 89 m 489 1068 q 392 1090 436 1068 q 324 1152 349 1111 q 303 1250 300 1193 l 361 1249 q 395 1163 358 1196 q 489 1129 432 1129 q 583 1163 546 1129 q 617 1249 619 1196 l 675 1250 q 653 1152 678 1193 q 585 1090 628 1111 q 489 1068 542 1068 z "},"Ǒ":{"ha":976,"x_min":54,"x_max":922,"o":"m 489 -17 q 307 22 388 -17 q 170 130 226 60 q 84 296 114 200 q 54 506 54 392 q 84 715 54 619 q 170 881 114 811 q 307 990 226 951 q 489 1028 388 1028 q 669 990 589 1028 q 806 881 750 951 q 892 715 863 811 q 922 506 922 619 q 892 296 922 392 q 806 130 863 200 q 669 22 750 60 q 489 -17 589 -17 m 489 89 q 622 122 565 89 q 717 211 679 154 q 773 344 754 268 q 792 506 792 419 q 773 667 792 592 q 717 800 754 743 q 622 890 679 857 q 489 922 565 922 q 355 890 413 922 q 260 800 297 857 q 204 667 222 743 q 186 506 186 592 q 204 344 186 419 q 260 211 222 268 q 355 122 297 154 q 489 89 413 89 m 428 1072 l 279 1251 l 379 1251 l 488 1114 l 600 1251 l 700 1251 l 547 1072 l 428 1072 z "},"Ô":{"ha":976,"x_min":54,"x_max":922,"o":"m 489 -17 q 307 22 388 -17 q 170 130 226 60 q 84 296 114 200 q 54 506 54 392 q 84 715 54 619 q 170 881 114 811 q 307 990 226 951 q 489 1028 388 1028 q 669 990 589 1028 q 806 881 750 951 q 892 715 863 811 q 922 506 922 619 q 892 296 922 392 q 806 130 863 200 q 669 22 750 60 q 489 -17 589 -17 m 489 89 q 622 122 565 89 q 717 211 679 154 q 773 344 754 268 q 792 506 792 419 q 773 667 792 592 q 717 800 754 743 q 622 890 679 857 q 489 922 565 922 q 355 890 413 922 q 260 800 297 857 q 204 667 222 743 q 186 506 186 592 q 204 344 186 419 q 260 211 222 268 q 355 122 297 154 q 489 89 413 89 m 278 1072 l 426 1247 l 549 1247 l 701 1072 l 601 1072 l 489 1206 l 376 1072 l 278 1072 z "},"Ộ":{"ha":976,"x_min":54,"x_max":922,"o":"m 489 -17 q 307 22 388 -17 q 170 130 226 60 q 84 296 114 200 q 54 506 54 392 q 84 715 54 619 q 170 881 114 811 q 307 990 226 951 q 489 1028 388 1028 q 669 990 589 1028 q 806 881 750 951 q 892 715 863 811 q 922 506 922 619 q 892 296 922 392 q 806 130 863 200 q 669 22 750 60 q 489 -17 589 -17 m 489 89 q 622 122 565 89 q 717 211 679 154 q 773 344 754 268 q 792 506 792 419 q 773 667 792 592 q 717 800 754 743 q 622 890 679 857 q 489 922 565 922 q 355 890 413 922 q 260 800 297 857 q 204 667 222 743 q 186 506 186 592 q 204 344 186 419 q 260 211 222 268 q 355 122 297 154 q 489 89 413 89 m 489 -199 q 440 -180 460 -199 q 421 -133 421 -161 q 440 -86 421 -106 q 489 -67 460 -67 q 538 -86 518 -67 q 557 -133 557 -106 q 538 -180 557 -161 q 489 -199 518 -199 m 278 1072 l 426 1247 l 549 1247 l 701 1072 l 601 1072 l 489 1206 l 376 1072 l 278 1072 z "},"Ö":{"ha":976,"x_min":54,"x_max":922,"o":"m 489 -17 q 307 22 388 -17 q 170 130 226 60 q 84 296 114 200 q 54 506 54 392 q 84 715 54 619 q 170 881 114 811 q 307 990 226 951 q 489 1028 388 1028 q 669 990 589 1028 q 806 881 750 951 q 892 715 863 811 q 922 506 922 619 q 892 296 922 392 q 806 130 863 200 q 669 22 750 60 q 489 -17 589 -17 m 489 89 q 622 122 565 89 q 717 211 679 154 q 773 344 754 268 q 792 506 792 419 q 773 667 792 592 q 717 800 754 743 q 622 890 679 857 q 489 922 565 922 q 355 890 413 922 q 260 800 297 857 q 204 667 222 743 q 186 506 186 592 q 204 344 186 419 q 260 211 222 268 q 355 122 297 154 q 489 89 413 89 m 363 1088 q 314 1107 333 1088 q 294 1154 294 1126 q 314 1201 294 1182 q 363 1219 333 1219 q 411 1199 392 1219 q 431 1154 431 1179 q 411 1107 431 1126 q 363 1088 392 1088 m 614 1088 q 565 1107 585 1088 q 546 1154 546 1126 q 565 1201 546 1182 q 614 1219 585 1219 q 663 1201 643 1219 q 682 1154 682 1182 q 663 1107 682 1126 q 614 1088 643 1088 z "},"Ȯ":{"ha":976,"x_min":54,"x_max":922,"o":"m 489 -17 q 307 22 388 -17 q 170 130 226 60 q 84 296 114 200 q 54 506 54 392 q 84 715 54 619 q 170 881 114 811 q 307 990 226 951 q 489 1028 388 1028 q 669 990 589 1028 q 806 881 750 951 q 892 715 863 811 q 922 506 922 619 q 892 296 922 392 q 806 130 863 200 q 669 22 750 60 q 489 -17 589 -17 m 489 89 q 622 122 565 89 q 717 211 679 154 q 773 344 754 268 q 792 506 792 419 q 773 667 792 592 q 717 800 754 743 q 622 890 679 857 q 489 922 565 922 q 355 890 413 922 q 260 800 297 857 q 204 667 222 743 q 186 506 186 592 q 204 344 186 419 q 260 211 222 268 q 355 122 297 154 q 489 89 413 89 m 489 1088 q 440 1107 460 1088 q 421 1154 421 1126 q 440 1201 421 1182 q 489 1219 460 1219 q 538 1201 518 1219 q 557 1154 557 1182 q 538 1107 557 1126 q 489 1088 518 1088 z "},"Ọ":{"ha":976,"x_min":54,"x_max":922,"o":"m 489 -17 q 307 22 388 -17 q 170 130 226 60 q 84 296 114 200 q 54 506 54 392 q 84 715 54 619 q 170 881 114 811 q 307 990 226 951 q 489 1028 388 1028 q 669 990 589 1028 q 806 881 750 951 q 892 715 863 811 q 922 506 922 619 q 892 296 922 392 q 806 130 863 200 q 669 22 750 60 q 489 -17 589 -17 m 489 89 q 622 122 565 89 q 717 211 679 154 q 773 344 754 268 q 792 506 792 419 q 773 667 792 592 q 717 800 754 743 q 622 890 679 857 q 489 922 565 922 q 355 890 413 922 q 260 800 297 857 q 204 667 222 743 q 186 506 186 592 q 204 344 186 419 q 260 211 222 268 q 355 122 297 154 q 489 89 413 89 m 489 -199 q 440 -180 460 -199 q 421 -133 421 -161 q 440 -86 421 -106 q 489 -67 460 -67 q 538 -86 518 -67 q 557 -133 557 -106 q 538 -180 557 -161 q 489 -199 518 -199 z "},"Ò":{"ha":976,"x_min":54,"x_max":922,"o":"m 489 -17 q 307 22 388 -17 q 170 130 226 60 q 84 296 114 200 q 54 506 54 392 q 84 715 54 619 q 170 881 114 811 q 307 990 226 951 q 489 1028 388 1028 q 669 990 589 1028 q 806 881 750 951 q 892 715 863 811 q 922 506 922 619 q 892 296 922 392 q 806 130 863 200 q 669 22 750 60 q 489 -17 589 -17 m 489 89 q 622 122 565 89 q 717 211 679 154 q 773 344 754 268 q 792 506 792 419 q 773 667 792 592 q 717 800 754 743 q 622 890 679 857 q 489 922 565 922 q 355 890 413 922 q 260 800 297 857 q 204 667 222 743 q 186 506 186 592 q 204 344 186 419 q 260 211 222 268 q 355 122 297 154 q 489 89 413 89 m 449 1072 l 301 1247 l 414 1247 l 531 1072 l 449 1072 z "},"Ő":{"ha":976,"x_min":54,"x_max":922,"o":"m 489 -17 q 307 22 388 -17 q 170 130 226 60 q 84 296 114 200 q 54 506 54 392 q 84 715 54 619 q 170 881 114 811 q 307 990 226 951 q 489 1028 388 1028 q 669 990 589 1028 q 806 881 750 951 q 892 715 863 811 q 922 506 922 619 q 892 296 922 392 q 806 130 863 200 q 669 22 750 60 q 489 -17 589 -17 m 489 89 q 622 122 565 89 q 717 211 679 154 q 773 344 754 268 q 792 506 792 419 q 773 667 792 592 q 717 800 754 743 q 622 890 679 857 q 489 922 565 922 q 355 890 413 922 q 260 800 297 857 q 204 667 222 743 q 186 506 186 592 q 204 344 186 419 q 260 211 222 268 q 355 122 297 154 q 489 89 413 89 m 369 1072 l 454 1247 l 540 1247 l 429 1072 l 369 1072 m 543 1072 l 628 1247 l 713 1247 l 601 1072 l 543 1072 z "},"Ō":{"ha":976,"x_min":54,"x_max":922,"o":"m 489 -17 q 307 22 388 -17 q 170 130 226 60 q 84 296 114 200 q 54 506 54 392 q 84 715 54 619 q 170 881 114 811 q 307 990 226 951 q 489 1028 388 1028 q 669 990 589 1028 q 806 881 750 951 q 892 715 863 811 q 922 506 922 619 q 892 296 922 392 q 806 130 863 200 q 669 22 750 60 q 489 -17 589 -17 m 489 89 q 622 122 565 89 q 717 211 679 154 q 773 344 754 268 q 792 506 792 419 q 773 667 792 592 q 717 800 754 743 q 622 890 679 857 q 489 922 565 922 q 355 890 413 922 q 260 800 297 857 q 204 667 222 743 q 186 506 186 592 q 204 344 186 419 q 260 211 222 268 q 355 122 297 154 q 489 89 413 89 m 303 1106 l 303 1175 l 675 1175 l 675 1106 l 303 1106 z "},"Ø":{"ha":976,"x_min":54,"x_max":922,"o":"m 489 -15 q 307 23 388 -15 q 170 131 226 61 q 84 297 114 201 q 54 506 54 393 q 84 715 54 619 q 170 880 114 810 q 307 988 226 950 q 489 1026 388 1026 q 669 988 589 1026 q 806 880 750 950 q 892 715 863 810 q 922 506 922 619 q 892 297 922 393 q 806 131 863 201 q 669 23 750 61 q 489 -15 589 -15 m 489 90 q 622 122 565 90 q 717 212 679 154 q 773 344 754 269 q 792 506 792 419 q 773 667 792 592 q 717 799 754 742 q 622 889 679 857 q 489 921 565 921 q 355 889 413 921 q 260 799 297 857 q 204 667 222 742 q 186 506 186 592 q 204 344 186 419 q 260 212 222 269 q 355 122 297 154 q 489 90 413 90 m 228 -65 l 154 -32 l 749 1076 l 822 1043 l 228 -65 z "},"Õ":{"ha":976,"x_min":54,"x_max":922,"o":"m 489 -17 q 307 22 388 -17 q 170 130 226 60 q 84 296 114 200 q 54 506 54 392 q 84 715 54 619 q 170 881 114 811 q 307 990 226 951 q 489 1028 388 1028 q 669 990 589 1028 q 806 881 750 951 q 892 715 863 811 q 922 506 922 619 q 892 296 922 392 q 806 130 863 200 q 669 22 750 60 q 489 -17 589 -17 m 489 89 q 622 122 565 89 q 717 211 679 154 q 773 344 754 268 q 792 506 792 419 q 773 667 792 592 q 717 800 754 743 q 622 890 679 857 q 489 922 565 922 q 355 890 413 922 q 260 800 297 857 q 204 667 222 743 q 186 506 186 592 q 204 344 186 419 q 260 211 222 268 q 355 122 297 154 q 489 89 413 89 m 650 1225 l 708 1211 q 657 1118 690 1150 q 582 1086 624 1086 q 527 1099 553 1086 q 478 1131 501 1113 q 433 1162 454 1149 q 394 1175 413 1175 q 358 1157 375 1175 q 326 1099 342 1139 l 269 1113 q 320 1204 288 1172 q 394 1236 353 1236 q 449 1223 424 1236 q 499 1192 475 1210 q 542 1161 522 1175 q 582 1147 563 1147 q 618 1166 601 1147 q 650 1225 635 1185 z "},"Œ":{"ha":1346,"x_min":54,"x_max":1289,"o":"m 489 -17 q 307 22 388 -17 q 170 130 226 60 q 84 296 114 200 q 54 506 54 392 q 84 715 54 619 q 170 881 114 811 q 307 990 226 951 q 489 1028 388 1028 q 642 999 574 1028 q 761 920 711 971 q 843 803 811 869 l 729 725 q 640 871 700 819 q 489 922 581 922 q 355 890 413 922 q 260 801 297 858 q 204 667 222 743 q 186 506 186 592 q 204 344 186 419 q 260 210 222 268 q 355 121 297 153 q 489 89 413 89 q 642 141 582 89 q 731 286 701 193 l 844 211 q 762 92 813 143 q 642 13 711 42 q 489 -17 574 -17 m 725 0 l 725 1011 l 1269 1011 l 1263 907 l 850 907 l 850 576 l 1232 576 l 1226 471 l 850 471 l 850 104 l 1289 104 l 1282 0 l 725 0 z "},"P":{"ha":781,"x_min":100,"x_max":724,"o":"m 100 1004 q 217 1013 157 1011 q 335 1015 276 1015 q 494 999 422 1015 q 617 947 565 982 q 696 856 668 911 q 724 722 724 800 q 680 556 724 626 q 554 448 636 485 q 357 411 472 411 q 288 413 324 411 q 222 419 253 415 l 222 0 l 100 0 l 100 1004 m 335 513 q 531 568 463 513 q 599 721 599 624 q 535 866 599 817 q 346 915 472 915 q 288 914 319 915 q 222 908 256 913 l 222 521 q 271 516 239 519 q 335 513 303 513 z "},"Ṕ":{"ha":781,"x_min":100,"x_max":724,"o":"m 100 1004 q 217 1013 157 1011 q 335 1015 276 1015 q 494 999 422 1015 q 617 947 565 982 q 696 856 668 911 q 724 722 724 800 q 680 556 724 626 q 554 448 636 485 q 357 411 472 411 q 288 413 324 411 q 222 419 253 415 l 222 0 l 100 0 l 100 1004 m 335 513 q 531 568 463 513 q 599 721 599 624 q 535 866 599 817 q 346 915 472 915 q 288 914 319 915 q 222 908 256 913 l 222 521 q 271 516 239 519 q 335 513 303 513 m 332 1072 l 446 1247 l 558 1247 l 414 1072 l 332 1072 z "},"Ṗ":{"ha":781,"x_min":100,"x_max":724,"o":"m 100 1004 q 217 1013 157 1011 q 335 1015 276 1015 q 494 999 422 1015 q 617 947 565 982 q 696 856 668 911 q 724 722 724 800 q 680 556 724 626 q 554 448 636 485 q 357 411 472 411 q 288 413 324 411 q 222 419 253 415 l 222 0 l 100 0 l 100 1004 m 335 513 q 531 568 463 513 q 599 721 599 624 q 535 866 599 817 q 346 915 472 915 q 288 914 319 915 q 222 908 256 913 l 222 521 q 271 516 239 519 q 335 513 303 513 m 375 1088 q 326 1107 346 1088 q 307 1154 307 1126 q 326 1201 307 1182 q 375 1219 346 1219 q 424 1201 404 1219 q 443 1154 443 1182 q 424 1107 443 1126 q 375 1088 404 1088 z "},"Þ":{"ha":775,"x_min":100,"x_max":718,"o":"m 100 1011 l 222 1011 l 222 806 q 290 809 253 807 q 372 811 326 811 q 566 776 489 811 q 681 678 643 742 q 718 532 718 615 q 676 365 718 433 q 552 260 635 296 q 347 224 469 224 q 278 226 308 224 q 222 229 249 228 l 222 0 l 100 0 l 100 1011 m 335 324 q 531 377 469 324 q 593 525 593 431 q 528 669 593 626 q 350 711 463 711 q 280 709 313 711 q 222 704 247 707 l 222 331 q 277 326 250 328 q 335 324 304 324 z "},"Q":{"ha":976,"x_min":54,"x_max":972,"o":"m 489 0 q 256 64 353 0 q 106 242 158 128 q 54 508 54 357 q 84 717 54 622 q 170 882 114 813 q 307 989 226 951 q 489 1026 388 1026 q 669 988 589 1026 q 806 882 750 950 q 892 722 863 814 q 922 521 922 629 q 892 330 922 411 q 815 192 863 249 q 714 104 767 136 l 714 103 l 972 103 l 965 0 l 489 0 m 489 97 q 622 129 565 97 q 717 217 679 161 q 773 347 754 272 q 792 508 792 422 q 773 669 792 594 q 717 801 754 744 q 622 889 679 857 q 489 921 565 921 q 355 889 413 921 q 260 801 297 857 q 204 669 222 744 q 186 508 186 594 q 204 347 186 422 q 260 217 222 272 q 356 129 299 161 q 489 97 413 97 z "},"R":{"ha":782,"x_min":100,"x_max":753,"o":"m 100 1004 q 213 1013 154 1011 q 333 1015 271 1015 q 555 983 469 1015 q 680 888 640 950 q 719 735 719 825 q 689 606 719 660 q 611 517 658 551 q 514 471 564 483 l 514 468 l 753 0 l 618 0 l 400 436 l 222 436 l 222 0 l 100 0 l 100 1004 m 381 533 q 484 555 435 533 q 564 619 533 576 q 594 726 594 663 q 535 868 594 821 q 344 915 475 915 q 281 915 311 915 q 222 911 250 914 l 222 533 l 381 533 z "},"Ŕ":{"ha":782,"x_min":100,"x_max":753,"o":"m 100 1004 q 213 1013 154 1011 q 333 1015 271 1015 q 555 983 469 1015 q 680 888 640 950 q 719 735 719 825 q 689 606 719 660 q 611 517 658 551 q 514 471 564 483 l 514 468 l 753 0 l 618 0 l 400 436 l 222 436 l 222 0 l 100 0 l 100 1004 m 381 533 q 484 555 435 533 q 564 619 533 576 q 594 726 594 663 q 535 868 594 821 q 344 915 475 915 q 281 915 311 915 q 222 911 250 914 l 222 533 l 381 533 m 328 1072 l 442 1247 l 554 1247 l 410 1072 l 328 1072 z "},"Ř":{"ha":782,"x_min":100,"x_max":753,"o":"m 100 1004 q 213 1013 154 1011 q 333 1015 271 1015 q 555 983 469 1015 q 680 888 640 950 q 719 735 719 825 q 689 606 719 660 q 611 517 658 551 q 514 471 564 483 l 514 468 l 753 0 l 618 0 l 400 436 l 222 436 l 222 0 l 100 0 l 100 1004 m 381 533 q 484 555 435 533 q 564 619 533 576 q 594 726 594 663 q 535 868 594 821 q 344 915 475 915 q 281 915 311 915 q 222 911 250 914 l 222 533 l 381 533 m 310 1072 l 161 1251 l 261 1251 l 369 1114 l 482 1251 l 582 1251 l 429 1072 l 310 1072 z "},"Ŗ":{"ha":782,"x_min":100,"x_max":753,"o":"m 100 1004 q 213 1013 154 1011 q 333 1015 271 1015 q 555 983 469 1015 q 680 888 640 950 q 719 735 719 825 q 689 606 719 660 q 611 517 658 551 q 514 471 564 483 l 514 468 l 753 0 l 618 0 l 400 436 l 222 436 l 222 0 l 100 0 l 100 1004 m 381 533 q 484 555 435 533 q 564 619 533 576 q 594 726 594 663 q 535 868 594 821 q 344 915 475 915 q 281 915 311 915 q 222 911 250 914 l 222 533 l 381 533 m 376 -57 l 457 -57 l 419 -304 l 351 -304 l 376 -57 z "},"Ṙ":{"ha":782,"x_min":100,"x_max":753,"o":"m 100 1004 q 213 1013 154 1011 q 333 1015 271 1015 q 555 983 469 1015 q 680 888 640 950 q 719 735 719 825 q 689 606 719 660 q 611 517 658 551 q 514 471 564 483 l 514 468 l 753 0 l 618 0 l 400 436 l 222 436 l 222 0 l 100 0 l 100 1004 m 381 533 q 484 555 435 533 q 564 619 533 576 q 594 726 594 663 q 535 868 594 821 q 344 915 475 915 q 281 915 311 915 q 222 911 250 914 l 222 533 l 381 533 m 371 1088 q 322 1107 342 1088 q 303 1154 303 1126 q 322 1201 303 1182 q 371 1219 342 1219 q 419 1201 400 1219 q 439 1154 439 1182 q 419 1107 439 1126 q 371 1088 400 1088 z "},"Ṛ":{"ha":782,"x_min":100,"x_max":753,"o":"m 100 1004 q 213 1013 154 1011 q 333 1015 271 1015 q 555 983 469 1015 q 680 888 640 950 q 719 735 719 825 q 689 606 719 660 q 611 517 658 551 q 514 471 564 483 l 514 468 l 753 0 l 618 0 l 400 436 l 222 436 l 222 0 l 100 0 l 100 1004 m 381 533 q 484 555 435 533 q 564 619 533 576 q 594 726 594 663 q 535 868 594 821 q 344 915 475 915 q 281 915 311 915 q 222 911 250 914 l 222 533 l 381 533 m 417 -199 q 368 -180 388 -199 q 349 -133 349 -161 q 368 -86 349 -106 q 417 -67 388 -67 q 465 -86 446 -67 q 485 -133 485 -106 q 465 -180 485 -161 q 417 -199 446 -199 z "},"S":{"ha":728,"x_min":58,"x_max":667,"o":"m 322 -17 q 176 1 247 -17 q 58 39 104 19 l 82 139 q 192 105 128 121 q 318 89 257 89 q 433 110 383 89 q 511 172 482 132 q 540 268 540 213 q 508 360 540 324 q 424 422 475 396 q 315 474 372 449 q 226 518 269 494 q 146 574 182 542 q 88 649 110 606 q 67 753 67 693 q 112 903 67 842 q 232 996 157 964 q 397 1028 307 1028 q 524 1013 465 1028 q 622 981 583 997 l 601 881 q 514 908 568 894 q 401 922 460 922 q 251 877 307 922 q 194 758 194 832 q 226 671 194 706 q 307 610 257 636 q 413 560 357 585 q 503 515 458 539 q 586 460 549 492 q 645 383 624 428 q 667 276 667 338 q 624 123 667 189 q 504 20 582 57 q 322 -17 426 -17 z "},"Ś":{"ha":728,"x_min":58,"x_max":667,"o":"m 322 -17 q 176 1 247 -17 q 58 39 104 19 l 82 139 q 192 105 128 121 q 318 89 257 89 q 433 110 383 89 q 511 172 482 132 q 540 268 540 213 q 508 360 540 324 q 424 422 475 396 q 315 474 372 449 q 226 518 269 494 q 146 574 182 542 q 88 649 110 606 q 67 753 67 693 q 112 903 67 842 q 232 996 157 964 q 397 1028 307 1028 q 524 1013 465 1028 q 622 981 583 997 l 601 881 q 514 908 568 894 q 401 922 460 922 q 251 877 307 922 q 194 758 194 832 q 226 671 194 706 q 307 610 257 636 q 413 560 357 585 q 503 515 458 539 q 586 460 549 492 q 645 383 624 428 q 667 276 667 338 q 624 123 667 189 q 504 20 582 57 q 322 -17 426 -17 m 319 1072 l 433 1247 l 546 1247 l 401 1072 l 319 1072 z "},"Š":{"ha":728,"x_min":58,"x_max":667,"o":"m 322 -17 q 176 1 247 -17 q 58 39 104 19 l 82 139 q 192 105 128 121 q 318 89 257 89 q 433 110 383 89 q 511 172 482 132 q 540 268 540 213 q 508 360 540 324 q 424 422 475 396 q 315 474 372 449 q 226 518 269 494 q 146 574 182 542 q 88 649 110 606 q 67 753 67 693 q 112 903 67 842 q 232 996 157 964 q 397 1028 307 1028 q 524 1013 465 1028 q 622 981 583 997 l 601 881 q 514 908 568 894 q 401 922 460 922 q 251 877 307 922 q 194 758 194 832 q 226 671 194 706 q 307 610 257 636 q 413 560 357 585 q 503 515 458 539 q 586 460 549 492 q 645 383 624 428 q 667 276 667 338 q 624 123 667 189 q 504 20 582 57 q 322 -17 426 -17 m 301 1072 l 153 1251 l 253 1251 l 361 1114 l 474 1251 l 574 1251 l 421 1072 l 301 1072 z "},"Ş":{"ha":728,"x_min":58,"x_max":667,"o":"m 322 -17 q 176 1 247 -17 q 58 39 104 19 l 82 139 q 192 105 128 121 q 318 89 257 89 q 433 110 383 89 q 511 172 482 132 q 540 268 540 213 q 508 360 540 324 q 424 422 475 396 q 315 474 372 449 q 226 518 269 494 q 146 574 182 542 q 88 649 110 606 q 67 753 67 693 q 112 903 67 842 q 232 996 157 964 q 397 1028 307 1028 q 524 1013 465 1028 q 622 981 583 997 l 601 881 q 514 908 568 894 q 401 922 460 922 q 251 877 307 922 q 194 758 194 832 q 226 671 194 706 q 307 610 257 636 q 413 560 357 585 q 503 515 458 539 q 586 460 549 492 q 645 383 624 428 q 667 276 667 338 q 624 123 667 189 q 504 20 582 57 q 322 -17 426 -17 m 343 -328 q 278 -322 311 -328 q 213 -308 244 -317 l 233 -264 q 289 -274 261 -271 q 342 -278 317 -278 q 438 -254 404 -278 q 471 -193 471 -231 q 448 -146 471 -161 q 388 -131 425 -131 q 310 -146 351 -131 l 285 -119 l 342 0 l 396 0 l 347 -100 q 443 -94 400 -87 q 512 -126 486 -101 q 538 -192 538 -150 q 484 -291 538 -254 q 343 -328 431 -328 z "},"Ŝ":{"ha":728,"x_min":58,"x_max":667,"o":"m 322 -17 q 176 1 247 -17 q 58 39 104 19 l 82 139 q 192 105 128 121 q 318 89 257 89 q 433 110 383 89 q 511 172 482 132 q 540 268 540 213 q 508 360 540 324 q 424 422 475 396 q 315 474 372 449 q 226 518 269 494 q 146 574 182 542 q 88 649 110 606 q 67 753 67 693 q 112 903 67 842 q 232 996 157 964 q 397 1028 307 1028 q 524 1013 465 1028 q 622 981 583 997 l 601 881 q 514 908 568 894 q 401 922 460 922 q 251 877 307 922 q 194 758 194 832 q 226 671 194 706 q 307 610 257 636 q 413 560 357 585 q 503 515 458 539 q 586 460 549 492 q 645 383 624 428 q 667 276 667 338 q 624 123 667 189 q 504 20 582 57 q 322 -17 426 -17 m 151 1072 l 300 1247 l 422 1247 l 575 1072 l 475 1072 l 363 1206 l 250 1072 l 151 1072 z "},"Ș":{"ha":728,"x_min":58,"x_max":667,"o":"m 322 -17 q 176 1 247 -17 q 58 39 104 19 l 82 139 q 192 105 128 121 q 318 89 257 89 q 433 110 383 89 q 511 172 482 132 q 540 268 540 213 q 508 360 540 324 q 424 422 475 396 q 315 474 372 449 q 226 518 269 494 q 146 574 182 542 q 88 649 110 606 q 67 753 67 693 q 112 903 67 842 q 232 996 157 964 q 397 1028 307 1028 q 524 1013 465 1028 q 622 981 583 997 l 601 881 q 514 908 568 894 q 401 922 460 922 q 251 877 307 922 q 194 758 194 832 q 226 671 194 706 q 307 610 257 636 q 413 560 357 585 q 503 515 458 539 q 586 460 549 492 q 645 383 624 428 q 667 276 667 338 q 624 123 667 189 q 504 20 582 57 q 322 -17 426 -17 m 328 -57 l 408 -57 l 371 -304 l 303 -304 l 328 -57 z "},"Ṡ":{"ha":728,"x_min":58,"x_max":667,"o":"m 322 -17 q 176 1 247 -17 q 58 39 104 19 l 82 139 q 192 105 128 121 q 318 89 257 89 q 433 110 383 89 q 511 172 482 132 q 540 268 540 213 q 508 360 540 324 q 424 422 475 396 q 315 474 372 449 q 226 518 269 494 q 146 574 182 542 q 88 649 110 606 q 67 753 67 693 q 112 903 67 842 q 232 996 157 964 q 397 1028 307 1028 q 524 1013 465 1028 q 622 981 583 997 l 601 881 q 514 908 568 894 q 401 922 460 922 q 251 877 307 922 q 194 758 194 832 q 226 671 194 706 q 307 610 257 636 q 413 560 357 585 q 503 515 458 539 q 586 460 549 492 q 645 383 624 428 q 667 276 667 338 q 624 123 667 189 q 504 20 582 57 q 322 -17 426 -17 m 363 1088 q 314 1107 333 1088 q 294 1154 294 1126 q 314 1201 294 1182 q 363 1219 333 1219 q 411 1201 392 1219 q 431 1154 431 1182 q 411 1107 431 1126 q 363 1088 392 1088 z "},"Ṣ":{"ha":728,"x_min":58,"x_max":667,"o":"m 322 -17 q 176 1 247 -17 q 58 39 104 19 l 82 139 q 192 105 128 121 q 318 89 257 89 q 433 110 383 89 q 511 172 482 132 q 540 268 540 213 q 508 360 540 324 q 424 422 475 396 q 315 474 372 449 q 226 518 269 494 q 146 574 182 542 q 88 649 110 606 q 67 753 67 693 q 112 903 67 842 q 232 996 157 964 q 397 1028 307 1028 q 524 1013 465 1028 q 622 981 583 997 l 601 881 q 514 908 568 894 q 401 922 460 922 q 251 877 307 922 q 194 758 194 832 q 226 671 194 706 q 307 610 257 636 q 413 560 357 585 q 503 515 458 539 q 586 460 549 492 q 645 383 624 428 q 667 276 667 338 q 624 123 667 189 q 504 20 582 57 q 322 -17 426 -17 m 368 -199 q 319 -180 339 -199 q 300 -133 300 -161 q 319 -86 300 -106 q 368 -67 339 -67 q 417 -86 397 -67 q 436 -133 436 -106 q 417 -180 436 -161 q 368 -199 397 -199 z "},"ẞ":{"ha":1058,"x_min":97,"x_max":997,"o":"m 660 -17 q 522 1 592 -17 q 399 44 453 18 l 422 149 q 540 108 478 124 q 664 92 603 92 q 769 115 724 92 q 842 179 815 138 q 869 275 869 221 q 838 379 869 335 q 755 455 807 424 q 641 509 703 486 q 518 547 579 532 l 704 865 q 603 904 658 889 q 492 919 547 919 q 378 901 425 919 q 300 851 331 883 q 252 776 269 818 q 228 686 235 733 q 222 592 222 639 l 222 0 l 97 0 l 97 586 q 110 715 97 650 q 150 835 122 779 q 224 934 178 890 q 335 1003 269 978 q 489 1028 401 1028 q 663 1001 576 1028 q 828 931 750 975 l 646 618 q 776 572 713 600 q 889 504 839 544 q 968 409 939 464 q 997 282 997 354 q 956 127 997 194 q 838 22 914 60 q 660 -17 761 -17 z "},"T":{"ha":724,"x_min":10,"x_max":714,"o":"m 299 906 l 10 906 l 17 1011 l 714 1011 l 706 906 l 425 906 l 425 0 l 299 0 l 299 906 z "},"Ŧ":{"ha":724,"x_min":10,"x_max":714,"o":"m 135 407 l 143 485 l 589 485 l 581 407 l 135 407 m 299 906 l 10 906 l 17 1011 l 714 1011 l 706 906 l 425 906 l 425 0 l 299 0 l 299 906 z "},"Ť":{"ha":724,"x_min":10,"x_max":714,"o":"m 299 906 l 10 906 l 17 1011 l 714 1011 l 706 906 l 425 906 l 425 0 l 299 0 l 299 906 m 300 1072 l 151 1251 l 251 1251 l 360 1114 l 472 1251 l 572 1251 l 419 1072 l 300 1072 z "},"Ţ":{"ha":724,"x_min":10,"x_max":714,"o":"m 299 906 l 10 906 l 17 1011 l 714 1011 l 706 906 l 425 906 l 425 0 l 299 0 l 299 906 m 336 -328 q 271 -322 304 -328 q 206 -308 238 -317 l 226 -264 q 282 -274 254 -271 q 335 -278 310 -278 q 431 -254 397 -278 q 464 -193 464 -231 q 441 -146 464 -161 q 381 -131 418 -131 q 303 -146 344 -131 l 278 -119 l 335 0 l 389 0 l 340 -100 q 436 -94 393 -87 q 505 -126 479 -101 q 531 -192 531 -150 q 477 -291 531 -254 q 336 -328 424 -328 z "},"Ṱ":{"ha":724,"x_min":10,"x_max":714,"o":"m 299 906 l 10 906 l 17 1011 l 714 1011 l 706 906 l 425 906 l 425 0 l 299 0 l 299 906 m 151 -257 l 300 -58 l 422 -58 l 575 -257 l 475 -257 l 363 -100 l 250 -257 l 151 -257 z "},"Ț":{"ha":724,"x_min":10,"x_max":714,"o":"m 299 906 l 10 906 l 17 1011 l 714 1011 l 706 906 l 425 906 l 425 0 l 299 0 l 299 906 m 321 -57 l 401 -57 l 364 -304 l 296 -304 l 321 -57 z "},"Ṫ":{"ha":724,"x_min":10,"x_max":714,"o":"m 299 906 l 10 906 l 17 1011 l 714 1011 l 706 906 l 425 906 l 425 0 l 299 0 l 299 906 m 363 1088 q 314 1107 333 1088 q 294 1154 294 1126 q 314 1201 294 1182 q 363 1219 333 1219 q 411 1201 392 1219 q 431 1154 431 1182 q 411 1107 431 1126 q 363 1088 392 1088 z "},"Ṭ":{"ha":724,"x_min":10,"x_max":714,"o":"m 299 906 l 10 906 l 17 1011 l 714 1011 l 706 906 l 425 906 l 425 0 l 299 0 l 299 906 m 363 -199 q 314 -180 333 -199 q 294 -133 294 -161 q 314 -86 294 -106 q 363 -67 333 -67 q 411 -86 392 -67 q 431 -133 431 -106 q 411 -180 431 -161 q 363 -199 392 -199 z "},"U":{"ha":906,"x_min":94,"x_max":811,"o":"m 453 -17 q 263 27 344 -17 q 138 159 182 71 q 94 382 94 247 l 94 1011 l 219 1011 l 219 375 q 280 161 219 236 q 453 86 340 86 q 626 161 565 86 q 686 375 686 236 l 686 1011 l 811 1011 l 811 382 q 767 159 811 247 q 643 27 724 71 q 453 -17 563 -17 z "},"Ú":{"ha":906,"x_min":94,"x_max":811,"o":"m 453 -17 q 263 27 344 -17 q 138 159 182 71 q 94 382 94 247 l 94 1011 l 219 1011 l 219 375 q 280 161 219 236 q 453 86 340 86 q 626 161 565 86 q 686 375 686 236 l 686 1011 l 811 1011 l 811 382 q 767 159 811 247 q 643 27 724 71 q 453 -17 563 -17 m 410 1072 l 524 1247 l 636 1247 l 492 1072 l 410 1072 z "},"Ǔ":{"ha":906,"x_min":94,"x_max":811,"o":"m 453 -17 q 263 27 344 -17 q 138 159 182 71 q 94 382 94 247 l 94 1011 l 219 1011 l 219 375 q 280 161 219 236 q 453 86 340 86 q 626 161 565 86 q 686 375 686 236 l 686 1011 l 811 1011 l 811 382 q 767 159 811 247 q 643 27 724 71 q 453 -17 563 -17 m 392 1072 l 243 1251 l 343 1251 l 451 1114 l 564 1251 l 664 1251 l 511 1072 l 392 1072 z "},"Û":{"ha":906,"x_min":94,"x_max":811,"o":"m 453 -17 q 263 27 344 -17 q 138 159 182 71 q 94 382 94 247 l 94 1011 l 219 1011 l 219 375 q 280 161 219 236 q 453 86 340 86 q 626 161 565 86 q 686 375 686 236 l 686 1011 l 811 1011 l 811 382 q 767 159 811 247 q 643 27 724 71 q 453 -17 563 -17 m 242 1072 l 390 1247 l 513 1247 l 665 1072 l 565 1072 l 453 1206 l 340 1072 l 242 1072 z "},"Ṷ":{"ha":906,"x_min":94,"x_max":811,"o":"m 453 -17 q 263 27 344 -17 q 138 159 182 71 q 94 382 94 247 l 94 1011 l 219 1011 l 219 375 q 280 161 219 236 q 453 86 340 86 q 626 161 565 86 q 686 375 686 236 l 686 1011 l 811 1011 l 811 382 q 767 159 811 247 q 643 27 724 71 q 453 -17 563 -17 m 243 -257 l 392 -58 l 514 -58 l 667 -257 l 567 -257 l 454 -100 l 342 -257 l 243 -257 z "},"Ü":{"ha":906,"x_min":94,"x_max":811,"o":"m 453 -17 q 263 27 344 -17 q 138 159 182 71 q 94 382 94 247 l 94 1011 l 219 1011 l 219 375 q 280 161 219 236 q 453 86 340 86 q 626 161 565 86 q 686 375 686 236 l 686 1011 l 811 1011 l 811 382 q 767 159 811 247 q 643 27 724 71 q 453 -17 563 -17 m 328 1088 q 279 1107 299 1088 q 260 1154 260 1126 q 279 1201 260 1182 q 328 1219 299 1219 q 376 1199 357 1219 q 396 1154 396 1179 q 376 1107 396 1126 q 328 1088 357 1088 m 579 1088 q 531 1107 550 1088 q 511 1154 511 1126 q 531 1201 511 1182 q 579 1219 550 1219 q 628 1201 608 1219 q 647 1154 647 1182 q 628 1107 647 1126 q 579 1088 608 1088 z "},"Ṳ":{"ha":906,"x_min":94,"x_max":811,"o":"m 453 -17 q 263 27 344 -17 q 138 159 182 71 q 94 382 94 247 l 94 1011 l 219 1011 l 219 375 q 280 161 219 236 q 453 86 340 86 q 626 161 565 86 q 686 375 686 236 l 686 1011 l 811 1011 l 811 382 q 767 159 811 247 q 643 27 724 71 q 453 -17 563 -17 m 328 -193 q 279 -174 299 -193 q 260 -128 260 -156 q 279 -81 260 -100 q 328 -61 299 -61 q 376 -81 357 -61 q 396 -128 396 -100 q 376 -174 396 -156 q 328 -193 357 -193 m 579 -193 q 531 -174 550 -193 q 511 -128 511 -156 q 531 -81 511 -100 q 579 -61 550 -61 q 628 -81 608 -61 q 647 -128 647 -100 q 628 -174 647 -156 q 579 -193 608 -193 z "},"Ụ":{"ha":906,"x_min":94,"x_max":811,"o":"m 453 -17 q 263 27 344 -17 q 138 159 182 71 q 94 382 94 247 l 94 1011 l 219 1011 l 219 375 q 280 161 219 236 q 453 86 340 86 q 626 161 565 86 q 686 375 686 236 l 686 1011 l 811 1011 l 811 382 q 767 159 811 247 q 643 27 724 71 q 453 -17 563 -17 m 453 -199 q 404 -180 424 -199 q 385 -133 385 -161 q 404 -86 385 -106 q 453 -67 424 -67 q 501 -86 482 -67 q 521 -133 521 -106 q 501 -180 521 -161 q 453 -199 482 -199 z "},"Ù":{"ha":906,"x_min":94,"x_max":811,"o":"m 453 -17 q 263 27 344 -17 q 138 159 182 71 q 94 382 94 247 l 94 1011 l 219 1011 l 219 375 q 280 161 219 236 q 453 86 340 86 q 626 161 565 86 q 686 375 686 236 l 686 1011 l 811 1011 l 811 382 q 767 159 811 247 q 643 27 724 71 q 453 -17 563 -17 m 413 1069 l 265 1244 l 378 1244 l 494 1069 l 413 1069 z "},"Ű":{"ha":906,"x_min":94,"x_max":811,"o":"m 453 -17 q 263 27 344 -17 q 138 159 182 71 q 94 382 94 247 l 94 1011 l 219 1011 l 219 375 q 280 161 219 236 q 453 86 340 86 q 626 161 565 86 q 686 375 686 236 l 686 1011 l 811 1011 l 811 382 q 767 159 811 247 q 643 27 724 71 q 453 -17 563 -17 m 333 1072 l 418 1247 l 504 1247 l 393 1072 l 333 1072 m 507 1072 l 592 1247 l 676 1247 l 565 1072 l 507 1072 z "},"Ū":{"ha":906,"x_min":94,"x_max":811,"o":"m 453 -17 q 263 27 344 -17 q 138 159 182 71 q 94 382 94 247 l 94 1011 l 219 1011 l 219 375 q 280 161 219 236 q 453 86 340 86 q 626 161 565 86 q 686 375 686 236 l 686 1011 l 811 1011 l 811 382 q 767 159 811 247 q 643 27 724 71 q 453 -17 563 -17 m 267 1106 l 267 1175 l 639 1175 l 639 1106 l 267 1106 z "},"Ų":{"ha":906,"x_min":94,"x_max":811,"o":"m 453 -17 q 263 27 344 -17 q 138 159 182 71 q 94 382 94 247 l 94 1011 l 219 1011 l 219 375 q 280 161 219 236 q 453 86 340 86 q 626 161 565 86 q 686 375 686 236 l 686 1011 l 811 1011 l 811 382 q 767 159 811 247 q 643 27 724 71 q 453 -17 563 -17 m 490 -289 q 396 -254 426 -289 q 365 -178 365 -219 q 418 -64 365 -119 q 561 13 471 -8 l 592 6 q 473 -69 517 -21 q 429 -167 429 -117 q 451 -223 429 -201 q 515 -244 474 -244 q 556 -240 533 -244 q 603 -229 578 -236 l 603 -267 q 542 -283 571 -278 q 490 -289 514 -289 z "},"Ů":{"ha":906,"x_min":94,"x_max":811,"o":"m 453 -17 q 263 27 344 -17 q 138 159 182 71 q 94 382 94 247 l 94 1011 l 219 1011 l 219 375 q 280 161 219 236 q 453 86 340 86 q 626 161 565 86 q 686 375 686 236 l 686 1011 l 811 1011 l 811 382 q 767 159 811 247 q 643 27 724 71 q 453 -17 563 -17 m 453 993 q 384 1012 415 993 q 334 1063 353 1031 q 315 1132 315 1094 q 334 1201 315 1171 q 384 1251 353 1232 q 453 1269 415 1269 q 523 1251 492 1269 q 573 1201 554 1232 q 592 1132 592 1171 q 573 1063 592 1094 q 523 1012 554 1031 q 453 993 492 993 m 453 1039 q 518 1066 492 1039 q 544 1132 544 1093 q 518 1196 544 1169 q 453 1222 492 1222 q 388 1196 415 1222 q 361 1132 361 1169 q 388 1066 361 1093 q 453 1039 415 1039 z "},"Ũ":{"ha":906,"x_min":94,"x_max":811,"o":"m 453 -17 q 263 27 344 -17 q 138 159 182 71 q 94 382 94 247 l 94 1011 l 219 1011 l 219 375 q 280 161 219 236 q 453 86 340 86 q 626 161 565 86 q 686 375 686 236 l 686 1011 l 811 1011 l 811 382 q 767 159 811 247 q 643 27 724 71 q 453 -17 563 -17 m 614 1225 l 672 1211 q 621 1118 654 1150 q 546 1086 588 1086 q 491 1099 517 1086 q 442 1131 465 1113 q 397 1162 418 1149 q 358 1175 376 1175 q 322 1157 339 1175 q 290 1099 306 1139 l 233 1113 q 284 1204 251 1172 q 358 1236 317 1236 q 413 1223 388 1236 q 463 1192 439 1210 q 506 1161 486 1175 q 546 1147 526 1147 q 582 1166 565 1147 q 614 1225 599 1185 z "},"V":{"ha":829,"x_min":8,"x_max":821,"o":"m 8 1011 l 144 1011 l 326 406 l 414 121 l 415 121 l 503 406 l 685 1011 l 821 1011 l 490 0 l 339 0 l 8 1011 z "},"Ṿ":{"ha":829,"x_min":8,"x_max":821,"o":"m 8 1011 l 144 1011 l 326 406 l 414 121 l 415 121 l 503 406 l 685 1011 l 821 1011 l 490 0 l 339 0 l 8 1011 m 415 -199 q 367 -180 386 -199 q 347 -133 347 -161 q 367 -86 347 -106 q 415 -67 386 -67 q 464 -86 444 -67 q 483 -133 483 -106 q 464 -180 483 -161 q 415 -199 444 -199 z "},"W":{"ha":1225,"x_min":18,"x_max":1207,"o":"m 18 1011 l 153 1011 l 267 514 l 344 146 l 346 146 l 431 514 l 550 1011 l 676 1011 l 794 514 l 879 146 l 882 146 l 960 514 l 1074 1011 l 1207 1011 l 960 0 l 817 0 l 614 835 l 613 835 l 410 0 l 265 0 l 18 1011 z "},"Ẃ":{"ha":1225,"x_min":18,"x_max":1207,"o":"m 18 1011 l 153 1011 l 267 514 l 344 146 l 346 146 l 431 514 l 550 1011 l 676 1011 l 794 514 l 879 146 l 882 146 l 960 514 l 1074 1011 l 1207 1011 l 960 0 l 817 0 l 614 835 l 613 835 l 410 0 l 265 0 l 18 1011 m 569 1072 l 683 1247 l 796 1247 l 651 1072 l 569 1072 z "},"Ŵ":{"ha":1225,"x_min":18,"x_max":1207,"o":"m 18 1011 l 153 1011 l 267 514 l 344 146 l 346 146 l 431 514 l 550 1011 l 676 1011 l 794 514 l 879 146 l 882 146 l 960 514 l 1074 1011 l 1207 1011 l 960 0 l 817 0 l 614 835 l 613 835 l 410 0 l 265 0 l 18 1011 m 401 1072 l 550 1247 l 672 1247 l 825 1072 l 725 1072 l 613 1206 l 500 1072 l 401 1072 z "},"Ẅ":{"ha":1225,"x_min":18,"x_max":1207,"o":"m 18 1011 l 153 1011 l 267 514 l 344 146 l 346 146 l 431 514 l 550 1011 l 676 1011 l 794 514 l 879 146 l 882 146 l 960 514 l 1074 1011 l 1207 1011 l 960 0 l 817 0 l 614 835 l 613 835 l 410 0 l 265 0 l 18 1011 m 488 1088 q 439 1107 458 1088 q 419 1154 419 1126 q 439 1201 419 1182 q 488 1219 458 1219 q 536 1199 517 1219 q 556 1154 556 1179 q 536 1107 556 1126 q 488 1088 517 1088 m 739 1088 q 690 1107 710 1088 q 671 1154 671 1126 q 690 1201 671 1182 q 739 1219 710 1219 q 788 1201 768 1219 q 807 1154 807 1182 q 788 1107 807 1126 q 739 1088 768 1088 z "},"Ẇ":{"ha":1225,"x_min":18,"x_max":1207,"o":"m 18 1011 l 153 1011 l 267 514 l 344 146 l 346 146 l 431 514 l 550 1011 l 676 1011 l 794 514 l 879 146 l 882 146 l 960 514 l 1074 1011 l 1207 1011 l 960 0 l 817 0 l 614 835 l 613 835 l 410 0 l 265 0 l 18 1011 m 613 1088 q 564 1107 583 1088 q 544 1154 544 1126 q 564 1201 544 1182 q 613 1219 583 1219 q 661 1201 642 1219 q 681 1154 681 1182 q 661 1107 681 1126 q 613 1088 642 1088 z "},"Ẉ":{"ha":1225,"x_min":18,"x_max":1207,"o":"m 18 1011 l 153 1011 l 267 514 l 344 146 l 346 146 l 431 514 l 550 1011 l 676 1011 l 794 514 l 879 146 l 882 146 l 960 514 l 1074 1011 l 1207 1011 l 960 0 l 817 0 l 614 835 l 613 835 l 410 0 l 265 0 l 18 1011 m 613 -199 q 564 -180 583 -199 q 544 -133 544 -161 q 564 -86 544 -106 q 613 -67 583 -67 q 661 -86 642 -67 q 681 -133 681 -106 q 661 -180 681 -161 q 613 -199 642 -199 z "},"Ẁ":{"ha":1225,"x_min":18,"x_max":1207,"o":"m 18 1011 l 153 1011 l 267 514 l 344 146 l 346 146 l 431 514 l 550 1011 l 676 1011 l 794 514 l 879 146 l 882 146 l 960 514 l 1074 1011 l 1207 1011 l 960 0 l 817 0 l 614 835 l 613 835 l 410 0 l 265 0 l 18 1011 m 574 1072 l 426 1247 l 539 1247 l 656 1072 l 574 1072 z "},"X":{"ha":797,"x_min":32,"x_max":765,"o":"m 765 0 l 469 515 l 415 529 l 171 1011 l 32 1011 l 328 496 l 382 482 l 626 0 l 765 0 m 171 0 l 415 482 l 469 496 l 765 1011 l 626 1011 l 382 529 l 328 515 l 32 0 l 171 0 z "},"Ẍ":{"ha":797,"x_min":32,"x_max":765,"o":"m 765 0 l 469 515 l 415 529 l 171 1011 l 32 1011 l 328 496 l 382 482 l 626 0 l 765 0 m 171 0 l 415 482 l 469 496 l 765 1011 l 626 1011 l 382 529 l 328 515 l 32 0 l 171 0 m 272 1088 q 224 1107 243 1088 q 204 1154 204 1126 q 224 1201 204 1182 q 272 1219 243 1219 q 321 1199 301 1219 q 340 1154 340 1179 q 321 1107 340 1126 q 272 1088 301 1088 m 524 1088 q 475 1107 494 1088 q 456 1154 456 1126 q 475 1201 456 1182 q 524 1219 494 1219 q 572 1201 553 1219 q 592 1154 592 1182 q 572 1107 592 1126 q 524 1088 553 1088 z "},"Ẋ":{"ha":797,"x_min":32,"x_max":765,"o":"m 765 0 l 469 515 l 415 529 l 171 1011 l 32 1011 l 328 496 l 382 482 l 626 0 l 765 0 m 171 0 l 415 482 l 469 496 l 765 1011 l 626 1011 l 382 529 l 328 515 l 32 0 l 171 0 m 399 1088 q 350 1107 369 1088 q 331 1154 331 1126 q 350 1201 331 1182 q 399 1219 369 1219 q 447 1201 428 1219 q 467 1154 467 1182 q 447 1107 467 1126 q 399 1088 428 1088 z "},"Y":{"ha":785,"x_min":13,"x_max":774,"o":"m 331 410 l 13 1011 l 150 1011 l 281 744 l 392 501 l 394 501 l 506 744 l 636 1011 l 774 1011 l 456 410 l 456 0 l 331 0 l 331 410 z "},"Ý":{"ha":785,"x_min":13,"x_max":774,"o":"m 331 410 l 13 1011 l 150 1011 l 281 744 l 392 501 l 394 501 l 506 744 l 636 1011 l 774 1011 l 456 410 l 456 0 l 331 0 l 331 410 m 350 1072 l 464 1247 l 576 1247 l 432 1072 l 350 1072 z "},"Ŷ":{"ha":785,"x_min":13,"x_max":774,"o":"m 331 410 l 13 1011 l 150 1011 l 281 744 l 392 501 l 394 501 l 506 744 l 636 1011 l 774 1011 l 456 410 l 456 0 l 331 0 l 331 410 m 182 1072 l 331 1247 l 453 1247 l 606 1072 l 506 1072 l 393 1206 l 281 1072 l 182 1072 z "},"Ÿ":{"ha":785,"x_min":13,"x_max":774,"o":"m 331 410 l 13 1011 l 150 1011 l 281 744 l 392 501 l 394 501 l 506 744 l 636 1011 l 774 1011 l 456 410 l 456 0 l 331 0 l 331 410 m 267 1088 q 218 1107 238 1088 q 199 1154 199 1126 q 218 1201 199 1182 q 267 1219 238 1219 q 315 1199 296 1219 q 335 1154 335 1179 q 315 1107 335 1126 q 267 1088 296 1088 m 518 1088 q 469 1107 489 1088 q 450 1154 450 1126 q 469 1201 450 1182 q 518 1219 489 1219 q 567 1201 547 1219 q 586 1154 586 1182 q 567 1107 586 1126 q 518 1088 547 1088 z "},"Ẏ":{"ha":785,"x_min":13,"x_max":774,"o":"m 331 410 l 13 1011 l 150 1011 l 281 744 l 392 501 l 394 501 l 506 744 l 636 1011 l 774 1011 l 456 410 l 456 0 l 331 0 l 331 410 m 393 1088 q 344 1107 364 1088 q 325 1154 325 1126 q 344 1201 325 1182 q 393 1219 364 1219 q 442 1201 422 1219 q 461 1154 461 1182 q 442 1107 461 1126 q 393 1088 422 1088 z "},"Ỵ":{"ha":785,"x_min":13,"x_max":774,"o":"m 331 410 l 13 1011 l 150 1011 l 281 744 l 392 501 l 394 501 l 506 744 l 636 1011 l 774 1011 l 456 410 l 456 0 l 331 0 l 331 410 m 393 -199 q 344 -180 364 -199 q 325 -133 325 -161 q 344 -86 325 -106 q 393 -67 364 -67 q 442 -86 422 -67 q 461 -133 461 -106 q 442 -180 461 -161 q 393 -199 422 -199 z "},"Ỳ":{"ha":785,"x_min":13,"x_max":774,"o":"m 331 410 l 13 1011 l 150 1011 l 281 744 l 392 501 l 394 501 l 506 744 l 636 1011 l 774 1011 l 456 410 l 456 0 l 331 0 l 331 410 m 353 1069 l 206 1244 l 318 1244 l 435 1069 l 353 1069 z "},"Ỹ":{"ha":785,"x_min":13,"x_max":774,"o":"m 331 410 l 13 1011 l 150 1011 l 281 744 l 392 501 l 394 501 l 506 744 l 636 1011 l 774 1011 l 456 410 l 456 0 l 331 0 l 331 410 m 554 1225 l 613 1211 q 561 1118 594 1150 q 486 1086 528 1086 q 431 1099 457 1086 q 382 1131 406 1113 q 338 1162 358 1149 q 299 1175 317 1175 q 263 1157 279 1175 q 231 1099 246 1139 l 174 1113 q 224 1204 192 1172 q 299 1236 257 1236 q 353 1223 328 1236 q 403 1192 379 1210 q 447 1161 426 1175 q 486 1147 467 1147 q 522 1166 506 1147 q 554 1225 539 1185 z "},"Z":{"ha":771,"x_min":42,"x_max":726,"o":"m 42 75 l 560 904 l 560 906 l 71 906 l 78 1011 l 718 1011 l 718 936 l 201 107 l 201 106 l 726 106 l 719 0 l 42 0 l 42 75 z "},"Ź":{"ha":771,"x_min":42,"x_max":726,"o":"m 42 75 l 560 904 l 560 906 l 71 906 l 78 1011 l 718 1011 l 718 936 l 201 107 l 201 106 l 726 106 l 719 0 l 42 0 l 42 75 m 358 1072 l 472 1247 l 585 1247 l 440 1072 l 358 1072 z "},"Ž":{"ha":771,"x_min":42,"x_max":726,"o":"m 42 75 l 560 904 l 560 906 l 71 906 l 78 1011 l 718 1011 l 718 936 l 201 107 l 201 106 l 726 106 l 719 0 l 42 0 l 42 75 m 340 1072 l 192 1251 l 292 1251 l 400 1114 l 513 1251 l 613 1251 l 460 1072 l 340 1072 z "},"Ẑ":{"ha":771,"x_min":42,"x_max":726,"o":"m 42 75 l 560 904 l 560 906 l 71 906 l 78 1011 l 718 1011 l 718 936 l 201 107 l 201 106 l 726 106 l 719 0 l 42 0 l 42 75 m 190 1072 l 339 1247 l 461 1247 l 614 1072 l 514 1072 l 401 1206 l 289 1072 l 190 1072 z "},"Ż":{"ha":771,"x_min":42,"x_max":726,"o":"m 42 75 l 560 904 l 560 906 l 71 906 l 78 1011 l 718 1011 l 718 936 l 201 107 l 201 106 l 726 106 l 719 0 l 42 0 l 42 75 m 401 1088 q 353 1107 372 1088 q 333 1154 333 1126 q 353 1201 333 1182 q 401 1219 372 1219 q 450 1201 431 1219 q 469 1154 469 1182 q 450 1107 469 1126 q 401 1088 431 1088 z "},"Ẓ":{"ha":771,"x_min":42,"x_max":726,"o":"m 42 75 l 560 904 l 560 906 l 71 906 l 78 1011 l 718 1011 l 718 936 l 201 107 l 201 106 l 726 106 l 719 0 l 42 0 l 42 75 m 399 -199 q 350 -180 369 -199 q 331 -133 331 -161 q 350 -86 331 -106 q 399 -67 369 -67 q 447 -86 428 -67 q 467 -133 467 -106 q 447 -180 467 -161 q 399 -199 428 -199 z "},"ᴁ":{"ha":788,"x_min":19,"x_max":750,"o":"m 306 679 l 436 679 l 403 592 l 369 592 l 125 0 l 19 0 l 306 679 m 210 276 l 381 276 l 396 197 l 192 197 l 210 276 m 375 679 l 736 679 l 731 593 l 478 593 l 478 393 l 711 393 l 707 307 l 478 307 l 478 86 l 750 86 l 744 0 l 375 0 l 375 679 z "},"ᴀ":{"ha":601,"x_min":19,"x_max":582,"o":"m 236 679 l 365 679 l 582 0 l 475 0 l 344 453 l 301 592 l 300 592 l 256 453 l 125 0 l 19 0 l 236 679 m 199 276 l 404 276 l 422 197 l 179 197 l 199 276 z "},"ʙ":{"ha":568,"x_min":71,"x_max":529,"o":"m 217 -4 q 137 -3 175 -4 q 71 1 99 -1 l 71 675 q 155 680 108 678 q 247 682 201 682 q 353 673 306 682 q 435 644 401 664 q 486 592 468 624 q 504 513 504 560 q 471 417 504 460 q 374 358 438 375 l 379 360 q 486 301 443 346 q 529 190 529 257 q 492 73 529 115 q 385 13 454 31 q 217 -4 315 -4 m 251 78 q 338 88 300 78 q 398 125 375 99 q 421 197 421 151 q 378 285 421 256 q 269 315 335 315 l 174 315 l 174 78 q 210 78 190 78 q 251 78 231 78 m 258 390 q 365 422 329 390 q 400 499 400 453 q 364 578 400 553 q 261 603 328 603 q 213 601 238 603 q 174 599 188 600 l 174 390 l 258 390 z "},"ᴄ":{"ha":574,"x_min":39,"x_max":542,"o":"m 369 -11 q 222 16 285 -11 q 119 90 160 43 q 58 200 78 138 q 39 333 39 263 q 79 519 39 439 q 194 645 119 600 q 374 690 269 690 q 471 681 426 690 q 542 660 515 672 l 528 576 q 459 595 499 588 q 381 603 419 603 q 256 571 308 603 q 175 480 203 539 q 147 339 147 421 q 174 200 147 260 q 253 108 201 140 q 381 76 306 76 q 458 83 418 76 q 528 103 499 90 l 539 19 q 465 -3 510 6 q 369 -11 419 -11 z "},"ᴅ":{"ha":658,"x_min":71,"x_max":619,"o":"m 228 -4 q 144 -2 183 -4 q 71 1 106 0 l 71 675 q 162 680 114 678 q 257 682 210 682 q 529 593 439 682 q 619 350 619 504 q 575 156 619 235 q 443 36 531 76 q 228 -4 356 -4 m 246 81 q 390 110 331 81 q 479 198 449 139 q 510 347 510 257 q 482 483 510 428 q 399 568 454 539 q 263 597 344 597 q 214 597 233 597 q 175 594 194 597 l 175 82 q 208 81 192 81 q 246 81 225 81 z "},"ᴇ":{"ha":508,"x_min":71,"x_max":471,"o":"m 71 679 l 457 679 l 453 593 l 175 593 l 175 393 l 432 393 l 426 307 l 175 307 l 175 86 l 471 86 l 465 0 l 71 0 l 71 679 z "},"ᴆ":{"ha":657,"x_min":8,"x_max":618,"o":"m 228 -4 q 144 -2 182 -4 q 71 1 106 0 l 71 675 q 162 680 114 678 q 256 682 210 682 q 528 593 439 682 q 618 350 618 504 q 574 155 618 233 q 442 36 529 76 q 228 -4 356 -4 m 246 81 q 389 110 331 81 q 478 198 447 139 q 510 347 510 257 q 482 483 510 428 q 399 568 454 539 q 261 597 343 597 q 213 597 232 597 q 175 594 194 597 l 175 82 q 208 81 190 81 q 246 81 225 81 m 8 297 l 14 383 l 322 383 l 318 297 l 8 297 z "},"ꜰ":{"ha":494,"x_min":71,"x_max":456,"o":"m 71 679 l 456 679 l 450 593 l 175 593 l 175 382 l 429 382 l 422 297 l 175 297 l 175 0 l 71 0 l 71 679 z "},"ɢ":{"ha":633,"x_min":39,"x_max":579,"o":"m 376 -10 q 232 15 294 -10 q 126 85 169 39 q 61 194 83 131 q 39 333 39 257 q 81 519 39 439 q 199 644 122 599 q 382 690 275 690 q 482 681 435 690 q 563 658 529 671 l 547 572 q 475 594 515 585 q 385 603 435 603 q 259 570 313 603 q 176 478 206 538 q 147 339 147 419 q 177 196 147 256 q 260 106 207 136 q 382 75 314 75 q 438 81 413 75 q 482 93 464 86 l 482 315 l 524 269 l 354 269 l 360 350 l 579 350 l 579 26 q 487 1 542 11 q 376 -10 432 -10 z "},"ʜ":{"ha":649,"x_min":71,"x_max":578,"o":"m 71 679 l 175 679 l 175 396 l 474 396 l 474 679 l 578 679 l 578 0 l 474 0 l 474 307 l 175 307 l 175 0 l 71 0 l 71 679 z "},"ɪ":{"ha":246,"x_min":71,"x_max":175,"o":"m 71 679 l 175 679 l 175 0 l 71 0 l 71 679 z "},"ᴊ":{"ha":243,"x_min":-86,"x_max":171,"o":"m -86 -74 q -9 -53 -39 -69 q 38 -7 21 -37 q 61 67 54 24 q 68 165 68 110 l 68 679 l 171 679 l 171 163 q 142 -15 171 53 q 57 -115 113 -83 q -76 -154 1 -147 l -86 -74 z "},"ᴋ":{"ha":567,"x_min":71,"x_max":565,"o":"m 71 679 l 175 679 l 175 356 l 242 397 l 426 679 l 551 679 l 322 369 l 565 0 l 442 0 l 243 311 l 175 271 l 175 0 l 71 0 l 71 679 z "},"ʟ":{"ha":485,"x_min":71,"x_max":467,"o":"m 71 679 l 175 679 l 175 86 l 467 86 l 461 0 l 71 0 l 71 679 z "},"ᴌ":{"ha":485,"x_min":0,"x_max":467,"o":"m 0 264 l 0 333 l 289 469 l 289 399 l 0 264 m 71 679 l 175 679 l 175 86 l 467 86 l 461 0 l 71 0 l 71 679 z "},"ᴍ":{"ha":817,"x_min":71,"x_max":746,"o":"m 101 679 l 233 679 l 331 397 l 408 142 l 410 142 l 489 397 l 586 679 l 718 679 l 746 0 l 646 0 l 636 271 l 626 532 l 625 532 l 450 0 l 363 0 l 192 532 l 190 532 l 181 271 l 169 0 l 71 0 l 101 679 z "},"ɴ":{"ha":651,"x_min":71,"x_max":581,"o":"m 71 679 l 189 679 q 278 526 228 614 q 383 342 329 438 q 485 156 438 247 l 488 156 l 483 379 l 483 679 l 581 679 l 581 0 l 471 0 q 384 154 426 81 q 303 294 342 228 q 231 419 265 360 q 168 532 197 478 l 165 532 l 169 307 l 169 0 l 71 0 l 71 679 z "},"ɶ":{"ha":867,"x_min":-3,"x_max":853,"o":"m 299 -11 q 136 35 204 -11 q 33 160 68 81 q -3 339 -3 240 q 33 519 -3 440 q 136 644 68 599 q 299 690 204 690 q 412 668 363 690 q 497 608 461 646 q 553 522 533 571 l 456 460 q 399 567 439 529 q 299 604 360 604 q 190 569 233 604 q 126 474 147 533 q 104 339 104 414 q 126 206 104 265 q 190 110 147 146 q 299 75 233 75 q 400 113 361 75 q 457 218 439 150 l 553 160 q 498 72 533 110 q 413 11 463 33 q 299 -11 363 -11 m 454 0 l 454 679 l 840 679 l 835 593 l 557 593 l 557 393 l 815 393 l 810 307 l 557 307 l 557 86 l 853 86 l 847 0 l 454 0 z "},"ᴏ":{"ha":681,"x_min":39,"x_max":642,"o":"m 340 -11 q 178 35 246 -11 q 75 160 111 81 q 39 339 39 240 q 75 519 39 440 q 178 644 111 599 q 340 690 246 690 q 502 644 435 690 q 606 519 569 599 q 642 339 642 440 q 606 160 642 239 q 502 35 569 81 q 340 -11 435 -11 m 340 76 q 449 111 406 76 q 513 206 492 146 q 533 339 533 267 q 513 474 533 414 q 449 568 492 533 q 340 603 406 603 q 232 568 275 603 q 168 474 189 533 q 147 339 147 414 q 168 206 147 267 q 232 111 189 146 q 340 76 275 76 z "},"ᴘ":{"ha":551,"x_min":71,"x_max":515,"o":"m 71 675 q 153 680 111 678 q 242 682 196 682 q 351 672 300 682 q 438 638 401 661 q 494 575 474 614 q 515 481 515 536 q 447 324 515 381 q 260 267 379 267 q 218 268 243 267 q 174 272 193 269 l 174 0 l 71 0 l 71 675 m 243 350 q 367 385 322 350 q 411 479 411 419 q 372 570 411 540 q 254 600 332 600 q 211 599 232 600 q 174 596 190 599 l 174 356 q 204 352 185 354 q 243 350 224 350 z "},"ʀ":{"ha":554,"x_min":71,"x_max":536,"o":"m 71 675 q 153 680 110 678 q 242 682 196 682 q 449 634 383 682 q 514 489 514 586 q 494 404 514 440 q 442 346 474 368 q 376 313 410 324 l 376 310 l 536 0 l 425 0 l 283 283 l 174 283 l 174 0 l 71 0 l 71 675 m 271 364 q 338 377 307 364 q 389 417 369 390 q 408 483 408 443 q 372 571 408 542 q 254 600 335 600 q 211 599 232 600 q 174 597 190 599 l 174 364 l 271 364 z "},"ꜱ":{"ha":506,"x_min":40,"x_max":469,"o":"m 226 -11 q 124 1 175 -11 q 40 26 74 14 l 60 108 q 138 85 93 96 q 224 75 182 75 q 326 104 286 75 q 365 182 365 133 q 344 239 365 217 q 289 278 322 261 q 217 311 256 294 q 138 351 178 328 q 73 409 99 374 q 47 501 47 444 q 79 604 47 563 q 164 668 111 646 q 281 690 217 690 q 370 680 328 690 q 440 657 413 669 l 424 576 q 361 595 399 586 q 285 604 324 604 q 188 577 224 604 q 151 507 151 550 q 172 453 151 475 q 224 415 192 431 q 293 382 256 399 q 377 341 338 364 q 443 282 417 318 q 469 190 469 246 q 403 44 469 99 q 226 -11 338 -11 z "},"ᴛ":{"ha":501,"x_min":7,"x_max":494,"o":"m 199 593 l 7 593 l 13 679 l 494 679 l 490 593 l 303 593 l 303 0 l 199 0 l 199 593 z "},"ᴜ":{"ha":642,"x_min":65,"x_max":571,"o":"m 318 -11 q 133 57 201 -11 q 65 263 65 125 l 65 679 l 168 679 l 168 257 q 207 121 168 168 q 318 74 246 74 q 430 121 392 74 q 468 257 468 168 l 468 679 l 571 679 l 571 263 q 504 57 571 125 q 318 -11 438 -11 z "},"ᴠ":{"ha":572,"x_min":0,"x_max":572,"o":"m 0 679 l 113 679 l 231 278 l 286 99 l 288 99 l 342 278 l 460 679 l 572 679 l 350 0 l 224 0 l 0 679 z "},"ᴡ":{"ha":842,"x_min":10,"x_max":833,"o":"m 10 679 l 121 679 l 190 361 l 239 118 l 240 118 l 296 361 l 369 679 l 474 679 l 547 361 l 603 118 l 604 118 l 653 361 l 724 679 l 833 679 l 669 0 l 550 0 l 422 533 l 421 533 l 292 0 l 172 0 l 10 679 z "},"ʏ":{"ha":547,"x_min":7,"x_max":544,"o":"m 224 269 l 7 679 l 119 679 l 201 507 l 275 346 l 276 346 l 349 507 l 432 679 l 544 679 l 326 269 l 326 0 l 224 0 l 224 269 z "},"ᴢ":{"ha":539,"x_min":29,"x_max":506,"o":"m 29 63 l 371 592 l 371 593 l 49 593 l 54 679 l 500 679 l 500 617 l 160 88 l 160 86 l 506 86 l 500 0 l 29 0 l 29 63 z "},"a":{"ha":706,"x_min":51,"x_max":615,"o":"m 264 -15 q 152 11 200 -15 q 78 83 104 38 q 51 189 51 129 q 76 290 51 251 q 141 350 100 329 q 232 378 182 371 q 333 386 282 386 l 486 386 l 486 474 q 481 538 486 508 q 462 591 476 568 q 417 627 447 614 q 333 640 386 640 q 222 626 276 640 q 121 593 167 613 l 100 682 q 180 711 138 699 q 267 731 222 724 q 353 738 313 738 q 488 717 436 738 q 565 662 539 697 q 601 579 592 626 q 610 478 610 532 l 610 178 q 612 88 610 138 q 615 0 614 39 l 524 0 l 499 111 l 496 111 q 401 20 461 56 q 264 -15 340 -15 m 303 72 q 419 106 365 72 q 489 196 472 140 l 489 315 l 350 315 q 291 313 322 315 q 232 299 260 310 q 188 264 204 289 q 171 196 171 239 q 207 105 171 138 q 303 72 243 72 z "},"á":{"ha":706,"x_min":51,"x_max":615,"o":"m 264 -15 q 152 11 200 -15 q 78 83 104 38 q 51 189 51 129 q 76 290 51 251 q 141 350 100 329 q 232 378 182 371 q 333 386 282 386 l 486 386 l 486 474 q 481 538 486 508 q 462 591 476 568 q 417 627 447 614 q 333 640 386 640 q 222 626 276 640 q 121 593 167 613 l 100 682 q 180 711 138 699 q 267 731 222 724 q 353 738 313 738 q 488 717 436 738 q 565 662 539 697 q 601 579 592 626 q 610 478 610 532 l 610 178 q 612 88 610 138 q 615 0 614 39 l 524 0 l 499 111 l 496 111 q 401 20 461 56 q 264 -15 340 -15 m 303 72 q 419 106 365 72 q 489 196 472 140 l 489 315 l 350 315 q 291 313 322 315 q 232 299 260 310 q 188 264 204 289 q 171 196 171 239 q 207 105 171 138 q 303 72 243 72 m 321 810 l 438 1007 l 547 1007 l 403 810 l 321 810 z "},"ă":{"ha":706,"x_min":51,"x_max":615,"o":"m 264 -15 q 152 11 200 -15 q 78 83 104 38 q 51 189 51 129 q 76 290 51 251 q 141 350 100 329 q 232 378 182 371 q 333 386 282 386 l 486 386 l 486 474 q 481 538 486 508 q 462 591 476 568 q 417 627 447 614 q 333 640 386 640 q 222 626 276 640 q 121 593 167 613 l 100 682 q 180 711 138 699 q 267 731 222 724 q 353 738 313 738 q 488 717 436 738 q 565 662 539 697 q 601 579 592 626 q 610 478 610 532 l 610 178 q 612 88 610 138 q 615 0 614 39 l 524 0 l 499 111 l 496 111 q 401 20 461 56 q 264 -15 340 -15 m 303 72 q 419 106 365 72 q 489 196 472 140 l 489 315 l 350 315 q 291 313 322 315 q 232 299 260 310 q 188 264 204 289 q 171 196 171 239 q 207 105 171 138 q 303 72 243 72 m 363 808 q 266 830 310 808 q 198 894 222 851 q 176 999 174 938 l 235 999 q 269 903 232 938 q 363 868 306 868 q 456 903 419 868 q 490 999 493 938 l 549 999 q 526 894 551 938 q 458 830 501 851 q 363 808 415 808 z "},"ặ":{"ha":706,"x_min":51,"x_max":615,"o":"m 264 -15 q 152 11 200 -15 q 78 83 104 38 q 51 189 51 129 q 76 290 51 251 q 141 350 100 329 q 232 378 182 371 q 333 386 282 386 l 486 386 l 486 474 q 481 538 486 508 q 462 591 476 568 q 417 627 447 614 q 333 640 386 640 q 222 626 276 640 q 121 593 167 613 l 100 682 q 180 711 138 699 q 267 731 222 724 q 353 738 313 738 q 488 717 436 738 q 565 662 539 697 q 601 579 592 626 q 610 478 610 532 l 610 178 q 612 88 610 138 q 615 0 614 39 l 524 0 l 499 111 l 496 111 q 401 20 461 56 q 264 -15 340 -15 m 303 72 q 419 106 365 72 q 489 196 472 140 l 489 315 l 350 315 q 291 313 322 315 q 232 299 260 310 q 188 264 204 289 q 171 196 171 239 q 207 105 171 138 q 303 72 243 72 m 358 -199 q 310 -180 329 -199 q 290 -133 290 -161 q 310 -86 290 -106 q 358 -67 329 -67 q 407 -86 388 -67 q 426 -133 426 -106 q 407 -180 426 -161 q 358 -199 388 -199 m 363 808 q 266 830 310 808 q 198 894 222 851 q 176 999 174 938 l 235 999 q 269 903 232 938 q 363 868 306 868 q 456 903 419 868 q 490 999 493 938 l 549 999 q 526 894 551 938 q 458 830 501 851 q 363 808 415 808 z "},"ǎ":{"ha":706,"x_min":51,"x_max":615,"o":"m 264 -15 q 152 11 200 -15 q 78 83 104 38 q 51 189 51 129 q 76 290 51 251 q 141 350 100 329 q 232 378 182 371 q 333 386 282 386 l 486 386 l 486 474 q 481 538 486 508 q 462 591 476 568 q 417 627 447 614 q 333 640 386 640 q 222 626 276 640 q 121 593 167 613 l 100 682 q 180 711 138 699 q 267 731 222 724 q 353 738 313 738 q 488 717 436 738 q 565 662 539 697 q 601 579 592 626 q 610 478 610 532 l 610 178 q 612 88 610 138 q 615 0 614 39 l 524 0 l 499 111 l 496 111 q 401 20 461 56 q 264 -15 340 -15 m 303 72 q 419 106 365 72 q 489 196 472 140 l 489 315 l 350 315 q 291 313 322 315 q 232 299 260 310 q 188 264 204 289 q 171 196 171 239 q 207 105 171 138 q 303 72 243 72 m 300 810 l 153 1008 l 253 1008 l 361 851 l 474 1008 l 574 1008 l 422 810 l 300 810 z "},"â":{"ha":706,"x_min":51,"x_max":615,"o":"m 264 -15 q 152 11 200 -15 q 78 83 104 38 q 51 189 51 129 q 76 290 51 251 q 141 350 100 329 q 232 378 182 371 q 333 386 282 386 l 486 386 l 486 474 q 481 538 486 508 q 462 591 476 568 q 417 627 447 614 q 333 640 386 640 q 222 626 276 640 q 121 593 167 613 l 100 682 q 180 711 138 699 q 267 731 222 724 q 353 738 313 738 q 488 717 436 738 q 565 662 539 697 q 601 579 592 626 q 610 478 610 532 l 610 178 q 612 88 610 138 q 615 0 614 39 l 524 0 l 499 111 l 496 111 q 401 20 461 56 q 264 -15 340 -15 m 303 72 q 419 106 365 72 q 489 196 472 140 l 489 315 l 350 315 q 291 313 322 315 q 232 299 260 310 q 188 264 204 289 q 171 196 171 239 q 207 105 171 138 q 303 72 243 72 m 150 810 l 299 1008 l 421 1008 l 574 810 l 474 810 l 361 967 l 249 810 l 150 810 z "},"ậ":{"ha":706,"x_min":51,"x_max":615,"o":"m 264 -15 q 152 11 200 -15 q 78 83 104 38 q 51 189 51 129 q 76 290 51 251 q 141 350 100 329 q 232 378 182 371 q 333 386 282 386 l 486 386 l 486 474 q 481 538 486 508 q 462 591 476 568 q 417 627 447 614 q 333 640 386 640 q 222 626 276 640 q 121 593 167 613 l 100 682 q 180 711 138 699 q 267 731 222 724 q 353 738 313 738 q 488 717 436 738 q 565 662 539 697 q 601 579 592 626 q 610 478 610 532 l 610 178 q 612 88 610 138 q 615 0 614 39 l 524 0 l 499 111 l 496 111 q 401 20 461 56 q 264 -15 340 -15 m 303 72 q 419 106 365 72 q 489 196 472 140 l 489 315 l 350 315 q 291 313 322 315 q 232 299 260 310 q 188 264 204 289 q 171 196 171 239 q 207 105 171 138 q 303 72 243 72 m 358 -199 q 310 -180 329 -199 q 290 -133 290 -161 q 310 -86 290 -106 q 358 -67 329 -67 q 407 -86 388 -67 q 426 -133 426 -106 q 407 -180 426 -161 q 358 -199 388 -199 m 150 810 l 299 1008 l 421 1008 l 574 810 l 474 810 l 361 967 l 249 810 l 150 810 z "},"ä":{"ha":706,"x_min":51,"x_max":615,"o":"m 264 -15 q 152 11 200 -15 q 78 83 104 38 q 51 189 51 129 q 76 290 51 251 q 141 350 100 329 q 232 378 182 371 q 333 386 282 386 l 486 386 l 486 474 q 481 538 486 508 q 462 591 476 568 q 417 627 447 614 q 333 640 386 640 q 222 626 276 640 q 121 593 167 613 l 100 682 q 180 711 138 699 q 267 731 222 724 q 353 738 313 738 q 488 717 436 738 q 565 662 539 697 q 601 579 592 626 q 610 478 610 532 l 610 178 q 612 88 610 138 q 615 0 614 39 l 524 0 l 499 111 l 496 111 q 401 20 461 56 q 264 -15 340 -15 m 303 72 q 419 106 365 72 q 489 196 472 140 l 489 315 l 350 315 q 291 313 322 315 q 232 299 260 310 q 188 264 204 289 q 171 196 171 239 q 207 105 171 138 q 303 72 243 72 m 236 842 q 188 860 207 842 q 168 907 168 879 q 188 954 168 935 q 236 974 207 974 q 285 954 265 974 q 304 907 304 935 q 285 860 304 879 q 236 842 265 842 m 488 842 q 439 860 458 842 q 419 907 419 879 q 439 954 419 935 q 488 974 458 974 q 536 954 517 974 q 556 907 556 935 q 536 860 556 879 q 488 842 517 842 z "},"ȧ":{"ha":706,"x_min":51,"x_max":615,"o":"m 264 -15 q 152 11 200 -15 q 78 83 104 38 q 51 189 51 129 q 76 290 51 251 q 141 350 100 329 q 232 378 182 371 q 333 386 282 386 l 486 386 l 486 474 q 481 538 486 508 q 462 591 476 568 q 417 627 447 614 q 333 640 386 640 q 222 626 276 640 q 121 593 167 613 l 100 682 q 180 711 138 699 q 267 731 222 724 q 353 738 313 738 q 488 717 436 738 q 565 662 539 697 q 601 579 592 626 q 610 478 610 532 l 610 178 q 612 88 610 138 q 615 0 614 39 l 524 0 l 499 111 l 496 111 q 401 20 461 56 q 264 -15 340 -15 m 303 72 q 419 106 365 72 q 489 196 472 140 l 489 315 l 350 315 q 291 313 322 315 q 232 299 260 310 q 188 264 204 289 q 171 196 171 239 q 207 105 171 138 q 303 72 243 72 m 361 842 q 313 860 332 842 q 293 907 293 879 q 313 954 293 935 q 361 974 332 974 q 410 954 390 974 q 429 907 429 935 q 410 860 429 879 q 361 842 390 842 z "},"ạ":{"ha":706,"x_min":51,"x_max":615,"o":"m 264 -15 q 152 11 200 -15 q 78 83 104 38 q 51 189 51 129 q 76 290 51 251 q 141 350 100 329 q 232 378 182 371 q 333 386 282 386 l 486 386 l 486 474 q 481 538 486 508 q 462 591 476 568 q 417 627 447 614 q 333 640 386 640 q 222 626 276 640 q 121 593 167 613 l 100 682 q 180 711 138 699 q 267 731 222 724 q 353 738 313 738 q 488 717 436 738 q 565 662 539 697 q 601 579 592 626 q 610 478 610 532 l 610 178 q 612 88 610 138 q 615 0 614 39 l 524 0 l 499 111 l 496 111 q 401 20 461 56 q 264 -15 340 -15 m 303 72 q 419 106 365 72 q 489 196 472 140 l 489 315 l 350 315 q 291 313 322 315 q 232 299 260 310 q 188 264 204 289 q 171 196 171 239 q 207 105 171 138 q 303 72 243 72 m 358 -199 q 310 -180 329 -199 q 290 -133 290 -161 q 310 -86 290 -106 q 358 -67 329 -67 q 407 -86 388 -67 q 426 -133 426 -106 q 407 -180 426 -161 q 358 -199 388 -199 z "},"à":{"ha":706,"x_min":51,"x_max":615,"o":"m 264 -15 q 152 11 200 -15 q 78 83 104 38 q 51 189 51 129 q 76 290 51 251 q 141 350 100 329 q 232 378 182 371 q 333 386 282 386 l 486 386 l 486 474 q 481 538 486 508 q 462 591 476 568 q 417 627 447 614 q 333 640 386 640 q 222 626 276 640 q 121 593 167 613 l 100 682 q 180 711 138 699 q 267 731 222 724 q 353 738 313 738 q 488 717 436 738 q 565 662 539 697 q 601 579 592 626 q 610 478 610 532 l 610 178 q 612 88 610 138 q 615 0 614 39 l 524 0 l 499 111 l 496 111 q 401 20 461 56 q 264 -15 340 -15 m 303 72 q 419 106 365 72 q 489 196 472 140 l 489 315 l 350 315 q 291 313 322 315 q 232 299 260 310 q 188 264 204 289 q 171 196 171 239 q 207 105 171 138 q 303 72 243 72 m 319 810 l 176 1007 l 285 1007 l 401 810 l 319 810 z "},"ā":{"ha":706,"x_min":51,"x_max":615,"o":"m 264 -15 q 152 11 200 -15 q 78 83 104 38 q 51 189 51 129 q 76 290 51 251 q 141 350 100 329 q 232 378 182 371 q 333 386 282 386 l 486 386 l 486 474 q 481 538 486 508 q 462 591 476 568 q 417 627 447 614 q 333 640 386 640 q 222 626 276 640 q 121 593 167 613 l 100 682 q 180 711 138 699 q 267 731 222 724 q 353 738 313 738 q 488 717 436 738 q 565 662 539 697 q 601 579 592 626 q 610 478 610 532 l 610 178 q 612 88 610 138 q 615 0 614 39 l 524 0 l 499 111 l 496 111 q 401 20 461 56 q 264 -15 340 -15 m 303 72 q 419 106 365 72 q 489 196 472 140 l 489 315 l 350 315 q 291 313 322 315 q 232 299 260 310 q 188 264 204 289 q 171 196 171 239 q 207 105 171 138 q 303 72 243 72 m 175 857 l 175 926 l 549 926 l 549 857 l 175 857 z "},"ą":{"ha":706,"x_min":51,"x_max":628,"o":"m 264 -15 q 152 11 200 -15 q 78 83 104 38 q 51 189 51 129 q 76 290 51 251 q 141 350 100 329 q 232 378 182 371 q 333 386 282 386 l 486 386 l 486 474 q 481 538 486 508 q 462 591 476 568 q 417 627 447 614 q 333 640 386 640 q 222 626 276 640 q 121 593 167 613 l 100 682 q 180 711 138 699 q 267 731 222 724 q 353 738 313 738 q 488 717 436 738 q 565 662 539 697 q 601 579 592 626 q 610 478 610 532 l 610 178 q 612 88 610 138 q 615 0 614 39 l 524 0 l 499 111 l 496 111 q 401 20 461 56 q 264 -15 340 -15 m 303 72 q 419 106 365 72 q 489 196 472 140 l 489 315 l 350 315 q 291 313 322 315 q 232 299 260 310 q 188 264 204 289 q 171 196 171 239 q 207 105 171 138 q 303 72 243 72 m 514 -294 q 419 -260 450 -294 q 389 -183 389 -225 q 442 -69 389 -125 q 585 7 494 -14 l 615 0 q 497 -74 540 -26 q 453 -172 453 -122 q 475 -228 453 -207 q 539 -250 497 -250 q 579 -246 557 -250 q 626 -235 601 -242 l 626 -272 q 566 -289 594 -283 q 514 -294 538 -294 z "},"å":{"ha":706,"x_min":51,"x_max":615,"o":"m 264 -15 q 152 11 200 -15 q 78 83 104 38 q 51 189 51 129 q 76 290 51 251 q 141 350 100 329 q 232 378 182 371 q 333 386 282 386 l 486 386 l 486 474 q 481 538 486 508 q 462 591 476 568 q 417 627 447 614 q 333 640 386 640 q 222 626 276 640 q 121 593 167 613 l 100 682 q 180 711 138 699 q 267 731 222 724 q 353 738 313 738 q 488 717 436 738 q 565 662 539 697 q 601 579 592 626 q 610 478 610 532 l 610 178 q 612 88 610 138 q 615 0 614 39 l 524 0 l 499 111 l 496 111 q 401 20 461 56 q 264 -15 340 -15 m 303 72 q 419 106 365 72 q 489 196 472 140 l 489 315 l 350 315 q 291 313 322 315 q 232 299 260 310 q 188 264 204 289 q 171 196 171 239 q 207 105 171 138 q 303 72 243 72 m 361 746 q 265 786 306 746 q 224 885 224 826 q 242 953 224 922 q 292 1003 261 985 q 361 1022 324 1022 q 431 1003 400 1022 q 481 953 463 985 q 500 885 500 922 q 481 815 500 846 q 431 765 463 783 q 361 746 400 746 m 361 792 q 426 819 400 792 q 453 885 453 846 q 426 949 453 922 q 361 975 400 975 q 297 949 324 975 q 269 885 269 922 q 297 819 269 846 q 361 792 324 792 z "},"ã":{"ha":706,"x_min":51,"x_max":615,"o":"m 264 -15 q 152 11 200 -15 q 78 83 104 38 q 51 189 51 129 q 76 290 51 251 q 141 350 100 329 q 232 378 182 371 q 333 386 282 386 l 486 386 l 486 474 q 481 538 486 508 q 462 591 476 568 q 417 627 447 614 q 333 640 386 640 q 222 626 276 640 q 121 593 167 613 l 100 682 q 180 711 138 699 q 267 731 222 724 q 353 738 313 738 q 488 717 436 738 q 565 662 539 697 q 601 579 592 626 q 610 478 610 532 l 610 178 q 612 88 610 138 q 615 0 614 39 l 524 0 l 499 111 l 496 111 q 401 20 461 56 q 264 -15 340 -15 m 303 72 q 419 106 365 72 q 489 196 472 140 l 489 315 l 350 315 q 291 313 322 315 q 232 299 260 310 q 188 264 204 289 q 171 196 171 239 q 207 105 171 138 q 303 72 243 72 m 528 979 l 592 963 q 538 865 572 899 q 458 832 503 832 q 402 846 429 832 q 351 878 375 860 q 306 910 326 897 q 267 924 285 924 q 228 905 246 924 q 197 844 211 886 l 133 860 q 187 956 151 922 q 267 990 222 990 q 322 976 296 990 q 373 944 349 963 q 418 913 397 926 q 458 899 439 899 q 495 918 478 899 q 528 979 513 938 z "},"æ":{"ha":1154,"x_min":51,"x_max":1104,"o":"m 264 -15 q 152 10 200 -15 q 78 83 104 36 q 51 189 51 129 q 76 292 51 251 q 141 356 100 333 q 231 388 182 379 q 332 397 281 397 l 486 397 l 486 474 q 481 538 486 508 q 462 591 476 568 q 417 627 447 614 q 333 640 386 640 q 222 626 276 640 q 121 593 167 613 l 100 682 q 180 711 138 699 q 267 731 222 724 q 353 738 313 738 q 479 717 432 738 q 550 662 526 697 q 581 579 574 626 q 589 478 589 532 l 589 310 q 524 144 560 208 q 447 46 489 81 q 359 -2 406 11 q 264 -15 313 -15 m 299 71 q 382 90 343 71 q 449 154 421 110 q 489 272 478 199 l 489 326 l 351 326 q 292 322 324 326 q 233 303 261 317 q 188 265 206 290 q 171 196 171 239 q 206 103 171 136 q 299 71 242 71 m 839 -15 q 644 32 721 -15 q 528 164 567 79 q 490 358 490 249 q 510 500 490 432 q 572 622 531 568 q 674 706 613 675 q 818 738 736 738 q 956 708 899 738 q 1047 623 1013 678 q 1092 494 1081 568 q 1094 331 1104 419 l 556 331 l 618 378 q 616 258 607 313 q 655 164 625 204 q 735 101 685 124 q 856 79 786 79 q 967 92 915 79 q 1053 117 1019 106 l 1068 29 q 965 -2 1026 11 q 839 -15 903 -15 m 558 401 l 985 401 q 986 424 986 417 q 986 435 986 431 q 967 548 986 500 q 910 622 949 596 q 814 649 872 649 q 699 610 746 649 q 631 507 653 571 q 613 368 608 443 l 558 401 z "},"ǽ":{"ha":1154,"x_min":51,"x_max":1104,"o":"m 264 -15 q 152 10 200 -15 q 78 83 104 36 q 51 189 51 129 q 76 292 51 251 q 141 356 100 333 q 231 388 182 379 q 332 397 281 397 l 486 397 l 486 474 q 481 538 486 508 q 462 591 476 568 q 417 627 447 614 q 333 640 386 640 q 222 626 276 640 q 121 593 167 613 l 100 682 q 180 711 138 699 q 267 731 222 724 q 353 738 313 738 q 479 717 432 738 q 550 662 526 697 q 581 579 574 626 q 589 478 589 532 l 589 310 q 524 144 560 208 q 447 46 489 81 q 359 -2 406 11 q 264 -15 313 -15 m 299 71 q 382 90 343 71 q 449 154 421 110 q 489 272 478 199 l 489 326 l 351 326 q 292 322 324 326 q 233 303 261 317 q 188 265 206 290 q 171 196 171 239 q 206 103 171 136 q 299 71 242 71 m 839 -15 q 644 32 721 -15 q 528 164 567 79 q 490 358 490 249 q 510 500 490 432 q 572 622 531 568 q 674 706 613 675 q 818 738 736 738 q 956 708 899 738 q 1047 623 1013 678 q 1092 494 1081 568 q 1094 331 1104 419 l 556 331 l 618 378 q 616 258 607 313 q 655 164 625 204 q 735 101 685 124 q 856 79 786 79 q 967 92 915 79 q 1053 117 1019 106 l 1068 29 q 965 -2 1026 11 q 839 -15 903 -15 m 558 401 l 985 401 q 986 424 986 417 q 986 435 986 431 q 967 548 986 500 q 910 622 949 596 q 814 649 872 649 q 699 610 746 649 q 631 507 653 571 q 613 368 608 443 l 558 401 m 542 810 l 658 1007 l 768 1007 l 624 810 l 542 810 z "},"ǣ":{"ha":1154,"x_min":51,"x_max":1104,"o":"m 264 -15 q 152 10 200 -15 q 78 83 104 36 q 51 189 51 129 q 76 292 51 251 q 141 356 100 333 q 231 388 182 379 q 332 397 281 397 l 486 397 l 486 474 q 481 538 486 508 q 462 591 476 568 q 417 627 447 614 q 333 640 386 640 q 222 626 276 640 q 121 593 167 613 l 100 682 q 180 711 138 699 q 267 731 222 724 q 353 738 313 738 q 479 717 432 738 q 550 662 526 697 q 581 579 574 626 q 589 478 589 532 l 589 310 q 524 144 560 208 q 447 46 489 81 q 359 -2 406 11 q 264 -15 313 -15 m 299 71 q 382 90 343 71 q 449 154 421 110 q 489 272 478 199 l 489 326 l 351 326 q 292 322 324 326 q 233 303 261 317 q 188 265 206 290 q 171 196 171 239 q 206 103 171 136 q 299 71 242 71 m 839 -15 q 644 32 721 -15 q 528 164 567 79 q 490 358 490 249 q 510 500 490 432 q 572 622 531 568 q 674 706 613 675 q 818 738 736 738 q 956 708 899 738 q 1047 623 1013 678 q 1092 494 1081 568 q 1094 331 1104 419 l 556 331 l 618 378 q 616 258 607 313 q 655 164 625 204 q 735 101 685 124 q 856 79 786 79 q 967 92 915 79 q 1053 117 1019 106 l 1068 29 q 965 -2 1026 11 q 839 -15 903 -15 m 558 401 l 985 401 q 986 424 986 417 q 986 435 986 431 q 967 548 986 500 q 910 622 949 596 q 814 649 872 649 q 699 610 746 649 q 631 507 653 571 q 613 368 608 443 l 558 401 m 396 857 l 396 926 l 769 926 l 769 857 l 396 857 z "},"b":{"ha":781,"x_min":93,"x_max":725,"o":"m 433 -15 q 338 2 381 -15 q 265 48 296 19 q 211 107 233 76 l 210 107 l 183 0 l 93 0 q 94 47 93 21 q 95 100 94 72 q 97 155 96 128 q 97 204 97 182 l 97 1039 l 222 1043 l 222 621 l 224 621 q 317 701 257 664 q 450 738 376 738 q 599 692 538 738 q 692 565 660 647 q 725 374 725 483 q 687 170 725 257 q 583 34 649 83 q 433 -15 518 -15 m 401 85 q 513 125 469 85 q 576 229 556 165 q 597 368 597 293 q 576 510 597 450 q 512 603 554 571 q 408 636 469 636 q 333 621 369 636 q 269 581 297 606 q 222 529 240 557 l 222 217 q 258 155 233 185 q 319 105 282 125 q 401 85 356 85 z "},"ḃ":{"ha":781,"x_min":93,"x_max":725,"o":"m 433 -15 q 338 2 381 -15 q 265 48 296 19 q 211 107 233 76 l 210 107 l 183 0 l 93 0 q 94 47 93 21 q 95 100 94 72 q 97 155 96 128 q 97 204 97 182 l 97 1039 l 222 1043 l 222 621 l 224 621 q 317 701 257 664 q 450 738 376 738 q 599 692 538 738 q 692 565 660 647 q 725 374 725 483 q 687 170 725 257 q 583 34 649 83 q 433 -15 518 -15 m 401 85 q 513 125 469 85 q 576 229 556 165 q 597 368 597 293 q 576 510 597 450 q 512 603 554 571 q 408 636 469 636 q 333 621 369 636 q 269 581 297 606 q 222 529 240 557 l 222 217 q 258 155 233 185 q 319 105 282 125 q 401 85 356 85 m 161 1115 q 113 1135 132 1115 q 93 1182 93 1154 q 113 1228 93 1210 q 161 1247 132 1247 q 210 1228 190 1247 q 229 1182 229 1210 q 210 1135 229 1154 q 161 1115 190 1115 z "},"ḅ":{"ha":781,"x_min":93,"x_max":725,"o":"m 433 -15 q 338 2 381 -15 q 265 48 296 19 q 211 107 233 76 l 210 107 l 183 0 l 93 0 q 94 47 93 21 q 95 100 94 72 q 97 155 96 128 q 97 204 97 182 l 97 1039 l 222 1043 l 222 621 l 224 621 q 317 701 257 664 q 450 738 376 738 q 599 692 538 738 q 692 565 660 647 q 725 374 725 483 q 687 170 725 257 q 583 34 649 83 q 433 -15 518 -15 m 401 85 q 513 125 469 85 q 576 229 556 165 q 597 368 597 293 q 576 510 597 450 q 512 603 554 571 q 408 636 469 636 q 333 621 369 636 q 269 581 297 606 q 222 529 240 557 l 222 217 q 258 155 233 185 q 319 105 282 125 q 401 85 356 85 m 389 -199 q 340 -180 360 -199 q 321 -133 321 -161 q 340 -86 321 -106 q 389 -67 360 -67 q 438 -86 418 -67 q 457 -133 457 -106 q 438 -180 457 -161 q 389 -199 418 -199 z "},"c":{"ha":668,"x_min":54,"x_max":625,"o":"m 411 -15 q 222 30 301 -15 q 98 159 142 75 q 54 360 54 243 q 98 557 54 472 q 223 689 142 642 q 419 736 304 736 q 521 726 468 736 q 615 697 574 717 l 600 604 q 520 629 567 619 q 425 639 474 639 q 291 603 346 639 q 208 506 236 568 q 181 363 181 443 q 212 214 181 276 q 300 118 243 151 q 433 85 357 85 q 537 97 489 85 q 613 118 585 108 l 625 26 q 530 -2 590 11 q 411 -15 469 -15 z "},"ć":{"ha":668,"x_min":54,"x_max":625,"o":"m 411 -15 q 222 30 301 -15 q 98 159 142 75 q 54 360 54 243 q 98 557 54 472 q 223 689 142 642 q 419 736 304 736 q 521 726 468 736 q 615 697 574 717 l 600 604 q 520 629 567 619 q 425 639 474 639 q 291 603 346 639 q 208 506 236 568 q 181 363 181 443 q 212 214 181 276 q 300 118 243 151 q 433 85 357 85 q 537 97 489 85 q 613 118 585 108 l 625 26 q 530 -2 590 11 q 411 -15 469 -15 m 360 810 l 476 1007 l 586 1007 l 442 810 l 360 810 z "},"č":{"ha":668,"x_min":54,"x_max":625,"o":"m 411 -15 q 222 30 301 -15 q 98 159 142 75 q 54 360 54 243 q 98 557 54 472 q 223 689 142 642 q 419 736 304 736 q 521 726 468 736 q 615 697 574 717 l 600 604 q 520 629 567 619 q 425 639 474 639 q 291 603 346 639 q 208 506 236 568 q 181 363 181 443 q 212 214 181 276 q 300 118 243 151 q 433 85 357 85 q 537 97 489 85 q 613 118 585 108 l 625 26 q 530 -2 590 11 q 411 -15 469 -15 m 339 810 l 192 1008 l 292 1008 l 400 851 l 513 1008 l 613 1008 l 461 810 l 339 810 z "},"ç":{"ha":668,"x_min":54,"x_max":625,"o":"m 411 -15 q 222 30 301 -15 q 98 159 142 75 q 54 360 54 243 q 98 557 54 472 q 223 689 142 642 q 419 736 304 736 q 521 726 468 736 q 615 697 574 717 l 600 604 q 520 629 567 619 q 425 639 474 639 q 291 603 346 639 q 208 506 236 568 q 181 363 181 443 q 212 214 181 276 q 300 118 243 151 q 433 85 357 85 q 537 97 489 85 q 613 118 585 108 l 625 26 q 530 -2 590 11 q 411 -15 469 -15 m 367 -328 q 301 -322 335 -328 q 236 -308 268 -317 l 257 -264 q 313 -274 285 -271 q 365 -278 340 -278 q 461 -254 428 -278 q 494 -193 494 -231 q 472 -146 494 -161 q 412 -131 449 -131 q 333 -146 375 -131 l 308 -119 l 365 0 l 419 0 l 371 -100 q 467 -94 424 -87 q 535 -126 510 -101 q 561 -192 561 -150 q 508 -291 561 -254 q 367 -328 454 -328 z "},"ḉ":{"ha":668,"x_min":54,"x_max":625,"o":"m 411 -15 q 222 30 301 -15 q 98 159 142 75 q 54 360 54 243 q 98 557 54 472 q 223 689 142 642 q 419 736 304 736 q 521 726 468 736 q 615 697 574 717 l 600 604 q 520 629 567 619 q 425 639 474 639 q 291 603 346 639 q 208 506 236 568 q 181 363 181 443 q 212 214 181 276 q 300 118 243 151 q 433 85 357 85 q 537 97 489 85 q 613 118 585 108 l 625 26 q 530 -2 590 11 q 411 -15 469 -15 m 367 -328 q 301 -322 335 -328 q 236 -308 268 -317 l 257 -264 q 313 -274 285 -271 q 365 -278 340 -278 q 461 -254 428 -278 q 494 -193 494 -231 q 472 -146 494 -161 q 412 -131 449 -131 q 333 -146 375 -131 l 308 -119 l 365 0 l 419 0 l 371 -100 q 467 -94 424 -87 q 535 -126 510 -101 q 561 -192 561 -150 q 508 -291 561 -254 q 367 -328 454 -328 m 360 810 l 476 1007 l 586 1007 l 442 810 l 360 810 z "},"ĉ":{"ha":668,"x_min":54,"x_max":625,"o":"m 411 -15 q 222 30 301 -15 q 98 159 142 75 q 54 360 54 243 q 98 557 54 472 q 223 689 142 642 q 419 736 304 736 q 521 726 468 736 q 615 697 574 717 l 600 604 q 520 629 567 619 q 425 639 474 639 q 291 603 346 639 q 208 506 236 568 q 181 363 181 443 q 212 214 181 276 q 300 118 243 151 q 433 85 357 85 q 537 97 489 85 q 613 118 585 108 l 625 26 q 530 -2 590 11 q 411 -15 469 -15 m 189 810 l 338 1008 l 460 1008 l 613 810 l 513 810 l 400 967 l 288 810 l 189 810 z "},"ċ":{"ha":668,"x_min":54,"x_max":625,"o":"m 411 -15 q 222 30 301 -15 q 98 159 142 75 q 54 360 54 243 q 98 557 54 472 q 223 689 142 642 q 419 736 304 736 q 521 726 468 736 q 615 697 574 717 l 600 604 q 520 629 567 619 q 425 639 474 639 q 291 603 346 639 q 208 506 236 568 q 181 363 181 443 q 212 214 181 276 q 300 118 243 151 q 433 85 357 85 q 537 97 489 85 q 613 118 585 108 l 625 26 q 530 -2 590 11 q 411 -15 469 -15 m 400 842 q 351 860 371 842 q 332 907 332 879 q 351 954 332 935 q 400 974 371 974 q 449 954 429 974 q 468 907 468 935 q 449 860 468 879 q 400 842 429 842 z "},"d":{"ha":781,"x_min":54,"x_max":686,"o":"m 343 -15 q 192 31 257 -15 q 91 162 128 78 q 54 354 54 246 q 92 553 54 468 q 197 688 129 639 q 354 738 265 738 q 471 712 418 738 q 556 651 524 686 l 558 651 l 558 1039 l 682 1043 l 682 183 q 683 124 682 157 q 684 58 683 90 q 686 0 685 26 l 596 0 l 569 104 l 567 104 q 476 19 532 54 q 343 -15 419 -15 m 378 85 q 494 124 447 85 q 558 214 542 164 l 558 560 q 484 615 528 593 q 389 638 440 638 q 276 599 322 638 q 205 497 229 561 q 181 356 181 433 q 204 217 181 279 q 272 120 228 156 q 378 85 317 85 z "},"ð":{"ha":751,"x_min":56,"x_max":693,"o":"m 371 -14 q 208 27 279 -14 q 96 142 136 68 q 56 315 56 217 q 97 492 56 419 q 205 602 138 564 q 350 640 272 640 q 455 621 407 640 q 540 554 503 601 l 543 557 q 455 726 514 651 q 317 856 396 801 q 147 942 238 910 l 185 1024 q 390 923 297 986 q 551 775 483 860 q 656 587 619 690 q 693 368 693 483 q 649 156 693 240 q 533 28 606 71 q 371 -14 460 -14 m 374 79 q 517 153 467 79 q 567 346 567 226 q 544 456 567 408 q 478 530 521 503 q 376 557 436 557 q 267 520 310 557 q 203 428 224 483 q 183 317 183 374 q 206 197 183 250 q 272 111 229 143 q 374 79 315 79 m 201 699 l 163 760 l 565 1007 l 606 947 l 201 699 z "},"ď":{"ha":1097,"x_min":54,"x_max":1003,"o":"m 343 -15 q 192 31 257 -15 q 91 162 128 78 q 54 354 54 246 q 92 553 54 468 q 197 688 129 639 q 354 738 265 738 q 471 712 418 738 q 556 651 524 686 l 558 651 l 558 1039 l 682 1043 l 682 183 q 683 124 682 157 q 684 58 683 90 q 686 0 685 26 l 596 0 l 569 104 l 567 104 q 476 19 532 54 q 343 -15 419 -15 m 378 85 q 494 124 447 85 q 558 214 542 164 l 558 560 q 484 615 528 593 q 389 638 440 638 q 276 599 322 638 q 205 497 229 561 q 181 356 181 433 q 204 217 181 279 q 272 120 228 156 q 378 85 317 85 m 903 690 l 813 703 l 875 1051 l 1003 1051 l 903 690 z "},"ḓ":{"ha":781,"x_min":54,"x_max":686,"o":"m 343 -15 q 192 31 257 -15 q 91 162 128 78 q 54 354 54 246 q 92 553 54 468 q 197 688 129 639 q 354 738 265 738 q 471 712 418 738 q 556 651 524 686 l 558 651 l 558 1039 l 682 1043 l 682 183 q 683 124 682 157 q 684 58 683 90 q 686 0 685 26 l 596 0 l 569 104 l 567 104 q 476 19 532 54 q 343 -15 419 -15 m 378 85 q 494 124 447 85 q 558 214 542 164 l 558 560 q 484 615 528 593 q 389 638 440 638 q 276 599 322 638 q 205 497 229 561 q 181 356 181 433 q 204 217 181 279 q 272 120 228 156 q 378 85 317 85 m 204 -257 l 353 -58 l 475 -58 l 628 -257 l 528 -257 l 415 -100 l 303 -257 l 204 -257 z "},"đ":{"ha":774,"x_min":54,"x_max":785,"o":"m 343 -15 q 192 31 257 -15 q 91 162 128 78 q 54 354 54 246 q 92 553 54 468 q 197 688 129 639 q 354 738 265 738 q 471 712 418 738 q 556 651 524 686 l 558 651 l 558 1039 l 682 1043 l 682 183 q 683 124 682 157 q 684 58 683 90 q 686 0 685 26 l 596 0 l 569 104 l 567 104 q 476 19 532 54 q 343 -15 419 -15 m 378 85 q 494 124 447 85 q 558 214 542 164 l 558 560 q 484 615 528 593 q 389 638 440 638 q 276 599 322 638 q 205 497 229 561 q 181 356 181 433 q 204 217 181 279 q 272 120 228 156 q 378 85 317 85 m 296 822 l 301 900 l 785 900 l 778 822 l 296 822 z "},"e":{"ha":722,"x_min":54,"x_max":671,"o":"m 407 -15 q 210 33 289 -15 q 93 165 132 81 q 54 358 54 249 q 76 507 54 439 q 141 627 99 575 q 244 708 183 679 q 385 738 306 738 q 524 708 467 738 q 614 624 581 678 q 659 499 647 571 q 661 340 671 426 l 124 340 l 186 388 q 192 228 171 297 q 272 120 214 160 q 422 81 329 81 q 534 93 482 81 q 619 118 586 106 l 635 31 q 532 -1 593 13 q 407 -15 471 -15 m 125 413 l 551 413 q 553 425 553 419 q 553 435 553 431 q 533 548 553 500 q 476 622 514 596 q 381 649 439 649 q 266 610 313 649 q 197 510 219 572 q 179 378 175 447 l 125 413 z "},"é":{"ha":722,"x_min":54,"x_max":671,"o":"m 407 -15 q 210 33 289 -15 q 93 165 132 81 q 54 358 54 249 q 76 507 54 439 q 141 627 99 575 q 244 708 183 679 q 385 738 306 738 q 524 708 467 738 q 614 624 581 678 q 659 499 647 571 q 661 340 671 426 l 124 340 l 186 388 q 192 228 171 297 q 272 120 214 160 q 422 81 329 81 q 534 93 482 81 q 619 118 586 106 l 635 31 q 532 -1 593 13 q 407 -15 471 -15 m 125 413 l 551 413 q 553 425 553 419 q 553 435 553 431 q 533 548 553 500 q 476 622 514 596 q 381 649 439 649 q 266 610 313 649 q 197 510 219 572 q 179 378 175 447 l 125 413 m 342 810 l 458 1007 l 568 1007 l 424 810 l 342 810 z "},"ĕ":{"ha":722,"x_min":54,"x_max":671,"o":"m 407 -15 q 210 33 289 -15 q 93 165 132 81 q 54 358 54 249 q 76 507 54 439 q 141 627 99 575 q 244 708 183 679 q 385 738 306 738 q 524 708 467 738 q 614 624 581 678 q 659 499 647 571 q 661 340 671 426 l 124 340 l 186 388 q 192 228 171 297 q 272 120 214 160 q 422 81 329 81 q 534 93 482 81 q 619 118 586 106 l 635 31 q 532 -1 593 13 q 407 -15 471 -15 m 125 413 l 551 413 q 553 425 553 419 q 553 435 553 431 q 533 548 553 500 q 476 622 514 596 q 381 649 439 649 q 266 610 313 649 q 197 510 219 572 q 179 378 175 447 l 125 413 m 382 808 q 285 830 329 808 q 217 894 242 851 q 196 999 193 938 l 254 999 q 288 903 251 938 q 382 868 325 868 q 476 903 439 868 q 510 999 513 938 l 568 999 q 546 894 571 938 q 478 830 521 851 q 382 808 435 808 z "},"ě":{"ha":722,"x_min":54,"x_max":671,"o":"m 407 -15 q 210 33 289 -15 q 93 165 132 81 q 54 358 54 249 q 76 507 54 439 q 141 627 99 575 q 244 708 183 679 q 385 738 306 738 q 524 708 467 738 q 614 624 581 678 q 659 499 647 571 q 661 340 671 426 l 124 340 l 186 388 q 192 228 171 297 q 272 120 214 160 q 422 81 329 81 q 534 93 482 81 q 619 118 586 106 l 635 31 q 532 -1 593 13 q 407 -15 471 -15 m 125 413 l 551 413 q 553 425 553 419 q 553 435 553 431 q 533 548 553 500 q 476 622 514 596 q 381 649 439 649 q 266 610 313 649 q 197 510 219 572 q 179 378 175 447 l 125 413 m 321 810 l 174 1008 l 274 1008 l 382 851 l 494 1008 l 594 1008 l 443 810 l 321 810 z "},"ȩ":{"ha":722,"x_min":54,"x_max":671,"o":"m 407 -15 q 210 33 289 -15 q 93 165 132 81 q 54 358 54 249 q 76 507 54 439 q 141 627 99 575 q 244 708 183 679 q 385 738 306 738 q 524 708 467 738 q 614 624 581 678 q 659 499 647 571 q 661 340 671 426 l 124 340 l 186 388 q 192 228 171 297 q 272 120 214 160 q 422 81 329 81 q 534 93 482 81 q 619 118 586 106 l 635 31 q 532 -1 593 13 q 407 -15 471 -15 m 125 413 l 551 413 q 553 425 553 419 q 553 435 553 431 q 533 548 553 500 q 476 622 514 596 q 381 649 439 649 q 266 610 313 649 q 197 510 219 572 q 179 378 175 447 l 125 413 m 364 -328 q 299 -322 332 -328 q 233 -308 265 -317 l 254 -264 q 310 -274 282 -271 q 363 -278 338 -278 q 458 -254 425 -278 q 492 -193 492 -231 q 469 -146 492 -161 q 409 -131 446 -131 q 331 -146 372 -131 l 306 -119 l 363 0 l 417 0 l 368 -100 q 464 -94 421 -87 q 533 -126 507 -101 q 558 -192 558 -150 q 505 -291 558 -254 q 364 -328 451 -328 z "},"ḝ":{"ha":722,"x_min":54,"x_max":671,"o":"m 407 -15 q 210 33 289 -15 q 93 165 132 81 q 54 358 54 249 q 76 507 54 439 q 141 627 99 575 q 244 708 183 679 q 385 738 306 738 q 524 708 467 738 q 614 624 581 678 q 659 499 647 571 q 661 340 671 426 l 124 340 l 186 388 q 192 228 171 297 q 272 120 214 160 q 422 81 329 81 q 534 93 482 81 q 619 118 586 106 l 635 31 q 532 -1 593 13 q 407 -15 471 -15 m 125 413 l 551 413 q 553 425 553 419 q 553 435 553 431 q 533 548 553 500 q 476 622 514 596 q 381 649 439 649 q 266 610 313 649 q 197 510 219 572 q 179 378 175 447 l 125 413 m 364 -328 q 299 -322 332 -328 q 233 -308 265 -317 l 254 -264 q 310 -274 282 -271 q 363 -278 338 -278 q 458 -254 425 -278 q 492 -193 492 -231 q 469 -146 492 -161 q 409 -131 446 -131 q 331 -146 372 -131 l 306 -119 l 363 0 l 417 0 l 368 -100 q 464 -94 421 -87 q 533 -126 507 -101 q 558 -192 558 -150 q 505 -291 558 -254 q 364 -328 451 -328 m 382 808 q 285 830 329 808 q 217 894 242 851 q 196 999 193 938 l 254 999 q 288 903 251 938 q 382 868 325 868 q 476 903 439 868 q 510 999 513 938 l 568 999 q 546 894 571 938 q 478 830 521 851 q 382 808 435 808 z "},"ê":{"ha":722,"x_min":54,"x_max":671,"o":"m 407 -15 q 210 33 289 -15 q 93 165 132 81 q 54 358 54 249 q 76 507 54 439 q 141 627 99 575 q 244 708 183 679 q 385 738 306 738 q 524 708 467 738 q 614 624 581 678 q 659 499 647 571 q 661 340 671 426 l 124 340 l 186 388 q 192 228 171 297 q 272 120 214 160 q 422 81 329 81 q 534 93 482 81 q 619 118 586 106 l 635 31 q 532 -1 593 13 q 407 -15 471 -15 m 125 413 l 551 413 q 553 425 553 419 q 553 435 553 431 q 533 548 553 500 q 476 622 514 596 q 381 649 439 649 q 266 610 313 649 q 197 510 219 572 q 179 378 175 447 l 125 413 m 171 810 l 319 1008 l 442 1008 l 594 810 l 494 810 l 382 967 l 269 810 l 171 810 z "},"ḙ":{"ha":722,"x_min":54,"x_max":671,"o":"m 407 -15 q 210 33 289 -15 q 93 165 132 81 q 54 358 54 249 q 76 507 54 439 q 141 627 99 575 q 244 708 183 679 q 385 738 306 738 q 524 708 467 738 q 614 624 581 678 q 659 499 647 571 q 661 340 671 426 l 124 340 l 186 388 q 192 228 171 297 q 272 120 214 160 q 422 81 329 81 q 534 93 482 81 q 619 118 586 106 l 635 31 q 532 -1 593 13 q 407 -15 471 -15 m 125 413 l 551 413 q 553 425 553 419 q 553 435 553 431 q 533 548 553 500 q 476 622 514 596 q 381 649 439 649 q 266 610 313 649 q 197 510 219 572 q 179 378 175 447 l 125 413 m 179 -257 l 328 -58 l 450 -58 l 603 -257 l 503 -257 l 390 -100 l 278 -257 l 179 -257 z "},"ệ":{"ha":722,"x_min":54,"x_max":671,"o":"m 407 -15 q 210 33 289 -15 q 93 165 132 81 q 54 358 54 249 q 76 507 54 439 q 141 627 99 575 q 244 708 183 679 q 385 738 306 738 q 524 708 467 738 q 614 624 581 678 q 659 499 647 571 q 661 340 671 426 l 124 340 l 186 388 q 192 228 171 297 q 272 120 214 160 q 422 81 329 81 q 534 93 482 81 q 619 118 586 106 l 635 31 q 532 -1 593 13 q 407 -15 471 -15 m 125 413 l 551 413 q 553 425 553 419 q 553 435 553 431 q 533 548 553 500 q 476 622 514 596 q 381 649 439 649 q 266 610 313 649 q 197 510 219 572 q 179 378 175 447 l 125 413 m 390 -199 q 342 -180 361 -199 q 322 -133 322 -161 q 342 -86 322 -106 q 390 -67 361 -67 q 439 -86 419 -67 q 458 -133 458 -106 q 439 -180 458 -161 q 390 -199 419 -199 m 171 810 l 319 1008 l 442 1008 l 594 810 l 494 810 l 382 967 l 269 810 l 171 810 z "},"ë":{"ha":722,"x_min":54,"x_max":671,"o":"m 407 -15 q 210 33 289 -15 q 93 165 132 81 q 54 358 54 249 q 76 507 54 439 q 141 627 99 575 q 244 708 183 679 q 385 738 306 738 q 524 708 467 738 q 614 624 581 678 q 659 499 647 571 q 661 340 671 426 l 124 340 l 186 388 q 192 228 171 297 q 272 120 214 160 q 422 81 329 81 q 534 93 482 81 q 619 118 586 106 l 635 31 q 532 -1 593 13 q 407 -15 471 -15 m 125 413 l 551 413 q 553 425 553 419 q 553 435 553 431 q 533 548 553 500 q 476 622 514 596 q 381 649 439 649 q 266 610 313 649 q 197 510 219 572 q 179 378 175 447 l 125 413 m 256 842 q 207 860 226 842 q 188 907 188 879 q 207 954 188 935 q 256 974 226 974 q 304 954 285 974 q 324 907 324 935 q 304 860 324 879 q 256 842 285 842 m 507 842 q 458 860 478 842 q 439 907 439 879 q 458 954 439 935 q 507 974 478 974 q 556 954 536 974 q 575 907 575 935 q 556 860 575 879 q 507 842 536 842 z "},"ė":{"ha":722,"x_min":54,"x_max":671,"o":"m 407 -15 q 210 33 289 -15 q 93 165 132 81 q 54 358 54 249 q 76 507 54 439 q 141 627 99 575 q 244 708 183 679 q 385 738 306 738 q 524 708 467 738 q 614 624 581 678 q 659 499 647 571 q 661 340 671 426 l 124 340 l 186 388 q 192 228 171 297 q 272 120 214 160 q 422 81 329 81 q 534 93 482 81 q 619 118 586 106 l 635 31 q 532 -1 593 13 q 407 -15 471 -15 m 125 413 l 551 413 q 553 425 553 419 q 553 435 553 431 q 533 548 553 500 q 476 622 514 596 q 381 649 439 649 q 266 610 313 649 q 197 510 219 572 q 179 378 175 447 l 125 413 m 382 842 q 333 860 353 842 q 314 907 314 879 q 333 954 314 935 q 382 974 353 974 q 431 954 411 974 q 450 907 450 935 q 431 860 450 879 q 382 842 411 842 z "},"ẹ":{"ha":722,"x_min":54,"x_max":671,"o":"m 407 -15 q 210 33 289 -15 q 93 165 132 81 q 54 358 54 249 q 76 507 54 439 q 141 627 99 575 q 244 708 183 679 q 385 738 306 738 q 524 708 467 738 q 614 624 581 678 q 659 499 647 571 q 661 340 671 426 l 124 340 l 186 388 q 192 228 171 297 q 272 120 214 160 q 422 81 329 81 q 534 93 482 81 q 619 118 586 106 l 635 31 q 532 -1 593 13 q 407 -15 471 -15 m 125 413 l 551 413 q 553 425 553 419 q 553 435 553 431 q 533 548 553 500 q 476 622 514 596 q 381 649 439 649 q 266 610 313 649 q 197 510 219 572 q 179 378 175 447 l 125 413 m 390 -199 q 342 -180 361 -199 q 322 -133 322 -161 q 342 -86 322 -106 q 390 -67 361 -67 q 439 -86 419 -67 q 458 -133 458 -106 q 439 -180 458 -161 q 390 -199 419 -199 z "},"è":{"ha":722,"x_min":54,"x_max":671,"o":"m 407 -15 q 210 33 289 -15 q 93 165 132 81 q 54 358 54 249 q 76 507 54 439 q 141 627 99 575 q 244 708 183 679 q 385 738 306 738 q 524 708 467 738 q 614 624 581 678 q 659 499 647 571 q 661 340 671 426 l 124 340 l 186 388 q 192 228 171 297 q 272 120 214 160 q 422 81 329 81 q 534 93 482 81 q 619 118 586 106 l 635 31 q 532 -1 593 13 q 407 -15 471 -15 m 125 413 l 551 413 q 553 425 553 419 q 553 435 553 431 q 533 548 553 500 q 476 622 514 596 q 381 649 439 649 q 266 610 313 649 q 197 510 219 572 q 179 378 175 447 l 125 413 m 339 810 l 196 1007 l 304 1007 l 421 810 l 339 810 z "},"ē":{"ha":722,"x_min":54,"x_max":671,"o":"m 407 -15 q 210 33 289 -15 q 93 165 132 81 q 54 358 54 249 q 76 507 54 439 q 141 627 99 575 q 244 708 183 679 q 385 738 306 738 q 524 708 467 738 q 614 624 581 678 q 659 499 647 571 q 661 340 671 426 l 124 340 l 186 388 q 192 228 171 297 q 272 120 214 160 q 422 81 329 81 q 534 93 482 81 q 619 118 586 106 l 635 31 q 532 -1 593 13 q 407 -15 471 -15 m 125 413 l 551 413 q 553 425 553 419 q 553 435 553 431 q 533 548 553 500 q 476 622 514 596 q 381 649 439 649 q 266 610 313 649 q 197 510 219 572 q 179 378 175 447 l 125 413 m 196 857 l 196 926 l 569 926 l 569 857 l 196 857 z "},"ę":{"ha":722,"x_min":54,"x_max":671,"o":"m 407 -15 q 210 33 289 -15 q 93 165 132 81 q 54 358 54 249 q 76 507 54 439 q 141 627 99 575 q 244 708 183 679 q 385 738 306 738 q 524 708 467 738 q 614 624 581 678 q 659 499 647 571 q 661 340 671 426 l 124 340 l 186 388 q 192 228 171 297 q 272 120 214 160 q 422 81 329 81 q 534 93 482 81 q 619 118 586 106 l 635 31 q 532 -1 593 13 q 407 -15 471 -15 m 125 413 l 551 413 q 553 425 553 419 q 553 435 553 431 q 533 548 553 500 q 476 622 514 596 q 381 649 439 649 q 266 610 313 649 q 197 510 219 572 q 179 378 175 447 l 125 413 m 496 -279 q 401 -244 432 -279 q 371 -168 371 -210 q 424 -54 371 -110 q 567 22 476 1 l 597 15 q 478 -59 522 -11 q 435 -157 435 -107 q 457 -213 435 -192 q 521 -235 479 -235 q 561 -231 539 -235 q 608 -219 583 -226 l 608 -257 q 548 -274 576 -268 q 496 -279 519 -279 z "},"ẽ":{"ha":722,"x_min":54,"x_max":671,"o":"m 407 -15 q 210 33 289 -15 q 93 165 132 81 q 54 358 54 249 q 76 507 54 439 q 141 627 99 575 q 244 708 183 679 q 385 738 306 738 q 524 708 467 738 q 614 624 581 678 q 659 499 647 571 q 661 340 671 426 l 124 340 l 186 388 q 192 228 171 297 q 272 120 214 160 q 422 81 329 81 q 534 93 482 81 q 619 118 586 106 l 635 31 q 532 -1 593 13 q 407 -15 471 -15 m 125 413 l 551 413 q 553 425 553 419 q 553 435 553 431 q 533 548 553 500 q 476 622 514 596 q 381 649 439 649 q 266 610 313 649 q 197 510 219 572 q 179 378 175 447 l 125 413 m 547 979 l 611 963 q 557 865 592 899 q 478 832 522 832 q 422 846 449 832 q 370 878 394 860 q 325 910 346 897 q 286 924 304 924 q 248 905 265 924 q 217 844 231 886 l 153 860 q 206 956 171 922 q 286 990 242 990 q 342 976 315 990 q 392 944 368 963 q 438 913 417 926 q 478 899 458 899 q 515 918 497 899 q 547 979 532 938 z "},"ḛ":{"ha":722,"x_min":54,"x_max":671,"o":"m 407 -15 q 210 33 289 -15 q 93 165 132 81 q 54 358 54 249 q 76 507 54 439 q 141 627 99 575 q 244 708 183 679 q 385 738 306 738 q 524 708 467 738 q 614 624 581 678 q 659 499 647 571 q 661 340 671 426 l 124 340 l 186 388 q 192 228 171 297 q 272 120 214 160 q 422 81 329 81 q 534 93 482 81 q 619 118 586 106 l 635 31 q 532 -1 593 13 q 407 -15 471 -15 m 125 413 l 551 413 q 553 425 553 419 q 553 435 553 431 q 533 548 553 500 q 476 622 514 596 q 381 649 439 649 q 266 610 313 649 q 197 510 219 572 q 179 378 175 447 l 125 413 m 549 -62 l 611 -79 q 558 -176 593 -143 q 478 -210 524 -210 q 422 -196 449 -210 q 372 -164 396 -182 q 326 -132 347 -146 q 286 -118 306 -118 q 249 -137 267 -118 q 217 -199 232 -157 l 154 -183 q 206 -86 171 -119 q 286 -53 242 -53 q 342 -66 315 -53 q 392 -97 368 -79 q 438 -129 417 -115 q 478 -143 460 -143 q 516 -124 499 -143 q 549 -62 533 -104 z "},"f":{"ha":440,"x_min":26,"x_max":465,"o":"m 125 631 l 26 631 l 32 717 l 125 722 l 125 757 q 187 977 125 900 q 368 1054 249 1054 q 421 1051 396 1054 q 465 1040 446 1047 l 454 944 q 424 951 440 950 q 392 953 408 953 q 302 925 333 953 q 259 853 271 897 q 247 758 247 810 l 247 722 l 422 722 l 415 631 l 249 631 l 249 0 l 125 0 l 125 631 z "},"g":{"ha":751,"x_min":17,"x_max":725,"o":"m 360 194 q 210 229 275 194 q 110 325 146 264 q 74 465 74 386 q 110 607 74 546 q 210 703 146 668 q 360 738 275 738 q 509 703 444 738 q 610 607 574 668 q 646 465 646 546 q 610 325 646 386 q 511 229 575 264 q 360 194 447 194 m 360 276 q 452 302 415 276 q 507 371 489 328 q 525 465 525 414 q 507 562 525 519 q 452 630 489 604 q 360 656 415 656 q 267 630 304 656 q 213 562 231 604 q 194 465 194 519 q 213 371 194 414 q 267 302 231 328 q 360 276 304 276 m 349 -326 q 227 -317 286 -326 q 120 -284 168 -307 q 44 -224 72 -261 q 17 -133 17 -187 q 46 -34 17 -75 q 125 38 75 7 l 125 39 q 92 72 103 53 q 81 117 81 90 q 110 195 81 157 q 176 264 139 233 l 229 239 q 188 192 204 217 q 172 142 172 168 q 194 103 172 115 q 258 88 215 90 l 450 78 q 531 70 485 76 q 619 47 576 64 q 692 -3 663 31 q 721 -97 721 -37 q 683 -207 721 -154 q 563 -293 644 -260 q 349 -326 481 -326 m 360 -232 q 505 -215 450 -232 q 585 -168 560 -197 q 610 -107 610 -139 q 592 -56 610 -75 q 548 -27 575 -37 q 491 -13 521 -17 q 435 -8 461 -10 l 256 3 q 208 8 225 6 q 178 18 190 11 l 193 17 q 139 -34 161 -1 q 117 -103 117 -67 q 138 -166 117 -140 q 192 -206 158 -192 q 269 -226 226 -221 q 360 -232 313 -232 m 442 722 l 725 722 l 725 653 l 547 653 l 442 722 z "},"ǵ":{"ha":751,"x_min":17,"x_max":725,"o":"m 360 194 q 210 229 275 194 q 110 325 146 264 q 74 465 74 386 q 110 607 74 546 q 210 703 146 668 q 360 738 275 738 q 509 703 444 738 q 610 607 574 668 q 646 465 646 546 q 610 325 646 386 q 511 229 575 264 q 360 194 447 194 m 360 276 q 452 302 415 276 q 507 371 489 328 q 525 465 525 414 q 507 562 525 519 q 452 630 489 604 q 360 656 415 656 q 267 630 304 656 q 213 562 231 604 q 194 465 194 519 q 213 371 194 414 q 267 302 231 328 q 360 276 304 276 m 349 -326 q 227 -317 286 -326 q 120 -284 168 -307 q 44 -224 72 -261 q 17 -133 17 -187 q 46 -34 17 -75 q 125 38 75 7 l 125 39 q 92 72 103 53 q 81 117 81 90 q 110 195 81 157 q 176 264 139 233 l 229 239 q 188 192 204 217 q 172 142 172 168 q 194 103 172 115 q 258 88 215 90 l 450 78 q 531 70 485 76 q 619 47 576 64 q 692 -3 663 31 q 721 -97 721 -37 q 683 -207 721 -154 q 563 -293 644 -260 q 349 -326 481 -326 m 360 -232 q 505 -215 450 -232 q 585 -168 560 -197 q 610 -107 610 -139 q 592 -56 610 -75 q 548 -27 575 -37 q 491 -13 521 -17 q 435 -8 461 -10 l 256 3 q 208 8 225 6 q 178 18 190 11 l 193 17 q 139 -34 161 -1 q 117 -103 117 -67 q 138 -166 117 -140 q 192 -206 158 -192 q 269 -226 226 -221 q 360 -232 313 -232 m 442 722 l 725 722 l 725 653 l 547 653 l 442 722 m 319 810 l 436 1007 l 546 1007 l 401 810 l 319 810 z "},"ğ":{"ha":751,"x_min":17,"x_max":725,"o":"m 360 194 q 210 229 275 194 q 110 325 146 264 q 74 465 74 386 q 110 607 74 546 q 210 703 146 668 q 360 738 275 738 q 509 703 444 738 q 610 607 574 668 q 646 465 646 546 q 610 325 646 386 q 511 229 575 264 q 360 194 447 194 m 360 276 q 452 302 415 276 q 507 371 489 328 q 525 465 525 414 q 507 562 525 519 q 452 630 489 604 q 360 656 415 656 q 267 630 304 656 q 213 562 231 604 q 194 465 194 519 q 213 371 194 414 q 267 302 231 328 q 360 276 304 276 m 349 -326 q 227 -317 286 -326 q 120 -284 168 -307 q 44 -224 72 -261 q 17 -133 17 -187 q 46 -34 17 -75 q 125 38 75 7 l 125 39 q 92 72 103 53 q 81 117 81 90 q 110 195 81 157 q 176 264 139 233 l 229 239 q 188 192 204 217 q 172 142 172 168 q 194 103 172 115 q 258 88 215 90 l 450 78 q 531 70 485 76 q 619 47 576 64 q 692 -3 663 31 q 721 -97 721 -37 q 683 -207 721 -154 q 563 -293 644 -260 q 349 -326 481 -326 m 360 -232 q 505 -215 450 -232 q 585 -168 560 -197 q 610 -107 610 -139 q 592 -56 610 -75 q 548 -27 575 -37 q 491 -13 521 -17 q 435 -8 461 -10 l 256 3 q 208 8 225 6 q 178 18 190 11 l 193 17 q 139 -34 161 -1 q 117 -103 117 -67 q 138 -166 117 -140 q 192 -206 158 -192 q 269 -226 226 -221 q 360 -232 313 -232 m 442 722 l 725 722 l 725 653 l 547 653 l 442 722 m 360 808 q 263 830 307 808 q 195 894 219 851 q 174 999 171 938 l 232 999 q 266 903 229 938 q 360 868 303 868 q 453 903 417 868 q 488 999 490 938 l 546 999 q 524 894 549 938 q 456 830 499 851 q 360 808 413 808 z "},"ǧ":{"ha":751,"x_min":17,"x_max":725,"o":"m 360 194 q 210 229 275 194 q 110 325 146 264 q 74 465 74 386 q 110 607 74 546 q 210 703 146 668 q 360 738 275 738 q 509 703 444 738 q 610 607 574 668 q 646 465 646 546 q 610 325 646 386 q 511 229 575 264 q 360 194 447 194 m 360 276 q 452 302 415 276 q 507 371 489 328 q 525 465 525 414 q 507 562 525 519 q 452 630 489 604 q 360 656 415 656 q 267 630 304 656 q 213 562 231 604 q 194 465 194 519 q 213 371 194 414 q 267 302 231 328 q 360 276 304 276 m 349 -326 q 227 -317 286 -326 q 120 -284 168 -307 q 44 -224 72 -261 q 17 -133 17 -187 q 46 -34 17 -75 q 125 38 75 7 l 125 39 q 92 72 103 53 q 81 117 81 90 q 110 195 81 157 q 176 264 139 233 l 229 239 q 188 192 204 217 q 172 142 172 168 q 194 103 172 115 q 258 88 215 90 l 450 78 q 531 70 485 76 q 619 47 576 64 q 692 -3 663 31 q 721 -97 721 -37 q 683 -207 721 -154 q 563 -293 644 -260 q 349 -326 481 -326 m 360 -232 q 505 -215 450 -232 q 585 -168 560 -197 q 610 -107 610 -139 q 592 -56 610 -75 q 548 -27 575 -37 q 491 -13 521 -17 q 435 -8 461 -10 l 256 3 q 208 8 225 6 q 178 18 190 11 l 193 17 q 139 -34 161 -1 q 117 -103 117 -67 q 138 -166 117 -140 q 192 -206 158 -192 q 269 -226 226 -221 q 360 -232 313 -232 m 442 722 l 725 722 l 725 653 l 547 653 l 442 722 m 299 810 l 151 1008 l 251 1008 l 360 851 l 472 1008 l 572 1008 l 421 810 l 299 810 z "},"ĝ":{"ha":751,"x_min":17,"x_max":725,"o":"m 360 194 q 210 229 275 194 q 110 325 146 264 q 74 465 74 386 q 110 607 74 546 q 210 703 146 668 q 360 738 275 738 q 509 703 444 738 q 610 607 574 668 q 646 465 646 546 q 610 325 646 386 q 511 229 575 264 q 360 194 447 194 m 360 276 q 452 302 415 276 q 507 371 489 328 q 525 465 525 414 q 507 562 525 519 q 452 630 489 604 q 360 656 415 656 q 267 630 304 656 q 213 562 231 604 q 194 465 194 519 q 213 371 194 414 q 267 302 231 328 q 360 276 304 276 m 349 -326 q 227 -317 286 -326 q 120 -284 168 -307 q 44 -224 72 -261 q 17 -133 17 -187 q 46 -34 17 -75 q 125 38 75 7 l 125 39 q 92 72 103 53 q 81 117 81 90 q 110 195 81 157 q 176 264 139 233 l 229 239 q 188 192 204 217 q 172 142 172 168 q 194 103 172 115 q 258 88 215 90 l 450 78 q 531 70 485 76 q 619 47 576 64 q 692 -3 663 31 q 721 -97 721 -37 q 683 -207 721 -154 q 563 -293 644 -260 q 349 -326 481 -326 m 360 -232 q 505 -215 450 -232 q 585 -168 560 -197 q 610 -107 610 -139 q 592 -56 610 -75 q 548 -27 575 -37 q 491 -13 521 -17 q 435 -8 461 -10 l 256 3 q 208 8 225 6 q 178 18 190 11 l 193 17 q 139 -34 161 -1 q 117 -103 117 -67 q 138 -166 117 -140 q 192 -206 158 -192 q 269 -226 226 -221 q 360 -232 313 -232 m 442 722 l 725 722 l 725 653 l 547 653 l 442 722 m 149 810 l 297 1008 l 419 1008 l 572 810 l 472 810 l 360 967 l 247 810 l 149 810 z "},"ģ":{"ha":751,"x_min":17,"x_max":725,"o":"m 360 194 q 210 229 275 194 q 110 325 146 264 q 74 465 74 386 q 110 607 74 546 q 210 703 146 668 q 360 738 275 738 q 509 703 444 738 q 610 607 574 668 q 646 465 646 546 q 610 325 646 386 q 511 229 575 264 q 360 194 447 194 m 360 276 q 452 302 415 276 q 507 371 489 328 q 525 465 525 414 q 507 562 525 519 q 452 630 489 604 q 360 656 415 656 q 267 630 304 656 q 213 562 231 604 q 194 465 194 519 q 213 371 194 414 q 267 302 231 328 q 360 276 304 276 m 349 -326 q 227 -317 286 -326 q 120 -284 168 -307 q 44 -224 72 -261 q 17 -133 17 -187 q 46 -34 17 -75 q 125 38 75 7 l 125 39 q 92 72 103 53 q 81 117 81 90 q 110 195 81 157 q 176 264 139 233 l 229 239 q 188 192 204 217 q 172 142 172 168 q 194 103 172 115 q 258 88 215 90 l 450 78 q 531 70 485 76 q 619 47 576 64 q 692 -3 663 31 q 721 -97 721 -37 q 683 -207 721 -154 q 563 -293 644 -260 q 349 -326 481 -326 m 360 -232 q 505 -215 450 -232 q 585 -168 560 -197 q 610 -107 610 -139 q 592 -56 610 -75 q 548 -27 575 -37 q 491 -13 521 -17 q 435 -8 461 -10 l 256 3 q 208 8 225 6 q 178 18 190 11 l 193 17 q 139 -34 161 -1 q 117 -103 117 -67 q 138 -166 117 -140 q 192 -206 158 -192 q 269 -226 226 -221 q 360 -232 313 -232 m 442 722 l 725 722 l 725 653 l 547 653 l 442 722 m 400 810 l 319 810 l 357 1057 l 425 1057 l 400 810 z "},"ġ":{"ha":751,"x_min":17,"x_max":725,"o":"m 360 194 q 210 229 275 194 q 110 325 146 264 q 74 465 74 386 q 110 607 74 546 q 210 703 146 668 q 360 738 275 738 q 509 703 444 738 q 610 607 574 668 q 646 465 646 546 q 610 325 646 386 q 511 229 575 264 q 360 194 447 194 m 360 276 q 452 302 415 276 q 507 371 489 328 q 525 465 525 414 q 507 562 525 519 q 452 630 489 604 q 360 656 415 656 q 267 630 304 656 q 213 562 231 604 q 194 465 194 519 q 213 371 194 414 q 267 302 231 328 q 360 276 304 276 m 349 -326 q 227 -317 286 -326 q 120 -284 168 -307 q 44 -224 72 -261 q 17 -133 17 -187 q 46 -34 17 -75 q 125 38 75 7 l 125 39 q 92 72 103 53 q 81 117 81 90 q 110 195 81 157 q 176 264 139 233 l 229 239 q 188 192 204 217 q 172 142 172 168 q 194 103 172 115 q 258 88 215 90 l 450 78 q 531 70 485 76 q 619 47 576 64 q 692 -3 663 31 q 721 -97 721 -37 q 683 -207 721 -154 q 563 -293 644 -260 q 349 -326 481 -326 m 360 -232 q 505 -215 450 -232 q 585 -168 560 -197 q 610 -107 610 -139 q 592 -56 610 -75 q 548 -27 575 -37 q 491 -13 521 -17 q 435 -8 461 -10 l 256 3 q 208 8 225 6 q 178 18 190 11 l 193 17 q 139 -34 161 -1 q 117 -103 117 -67 q 138 -166 117 -140 q 192 -206 158 -192 q 269 -226 226 -221 q 360 -232 313 -232 m 442 722 l 725 722 l 725 653 l 547 653 l 442 722 m 360 842 q 311 860 331 842 q 292 907 292 879 q 311 954 292 935 q 360 974 331 974 q 408 954 389 974 q 428 907 428 935 q 408 860 428 879 q 360 842 389 842 z "},"ḡ":{"ha":751,"x_min":17,"x_max":725,"o":"m 360 194 q 210 229 275 194 q 110 325 146 264 q 74 465 74 386 q 110 607 74 546 q 210 703 146 668 q 360 738 275 738 q 509 703 444 738 q 610 607 574 668 q 646 465 646 546 q 610 325 646 386 q 511 229 575 264 q 360 194 447 194 m 360 276 q 452 302 415 276 q 507 371 489 328 q 525 465 525 414 q 507 562 525 519 q 452 630 489 604 q 360 656 415 656 q 267 630 304 656 q 213 562 231 604 q 194 465 194 519 q 213 371 194 414 q 267 302 231 328 q 360 276 304 276 m 349 -326 q 227 -317 286 -326 q 120 -284 168 -307 q 44 -224 72 -261 q 17 -133 17 -187 q 46 -34 17 -75 q 125 38 75 7 l 125 39 q 92 72 103 53 q 81 117 81 90 q 110 195 81 157 q 176 264 139 233 l 229 239 q 188 192 204 217 q 172 142 172 168 q 194 103 172 115 q 258 88 215 90 l 450 78 q 531 70 485 76 q 619 47 576 64 q 692 -3 663 31 q 721 -97 721 -37 q 683 -207 721 -154 q 563 -293 644 -260 q 349 -326 481 -326 m 360 -232 q 505 -215 450 -232 q 585 -168 560 -197 q 610 -107 610 -139 q 592 -56 610 -75 q 548 -27 575 -37 q 491 -13 521 -17 q 435 -8 461 -10 l 256 3 q 208 8 225 6 q 178 18 190 11 l 193 17 q 139 -34 161 -1 q 117 -103 117 -67 q 138 -166 117 -140 q 192 -206 158 -192 q 269 -226 226 -221 q 360 -232 313 -232 m 442 722 l 725 722 l 725 653 l 547 653 l 442 722 m 174 857 l 174 926 l 547 926 l 547 857 l 174 857 z "},"h":{"ha":796,"x_min":97,"x_max":700,"o":"m 97 1039 l 222 1043 l 222 619 l 225 619 q 290 676 254 649 q 369 720 325 703 q 467 738 414 738 q 555 721 513 738 q 630 669 597 704 q 681 578 663 635 q 700 443 700 522 l 700 0 l 575 0 l 575 438 q 562 531 575 493 q 526 592 549 569 q 476 626 504 615 q 419 636 449 636 q 339 619 376 636 q 273 578 301 603 q 222 532 244 554 l 222 0 l 99 0 l 97 1039 z "},"ħ":{"ha":792,"x_min":-12,"x_max":696,"o":"m 93 0 l 93 1039 l 218 1043 l 218 619 l 219 619 q 285 676 249 649 q 365 720 321 703 q 464 738 410 738 q 541 724 506 738 q 605 685 576 710 q 654 624 633 660 q 685 542 675 588 q 696 443 696 497 l 696 0 l 571 0 l 571 438 q 558 531 571 493 q 522 592 544 569 q 472 626 500 615 q 415 636 444 636 q 335 619 372 636 q 268 578 297 603 q 218 532 239 554 l 218 0 l 93 0 m -12 822 l -6 900 l 500 900 l 494 822 l -12 822 z "},"ȟ":{"ha":796,"x_min":-47,"x_max":700,"o":"m 97 1039 l 222 1043 l 222 619 l 225 619 q 290 676 254 649 q 369 720 325 703 q 467 738 414 738 q 555 721 513 738 q 630 669 597 704 q 681 578 663 635 q 700 443 700 522 l 700 0 l 575 0 l 575 438 q 562 531 575 493 q 526 592 549 569 q 476 626 504 615 q 419 636 449 636 q 339 619 376 636 q 273 578 301 603 q 222 532 244 554 l 222 0 l 99 0 l 97 1039 m 100 1100 l -49 1279 l 51 1279 l 160 1142 l 272 1279 l 372 1279 l 219 1100 l 100 1100 z "},"ĥ":{"ha":796,"x_min":-50,"x_max":700,"o":"m 97 1039 l 222 1043 l 222 619 l 225 619 q 290 676 254 649 q 369 720 325 703 q 467 738 414 738 q 555 721 513 738 q 630 669 597 704 q 681 578 663 635 q 700 443 700 522 l 700 0 l 575 0 l 575 438 q 562 531 575 493 q 526 592 549 569 q 476 626 504 615 q 419 636 449 636 q 339 619 376 636 q 273 578 301 603 q 222 532 244 554 l 222 0 l 99 0 l 97 1039 m -50 1100 l 99 1275 l 221 1275 l 374 1100 l 274 1100 l 161 1233 l 49 1100 l -50 1100 z "},"ḧ":{"ha":796,"x_min":-32,"x_max":700,"o":"m 97 1039 l 222 1043 l 222 619 l 225 619 q 290 676 254 649 q 369 720 325 703 q 467 738 414 738 q 555 721 513 738 q 630 669 597 704 q 681 578 663 635 q 700 443 700 522 l 700 0 l 575 0 l 575 438 q 562 531 575 493 q 526 592 549 569 q 476 626 504 615 q 419 636 449 636 q 339 619 376 636 q 273 578 301 603 q 222 532 244 554 l 222 0 l 99 0 l 97 1039 m 36 1115 q -12 1135 7 1115 q -32 1182 -32 1154 q -12 1228 -32 1210 q 36 1247 7 1247 q 85 1227 65 1247 q 104 1182 104 1207 q 85 1135 104 1154 q 36 1115 65 1115 m 288 1115 q 239 1135 258 1115 q 219 1182 219 1154 q 239 1228 219 1210 q 288 1247 258 1247 q 336 1228 317 1247 q 356 1182 356 1210 q 336 1135 356 1154 q 288 1115 317 1115 z "},"ḣ":{"ha":796,"x_min":93,"x_max":700,"o":"m 97 1039 l 222 1043 l 222 619 l 225 619 q 290 676 254 649 q 369 720 325 703 q 467 738 414 738 q 555 721 513 738 q 630 669 597 704 q 681 578 663 635 q 700 443 700 522 l 700 0 l 575 0 l 575 438 q 562 531 575 493 q 526 592 549 569 q 476 626 504 615 q 419 636 449 636 q 339 619 376 636 q 273 578 301 603 q 222 532 244 554 l 222 0 l 99 0 l 97 1039 m 163 1115 q 114 1135 133 1115 q 94 1182 94 1154 q 114 1228 94 1210 q 163 1247 133 1247 q 211 1228 192 1247 q 231 1182 231 1210 q 211 1135 231 1154 q 163 1115 192 1115 z "},"ḥ":{"ha":796,"x_min":97,"x_max":700,"o":"m 97 1039 l 222 1043 l 222 619 l 225 619 q 290 676 254 649 q 369 720 325 703 q 467 738 414 738 q 555 721 513 738 q 630 669 597 704 q 681 578 663 635 q 700 443 700 522 l 700 0 l 575 0 l 575 438 q 562 531 575 493 q 526 592 549 569 q 476 626 504 615 q 419 636 449 636 q 339 619 376 636 q 273 578 301 603 q 222 532 244 554 l 222 0 l 99 0 l 97 1039 m 396 -199 q 347 -180 367 -199 q 328 -133 328 -161 q 347 -86 328 -106 q 396 -67 367 -67 q 444 -86 425 -67 q 464 -133 464 -106 q 444 -180 464 -161 q 396 -199 425 -199 z "},"i":{"ha":326,"x_min":83,"x_max":243,"o":"m 101 722 l 226 726 l 226 0 l 101 0 l 101 722 m 164 851 q 107 872 131 851 q 83 926 83 893 q 107 983 83 961 q 164 1004 131 1004 q 220 983 197 1004 q 243 926 243 961 q 220 872 243 893 q 164 851 197 851 z "},"ı":{"ha":325,"x_min":100,"x_max":224,"o":"m 100 0 l 100 722 l 224 728 l 224 0 l 100 0 z "},"í":{"ha":325,"x_min":100,"x_max":283,"o":"m 100 0 l 100 722 l 224 728 l 224 0 l 100 0 m 115 822 l 176 1019 l 283 1019 l 194 822 l 115 822 z "},"ĭ":{"ha":325,"x_min":11,"x_max":314,"o":"m 100 0 l 100 722 l 224 728 l 224 0 l 100 0 m 163 818 q 56 867 100 818 q 14 1008 11 915 l 61 1008 q 88 914 58 949 q 163 879 118 879 q 237 914 207 879 q 264 1008 267 949 l 310 1008 q 269 867 314 915 q 163 818 225 818 z "},"ǐ":{"ha":325,"x_min":11,"x_max":313,"o":"m 100 0 l 100 722 l 224 728 l 224 0 l 100 0 m 114 821 l 11 1019 l 88 1019 l 161 863 l 236 1019 l 313 1019 l 206 821 l 114 821 z "},"î":{"ha":325,"x_min":11,"x_max":313,"o":"m 100 0 l 100 722 l 224 728 l 224 0 l 100 0 m 11 821 l 114 1019 l 206 1019 l 313 821 l 236 821 l 161 978 l 88 821 l 11 821 z "},"ï":{"ha":325,"x_min":-11,"x_max":335,"o":"m 100 0 l 100 722 l 224 728 l 224 0 l 100 0 m 57 842 q 8 860 28 842 q -11 907 -11 879 q 8 954 -11 935 q 57 974 28 974 q 107 953 88 974 q 126 907 126 932 q 107 860 126 879 q 57 842 88 842 m 267 842 q 217 860 236 842 q 197 907 197 879 q 217 954 197 935 q 267 974 236 974 q 315 954 296 974 q 335 907 335 935 q 315 860 335 879 q 267 842 296 842 z "},"ị":{"ha":326,"x_min":83,"x_max":243,"o":"m 101 722 l 226 726 l 226 0 l 101 0 l 101 722 m 164 851 q 107 872 131 851 q 83 926 83 893 q 107 983 83 961 q 164 1004 131 1004 q 220 983 197 1004 q 243 926 243 961 q 220 872 243 893 q 164 851 197 851 m 165 -199 q 117 -180 136 -199 q 97 -133 97 -161 q 117 -86 97 -106 q 165 -67 136 -67 q 214 -86 194 -67 q 233 -133 233 -106 q 214 -180 233 -161 q 165 -199 194 -199 z "},"ì":{"ha":325,"x_min":40,"x_max":224,"o":"m 100 0 l 100 722 l 224 728 l 224 0 l 100 0 m 129 822 l 40 1019 l 147 1019 l 208 822 l 129 822 z "},"ī":{"ha":325,"x_min":32,"x_max":290,"o":"m 100 0 l 100 722 l 224 728 l 224 0 l 100 0 m 32 871 l 32 942 l 290 942 l 290 871 l 32 871 z "},"į":{"ha":326,"x_min":1,"x_max":243,"o":"m 101 722 l 226 726 l 226 0 l 101 0 l 101 722 m 164 851 q 107 872 131 851 q 83 926 83 893 q 107 983 83 961 q 164 1004 131 1004 q 220 983 197 1004 q 243 926 243 961 q 220 872 243 893 q 164 851 197 851 m 125 -294 q 31 -260 61 -294 q 0 -183 0 -225 q 53 -69 0 -125 q 196 7 106 -14 l 226 0 q 108 -74 151 -26 q 64 -172 64 -122 q 86 -228 64 -207 q 150 -250 108 -250 q 190 -246 168 -250 q 238 -235 213 -242 l 238 -272 q 177 -289 206 -283 q 125 -294 149 -294 z "},"ĩ":{"ha":325,"x_min":-11,"x_max":335,"o":"m 100 0 l 100 722 l 224 728 l 224 0 l 100 0 m 285 988 l 335 971 q 295 875 322 908 q 235 842 268 842 q 190 856 210 842 q 154 888 171 869 q 122 919 138 906 q 89 932 106 932 q 62 913 75 932 q 39 853 49 894 l -11 868 q 29 965 1 931 q 89 999 57 999 q 133 985 114 999 q 170 953 153 972 q 203 921 188 935 q 235 907 218 907 q 263 927 250 907 q 285 988 275 947 z "},"ḭ":{"ha":326,"x_min":-72,"x_max":386,"o":"m 101 722 l 226 726 l 226 0 l 101 0 l 101 722 m 164 851 q 107 872 131 851 q 83 926 83 893 q 107 983 83 961 q 164 1004 131 1004 q 220 983 197 1004 q 243 926 243 961 q 220 872 243 893 q 164 851 197 851 m 324 -62 l 386 -79 q 333 -176 368 -143 q 253 -210 299 -210 q 197 -196 224 -210 q 147 -164 171 -182 q 101 -132 122 -146 q 61 -118 81 -118 q 24 -137 42 -118 q -8 -199 7 -157 l -71 -183 q -19 -86 -54 -119 q 61 -53 17 -53 q 117 -66 90 -53 q 167 -97 143 -79 q 213 -129 192 -115 q 253 -143 235 -143 q 291 -124 274 -143 q 324 -62 308 -104 z "},"j":{"ha":326,"x_min":0,"x_max":243,"o":"m 8 -247 l 0 -147 q 60 -141 38 -147 q 92 -112 82 -135 q 101 -43 101 -90 l 101 722 l 225 726 l 225 -60 q 201 -182 225 -142 q 128 -235 176 -222 q 8 -247 79 -247 m 163 851 q 107 872 131 851 q 83 926 83 893 q 107 983 83 961 q 163 1004 131 1004 q 219 983 196 1004 q 243 926 243 961 q 219 872 243 893 q 163 851 196 851 z "},"ȷ":{"ha":326,"x_min":0,"x_max":225,"o":"m 8 -247 l 0 -147 q 60 -141 38 -147 q 92 -112 82 -135 q 101 -43 101 -90 l 101 722 l 225 726 l 225 -60 q 201 -182 225 -142 q 128 -235 176 -222 q 8 -247 79 -247 z "},"ǰ":{"ha":326,"x_min":0,"x_max":314,"o":"m 8 -247 l 0 -147 q 60 -141 38 -147 q 92 -112 82 -135 q 101 -43 101 -90 l 101 722 l 225 726 l 225 -60 q 201 -182 225 -142 q 128 -235 176 -222 q 8 -247 79 -247 m 115 821 l 13 1019 l 89 1019 l 163 863 l 238 1019 l 314 1019 l 207 821 l 115 821 z "},"ĵ":{"ha":326,"x_min":0,"x_max":314,"o":"m 8 -247 l 0 -147 q 60 -141 38 -147 q 92 -112 82 -135 q 101 -43 101 -90 l 101 722 l 225 726 l 225 -60 q 201 -182 225 -142 q 128 -235 176 -222 q 8 -247 79 -247 m 13 821 l 115 1019 l 207 1019 l 314 821 l 238 821 l 163 978 l 89 821 l 13 821 z "},"k":{"ha":694,"x_min":97,"x_max":694,"o":"m 97 1039 l 222 1043 l 222 403 l 326 449 l 281 404 l 506 722 l 654 722 l 365 374 l 367 442 l 694 0 l 539 0 l 281 388 l 339 354 l 222 303 l 222 0 l 97 0 l 97 1039 z "},"ḱ":{"ha":694,"x_min":97,"x_max":694,"o":"m 97 1039 l 222 1043 l 222 403 l 326 449 l 281 404 l 506 722 l 654 722 l 365 374 l 367 442 l 694 0 l 539 0 l 281 388 l 339 354 l 222 303 l 222 0 l 97 0 l 97 1039 m 114 1100 l 228 1275 l 340 1275 l 196 1100 l 114 1100 z "},"ǩ":{"ha":694,"x_min":-53,"x_max":694,"o":"m 97 1039 l 222 1043 l 222 403 l 326 449 l 281 404 l 506 722 l 654 722 l 365 374 l 367 442 l 694 0 l 539 0 l 281 388 l 339 354 l 222 303 l 222 0 l 97 0 l 97 1039 m 96 1100 l -53 1279 l 47 1279 l 156 1142 l 268 1279 l 368 1279 l 215 1100 l 96 1100 z "},"ķ":{"ha":694,"x_min":97,"x_max":694,"o":"m 97 1039 l 222 1043 l 222 403 l 326 449 l 281 404 l 506 722 l 654 722 l 365 374 l 367 442 l 694 0 l 539 0 l 281 388 l 339 354 l 222 303 l 222 0 l 97 0 l 97 1039 m 332 -57 l 413 -57 l 375 -304 l 307 -304 l 332 -57 z "},"ḳ":{"ha":694,"x_min":97,"x_max":694,"o":"m 97 1039 l 222 1043 l 222 403 l 326 449 l 281 404 l 506 722 l 654 722 l 365 374 l 367 442 l 694 0 l 539 0 l 281 388 l 339 354 l 222 303 l 222 0 l 97 0 l 97 1039 m 374 -199 q 325 -180 344 -199 q 306 -133 306 -161 q 325 -86 306 -106 q 374 -67 344 -67 q 422 -86 403 -67 q 442 -133 442 -106 q 422 -180 442 -161 q 374 -199 403 -199 z "},"ĸ":{"ha":669,"x_min":97,"x_max":669,"o":"m 97 679 l 222 685 l 222 381 l 293 425 l 490 679 l 642 679 l 388 388 l 669 0 l 515 0 l 297 322 l 222 278 l 222 0 l 97 0 l 97 679 z "},"l":{"ha":321,"x_min":97,"x_max":222,"o":"m 97 1039 l 222 1043 l 222 0 l 97 0 l 97 1039 z "},"ĺ":{"ha":321,"x_min":97,"x_max":343,"o":"m 97 1039 l 222 1043 l 222 0 l 97 0 l 97 1039 m 117 1100 l 231 1275 l 343 1275 l 199 1100 l 117 1100 z "},"ľ":{"ha":635,"x_min":97,"x_max":540,"o":"m 97 1039 l 222 1043 l 222 0 l 97 0 l 97 1039 m 440 690 l 350 703 l 413 1051 l 540 1051 l 440 690 z "},"ļ":{"ha":321,"x_min":94,"x_max":222,"o":"m 97 1039 l 222 1043 l 222 0 l 97 0 l 97 1039 m 119 -57 l 200 -57 l 163 -304 l 94 -304 l 119 -57 z "},"ŀ":{"ha":568,"x_min":97,"x_max":535,"o":"m 97 1039 l 222 1043 l 222 0 l 97 0 l 97 1039 m 444 433 q 382 458 408 433 q 356 522 356 483 q 382 587 356 561 q 444 613 408 613 q 508 587 482 613 q 535 522 535 561 q 508 458 535 483 q 444 433 482 433 z "},"ḷ":{"ha":321,"x_min":92,"x_max":228,"o":"m 97 1039 l 222 1043 l 222 0 l 97 0 l 97 1039 m 160 -199 q 111 -180 131 -199 q 92 -133 92 -161 q 111 -86 92 -106 q 160 -67 131 -67 q 208 -86 189 -67 q 228 -133 228 -106 q 208 -180 228 -161 q 160 -199 189 -199 z "},"ḹ":{"ha":321,"x_min":-26,"x_max":346,"o":"m 97 1039 l 222 1043 l 222 0 l 97 0 l 97 1039 m 160 -199 q 111 -180 131 -199 q 92 -133 92 -161 q 111 -86 92 -106 q 160 -67 131 -67 q 208 -86 189 -67 q 228 -133 228 -106 q 208 -180 228 -161 q 160 -199 189 -199 m -26 1133 l -26 1203 l 346 1203 l 346 1133 l -26 1133 z "},"ǉ":{"ha":649,"x_min":97,"x_max":564,"o":"m 97 1039 l 222 1043 l 222 0 l 97 0 l 97 1039 m 329 -247 l 321 -147 q 381 -141 358 -147 q 413 -112 403 -135 q 422 -43 422 -90 l 422 722 l 546 726 l 546 -60 q 522 -182 546 -142 q 449 -235 497 -222 q 329 -247 400 -247 m 483 851 q 428 872 451 851 q 404 926 404 893 q 428 983 404 961 q 483 1004 451 1004 q 540 983 517 1004 q 564 926 564 961 q 540 872 564 893 q 483 851 517 851 z "},"ł":{"ha":324,"x_min":1,"x_max":340,"o":"m 99 410 l 1 361 l 1 454 l 99 503 l 99 1010 l 224 1015 l 224 565 l 340 624 l 340 533 l 224 474 l 224 0 l 99 0 l 99 410 z "},"m":{"ha":1215,"x_min":93,"x_max":1119,"o":"m 96 531 q 95 628 96 583 q 93 722 94 674 l 201 726 l 208 618 l 214 618 q 274 672 239 644 q 353 719 308 700 q 451 738 397 738 q 565 708 513 738 q 642 613 617 679 l 644 613 q 710 670 674 642 q 793 718 747 699 q 893 738 839 738 q 982 721 942 738 q 1053 671 1022 704 q 1102 583 1085 638 q 1119 451 1119 528 l 1119 0 l 996 0 l 996 432 q 976 551 996 507 q 925 616 957 596 q 850 636 893 636 q 770 618 807 636 q 704 574 733 600 q 656 524 675 549 l 663 560 q 668 501 667 528 q 669 439 669 474 l 669 0 l 547 0 l 547 436 q 533 537 547 492 q 490 609 519 582 q 408 636 460 636 q 331 619 367 636 q 267 579 296 603 q 219 532 239 556 l 219 0 l 96 0 l 96 531 z "},"ḿ":{"ha":1215,"x_min":93,"x_max":1119,"o":"m 96 531 q 95 628 96 583 q 93 722 94 674 l 201 726 l 208 618 l 214 618 q 274 672 239 644 q 353 719 308 700 q 451 738 397 738 q 565 708 513 738 q 642 613 617 679 l 644 613 q 710 670 674 642 q 793 718 747 699 q 893 738 839 738 q 982 721 942 738 q 1053 671 1022 704 q 1102 583 1085 638 q 1119 451 1119 528 l 1119 0 l 996 0 l 996 432 q 976 551 996 507 q 925 616 957 596 q 850 636 893 636 q 770 618 807 636 q 704 574 733 600 q 656 524 675 549 l 663 560 q 668 501 667 528 q 669 439 669 474 l 669 0 l 547 0 l 547 436 q 533 537 547 492 q 490 609 519 582 q 408 636 460 636 q 331 619 367 636 q 267 579 296 603 q 219 532 239 556 l 219 0 l 96 0 l 96 531 m 558 810 l 675 1007 l 785 1007 l 640 810 l 558 810 z "},"ṁ":{"ha":1215,"x_min":93,"x_max":1119,"o":"m 96 531 q 95 628 96 583 q 93 722 94 674 l 201 726 l 208 618 l 214 618 q 274 672 239 644 q 353 719 308 700 q 451 738 397 738 q 565 708 513 738 q 642 613 617 679 l 644 613 q 710 670 674 642 q 793 718 747 699 q 893 738 839 738 q 982 721 942 738 q 1053 671 1022 704 q 1102 583 1085 638 q 1119 451 1119 528 l 1119 0 l 996 0 l 996 432 q 976 551 996 507 q 925 616 957 596 q 850 636 893 636 q 770 618 807 636 q 704 574 733 600 q 656 524 675 549 l 663 560 q 668 501 667 528 q 669 439 669 474 l 669 0 l 547 0 l 547 436 q 533 537 547 492 q 490 609 519 582 q 408 636 460 636 q 331 619 367 636 q 267 579 296 603 q 219 532 239 556 l 219 0 l 96 0 l 96 531 m 600 842 q 551 860 571 842 q 532 907 532 879 q 551 954 532 935 q 600 974 571 974 q 649 954 629 974 q 668 907 668 935 q 649 860 668 879 q 600 842 629 842 z "},"ṃ":{"ha":1215,"x_min":93,"x_max":1119,"o":"m 96 531 q 95 628 96 583 q 93 722 94 674 l 201 726 l 208 618 l 214 618 q 274 672 239 644 q 353 719 308 700 q 451 738 397 738 q 565 708 513 738 q 642 613 617 679 l 644 613 q 710 670 674 642 q 793 718 747 699 q 893 738 839 738 q 982 721 942 738 q 1053 671 1022 704 q 1102 583 1085 638 q 1119 451 1119 528 l 1119 0 l 996 0 l 996 432 q 976 551 996 507 q 925 616 957 596 q 850 636 893 636 q 770 618 807 636 q 704 574 733 600 q 656 524 675 549 l 663 560 q 668 501 667 528 q 669 439 669 474 l 669 0 l 547 0 l 547 436 q 533 537 547 492 q 490 609 519 582 q 408 636 460 636 q 331 619 367 636 q 267 579 296 603 q 219 532 239 556 l 219 0 l 96 0 l 96 531 m 608 -199 q 560 -180 579 -199 q 540 -133 540 -161 q 560 -86 540 -106 q 608 -67 579 -67 q 657 -86 638 -67 q 676 -133 676 -106 q 657 -180 676 -161 q 608 -199 638 -199 z "},"n":{"ha":794,"x_min":93,"x_max":699,"o":"m 96 521 q 95 629 96 581 q 93 722 94 678 l 203 726 l 210 618 l 214 618 q 276 671 239 643 q 360 718 313 699 q 465 738 408 738 q 553 721 511 738 q 628 669 596 704 q 679 580 660 635 q 699 447 699 525 l 699 0 l 574 0 l 574 442 q 560 536 574 499 q 523 596 546 574 q 473 627 500 618 q 419 636 446 636 q 338 619 375 636 q 271 578 300 603 q 221 532 242 554 l 221 0 l 96 0 l 96 521 z "},"ń":{"ha":794,"x_min":93,"x_max":699,"o":"m 96 521 q 95 629 96 581 q 93 722 94 678 l 203 726 l 210 618 l 214 618 q 276 671 239 643 q 360 718 313 699 q 465 738 408 738 q 553 721 511 738 q 628 669 596 704 q 679 580 660 635 q 699 447 699 525 l 699 0 l 574 0 l 574 442 q 560 536 574 499 q 523 596 546 574 q 473 627 500 618 q 419 636 446 636 q 338 619 375 636 q 271 578 300 603 q 221 532 242 554 l 221 0 l 96 0 l 96 521 m 364 810 l 481 1007 l 590 1007 l 446 810 l 364 810 z "},"ň":{"ha":794,"x_min":93,"x_max":699,"o":"m 96 521 q 95 629 96 581 q 93 722 94 678 l 203 726 l 210 618 l 214 618 q 276 671 239 643 q 360 718 313 699 q 465 738 408 738 q 553 721 511 738 q 628 669 596 704 q 679 580 660 635 q 699 447 699 525 l 699 0 l 574 0 l 574 442 q 560 536 574 499 q 523 596 546 574 q 473 627 500 618 q 419 636 446 636 q 338 619 375 636 q 271 578 300 603 q 221 532 242 554 l 221 0 l 96 0 l 96 521 m 343 810 l 196 1008 l 296 1008 l 404 851 l 517 1008 l 617 1008 l 465 810 l 343 810 z "},"ṋ":{"ha":794,"x_min":93,"x_max":699,"o":"m 96 521 q 95 629 96 581 q 93 722 94 678 l 203 726 l 210 618 l 214 618 q 276 671 239 643 q 360 718 313 699 q 465 738 408 738 q 553 721 511 738 q 628 669 596 704 q 679 580 660 635 q 699 447 699 525 l 699 0 l 574 0 l 574 442 q 560 536 574 499 q 523 596 546 574 q 473 627 500 618 q 419 636 446 636 q 338 619 375 636 q 271 578 300 603 q 221 532 242 554 l 221 0 l 96 0 l 96 521 m 188 -257 l 336 -58 l 458 -58 l 611 -257 l 511 -257 l 399 -100 l 286 -257 l 188 -257 z "},"ņ":{"ha":794,"x_min":93,"x_max":699,"o":"m 96 521 q 95 629 96 581 q 93 722 94 678 l 203 726 l 210 618 l 214 618 q 276 671 239 643 q 360 718 313 699 q 465 738 408 738 q 553 721 511 738 q 628 669 596 704 q 679 580 660 635 q 699 447 699 525 l 699 0 l 574 0 l 574 442 q 560 536 574 499 q 523 596 546 574 q 473 627 500 618 q 419 636 446 636 q 338 619 375 636 q 271 578 300 603 q 221 532 242 554 l 221 0 l 96 0 l 96 521 m 357 -57 l 438 -57 l 400 -304 l 332 -304 l 357 -57 z "},"ṅ":{"ha":794,"x_min":93,"x_max":699,"o":"m 96 521 q 95 629 96 581 q 93 722 94 678 l 203 726 l 210 618 l 214 618 q 276 671 239 643 q 360 718 313 699 q 465 738 408 738 q 553 721 511 738 q 628 669 596 704 q 679 580 660 635 q 699 447 699 525 l 699 0 l 574 0 l 574 442 q 560 536 574 499 q 523 596 546 574 q 473 627 500 618 q 419 636 446 636 q 338 619 375 636 q 271 578 300 603 q 221 532 242 554 l 221 0 l 96 0 l 96 521 m 406 842 q 357 860 376 842 q 338 907 338 879 q 357 954 338 935 q 406 974 376 974 q 454 954 435 974 q 474 907 474 935 q 454 860 474 879 q 406 842 435 842 z "},"ṇ":{"ha":794,"x_min":93,"x_max":699,"o":"m 96 521 q 95 629 96 581 q 93 722 94 678 l 203 726 l 210 618 l 214 618 q 276 671 239 643 q 360 718 313 699 q 465 738 408 738 q 553 721 511 738 q 628 669 596 704 q 679 580 660 635 q 699 447 699 525 l 699 0 l 574 0 l 574 442 q 560 536 574 499 q 523 596 546 574 q 473 627 500 618 q 419 636 446 636 q 338 619 375 636 q 271 578 300 603 q 221 532 242 554 l 221 0 l 96 0 l 96 521 m 397 -199 q 349 -180 368 -199 q 329 -133 329 -161 q 349 -86 329 -106 q 397 -67 368 -67 q 446 -86 426 -67 q 465 -133 465 -106 q 446 -180 465 -161 q 397 -199 426 -199 z "},"ǹ":{"ha":794,"x_min":93,"x_max":699,"o":"m 96 521 q 95 629 96 581 q 93 722 94 678 l 203 726 l 210 618 l 214 618 q 276 671 239 643 q 360 718 313 699 q 465 738 408 738 q 553 721 511 738 q 628 669 596 704 q 679 580 660 635 q 699 447 699 525 l 699 0 l 574 0 l 574 442 q 560 536 574 499 q 523 596 546 574 q 473 627 500 618 q 419 636 446 636 q 338 619 375 636 q 271 578 300 603 q 221 532 242 554 l 221 0 l 96 0 l 96 521 m 363 810 l 219 1007 l 328 1007 l 444 810 l 363 810 z "},"ŋ":{"ha":765,"x_min":93,"x_max":669,"o":"m 374 -197 q 451 -173 419 -190 q 504 -123 483 -156 q 535 -35 525 -90 q 544 104 544 21 l 544 401 q 532 499 544 456 q 489 566 519 542 q 406 590 458 590 q 300 558 349 590 q 222 475 251 525 l 222 0 l 97 0 l 97 497 q 96 592 97 547 q 93 679 94 636 l 204 685 l 213 582 l 217 582 q 310 661 253 628 q 443 694 367 694 q 530 679 489 694 q 602 631 571 664 q 651 544 633 597 q 669 415 669 492 l 669 86 q 649 -91 669 -19 q 592 -206 629 -162 q 503 -269 554 -249 q 388 -296 451 -289 l 374 -197 z "},"ñ":{"ha":794,"x_min":93,"x_max":699,"o":"m 96 521 q 95 629 96 581 q 93 722 94 678 l 203 726 l 210 618 l 214 618 q 276 671 239 643 q 360 718 313 699 q 465 738 408 738 q 553 721 511 738 q 628 669 596 704 q 679 580 660 635 q 699 447 699 525 l 699 0 l 574 0 l 574 442 q 560 536 574 499 q 523 596 546 574 q 473 627 500 618 q 419 636 446 636 q 338 619 375 636 q 271 578 300 603 q 221 532 242 554 l 221 0 l 96 0 l 96 521 m 571 979 l 635 963 q 581 865 615 899 q 501 832 546 832 q 445 846 472 832 q 394 878 418 860 q 349 910 369 897 q 310 924 328 924 q 272 905 289 924 q 240 844 254 886 l 176 860 q 230 956 194 922 q 310 990 265 990 q 365 976 339 990 q 416 944 392 963 q 461 913 440 926 q 501 899 482 899 q 538 918 521 899 q 571 979 556 938 z "},"o":{"ha":790,"x_min":56,"x_max":738,"o":"m 396 -15 q 264 9 326 -15 q 155 81 201 33 q 82 199 108 128 q 56 361 56 269 q 82 524 56 453 q 155 642 108 594 q 264 713 201 689 q 396 738 326 738 q 528 713 467 738 q 638 642 590 689 q 711 524 685 594 q 738 361 738 453 q 711 199 738 269 q 638 81 685 128 q 528 9 590 33 q 396 -15 467 -15 m 396 79 q 491 100 450 79 q 558 160 532 121 q 597 250 583 199 q 610 361 610 301 q 597 472 610 421 q 558 563 583 524 q 491 622 532 601 q 396 643 450 643 q 301 622 342 643 q 235 563 261 601 q 196 472 208 524 q 183 361 183 421 q 196 250 183 301 q 235 160 208 199 q 301 100 261 121 q 396 79 342 79 z "},"ó":{"ha":790,"x_min":56,"x_max":738,"o":"m 396 -15 q 264 9 326 -15 q 155 81 201 33 q 82 199 108 128 q 56 361 56 269 q 82 524 56 453 q 155 642 108 594 q 264 713 201 689 q 396 738 326 738 q 528 713 467 738 q 638 642 590 689 q 711 524 685 594 q 738 361 738 453 q 711 199 738 269 q 638 81 685 128 q 528 9 590 33 q 396 -15 467 -15 m 396 79 q 491 100 450 79 q 558 160 532 121 q 597 250 583 199 q 610 361 610 301 q 597 472 610 421 q 558 563 583 524 q 491 622 532 601 q 396 643 450 643 q 301 622 342 643 q 235 563 261 601 q 196 472 208 524 q 183 361 183 421 q 196 250 183 301 q 235 160 208 199 q 301 100 261 121 q 396 79 342 79 m 356 810 l 472 1007 l 582 1007 l 438 810 l 356 810 z "},"ŏ":{"ha":790,"x_min":56,"x_max":738,"o":"m 396 -15 q 264 9 326 -15 q 155 81 201 33 q 82 199 108 128 q 56 361 56 269 q 82 524 56 453 q 155 642 108 594 q 264 713 201 689 q 396 738 326 738 q 528 713 467 738 q 638 642 590 689 q 711 524 685 594 q 738 361 738 453 q 711 199 738 269 q 638 81 685 128 q 528 9 590 33 q 396 -15 467 -15 m 396 79 q 491 100 450 79 q 558 160 532 121 q 597 250 583 199 q 610 361 610 301 q 597 472 610 421 q 558 563 583 524 q 491 622 532 601 q 396 643 450 643 q 301 622 342 643 q 235 563 261 601 q 196 472 208 524 q 183 361 183 421 q 196 250 183 301 q 235 160 208 199 q 301 100 261 121 q 396 79 342 79 m 397 808 q 301 830 344 808 q 233 894 257 851 q 211 999 208 938 l 269 999 q 303 903 267 938 q 397 868 340 868 q 491 903 454 868 q 525 999 528 938 l 583 999 q 561 894 586 938 q 493 830 536 851 q 397 808 450 808 z "},"ǒ":{"ha":790,"x_min":56,"x_max":738,"o":"m 396 -15 q 264 9 326 -15 q 155 81 201 33 q 82 199 108 128 q 56 361 56 269 q 82 524 56 453 q 155 642 108 594 q 264 713 201 689 q 396 738 326 738 q 528 713 467 738 q 638 642 590 689 q 711 524 685 594 q 738 361 738 453 q 711 199 738 269 q 638 81 685 128 q 528 9 590 33 q 396 -15 467 -15 m 396 79 q 491 100 450 79 q 558 160 532 121 q 597 250 583 199 q 610 361 610 301 q 597 472 610 421 q 558 563 583 524 q 491 622 532 601 q 396 643 450 643 q 301 622 342 643 q 235 563 261 601 q 196 472 208 524 q 183 361 183 421 q 196 250 183 301 q 235 160 208 199 q 301 100 261 121 q 396 79 342 79 m 335 810 l 188 1008 l 288 1008 l 396 851 l 508 1008 l 608 1008 l 457 810 l 335 810 z "},"ô":{"ha":790,"x_min":56,"x_max":738,"o":"m 396 -15 q 264 9 326 -15 q 155 81 201 33 q 82 199 108 128 q 56 361 56 269 q 82 524 56 453 q 155 642 108 594 q 264 713 201 689 q 396 738 326 738 q 528 713 467 738 q 638 642 590 689 q 711 524 685 594 q 738 361 738 453 q 711 199 738 269 q 638 81 685 128 q 528 9 590 33 q 396 -15 467 -15 m 396 79 q 491 100 450 79 q 558 160 532 121 q 597 250 583 199 q 610 361 610 301 q 597 472 610 421 q 558 563 583 524 q 491 622 532 601 q 396 643 450 643 q 301 622 342 643 q 235 563 261 601 q 196 472 208 524 q 183 361 183 421 q 196 250 183 301 q 235 160 208 199 q 301 100 261 121 q 396 79 342 79 m 185 810 l 333 1008 l 456 1008 l 608 810 l 508 810 l 396 967 l 283 810 l 185 810 z "},"ộ":{"ha":790,"x_min":56,"x_max":738,"o":"m 396 -15 q 264 9 326 -15 q 155 81 201 33 q 82 199 108 128 q 56 361 56 269 q 82 524 56 453 q 155 642 108 594 q 264 713 201 689 q 396 738 326 738 q 528 713 467 738 q 638 642 590 689 q 711 524 685 594 q 738 361 738 453 q 711 199 738 269 q 638 81 685 128 q 528 9 590 33 q 396 -15 467 -15 m 396 79 q 491 100 450 79 q 558 160 532 121 q 597 250 583 199 q 610 361 610 301 q 597 472 610 421 q 558 563 583 524 q 491 622 532 601 q 396 643 450 643 q 301 622 342 643 q 235 563 261 601 q 196 472 208 524 q 183 361 183 421 q 196 250 183 301 q 235 160 208 199 q 301 100 261 121 q 396 79 342 79 m 396 -199 q 347 -180 367 -199 q 328 -133 328 -161 q 347 -86 328 -106 q 396 -67 367 -67 q 444 -86 425 -67 q 464 -133 464 -106 q 444 -180 464 -161 q 396 -199 425 -199 m 185 810 l 333 1008 l 456 1008 l 608 810 l 508 810 l 396 967 l 283 810 l 185 810 z "},"ö":{"ha":790,"x_min":56,"x_max":738,"o":"m 396 -15 q 264 9 326 -15 q 155 81 201 33 q 82 199 108 128 q 56 361 56 269 q 82 524 56 453 q 155 642 108 594 q 264 713 201 689 q 396 738 326 738 q 528 713 467 738 q 638 642 590 689 q 711 524 685 594 q 738 361 738 453 q 711 199 738 269 q 638 81 685 128 q 528 9 590 33 q 396 -15 467 -15 m 396 79 q 491 100 450 79 q 558 160 532 121 q 597 250 583 199 q 610 361 610 301 q 597 472 610 421 q 558 563 583 524 q 491 622 532 601 q 396 643 450 643 q 301 622 342 643 q 235 563 261 601 q 196 472 208 524 q 183 361 183 421 q 196 250 183 301 q 235 160 208 199 q 301 100 261 121 q 396 79 342 79 m 271 842 q 222 860 242 842 q 203 907 203 879 q 222 954 203 935 q 271 974 242 974 q 319 954 300 974 q 339 907 339 935 q 319 860 339 879 q 271 842 300 842 m 522 842 q 474 860 493 842 q 454 907 454 879 q 474 954 454 935 q 522 974 493 974 q 571 954 551 974 q 590 907 590 935 q 571 860 590 879 q 522 842 551 842 z "},"ȯ":{"ha":790,"x_min":56,"x_max":738,"o":"m 396 -15 q 264 9 326 -15 q 155 81 201 33 q 82 199 108 128 q 56 361 56 269 q 82 524 56 453 q 155 642 108 594 q 264 713 201 689 q 396 738 326 738 q 528 713 467 738 q 638 642 590 689 q 711 524 685 594 q 738 361 738 453 q 711 199 738 269 q 638 81 685 128 q 528 9 590 33 q 396 -15 467 -15 m 396 79 q 491 100 450 79 q 558 160 532 121 q 597 250 583 199 q 610 361 610 301 q 597 472 610 421 q 558 563 583 524 q 491 622 532 601 q 396 643 450 643 q 301 622 342 643 q 235 563 261 601 q 196 472 208 524 q 183 361 183 421 q 196 250 183 301 q 235 160 208 199 q 301 100 261 121 q 396 79 342 79 m 396 842 q 347 860 367 842 q 328 907 328 879 q 347 954 328 935 q 396 974 367 974 q 444 954 425 974 q 464 907 464 935 q 444 860 464 879 q 396 842 425 842 z "},"ọ":{"ha":790,"x_min":56,"x_max":738,"o":"m 396 -15 q 264 9 326 -15 q 155 81 201 33 q 82 199 108 128 q 56 361 56 269 q 82 524 56 453 q 155 642 108 594 q 264 713 201 689 q 396 738 326 738 q 528 713 467 738 q 638 642 590 689 q 711 524 685 594 q 738 361 738 453 q 711 199 738 269 q 638 81 685 128 q 528 9 590 33 q 396 -15 467 -15 m 396 79 q 491 100 450 79 q 558 160 532 121 q 597 250 583 199 q 610 361 610 301 q 597 472 610 421 q 558 563 583 524 q 491 622 532 601 q 396 643 450 643 q 301 622 342 643 q 235 563 261 601 q 196 472 208 524 q 183 361 183 421 q 196 250 183 301 q 235 160 208 199 q 301 100 261 121 q 396 79 342 79 m 396 -199 q 347 -180 367 -199 q 328 -133 328 -161 q 347 -86 328 -106 q 396 -67 367 -67 q 444 -86 425 -67 q 464 -133 464 -106 q 444 -180 464 -161 q 396 -199 425 -199 z "},"ò":{"ha":790,"x_min":56,"x_max":738,"o":"m 396 -15 q 264 9 326 -15 q 155 81 201 33 q 82 199 108 128 q 56 361 56 269 q 82 524 56 453 q 155 642 108 594 q 264 713 201 689 q 396 738 326 738 q 528 713 467 738 q 638 642 590 689 q 711 524 685 594 q 738 361 738 453 q 711 199 738 269 q 638 81 685 128 q 528 9 590 33 q 396 -15 467 -15 m 396 79 q 491 100 450 79 q 558 160 532 121 q 597 250 583 199 q 610 361 610 301 q 597 472 610 421 q 558 563 583 524 q 491 622 532 601 q 396 643 450 643 q 301 622 342 643 q 235 563 261 601 q 196 472 208 524 q 183 361 183 421 q 196 250 183 301 q 235 160 208 199 q 301 100 261 121 q 396 79 342 79 m 354 810 l 211 1007 l 319 1007 l 436 810 l 354 810 z "},"ő":{"ha":790,"x_min":56,"x_max":738,"o":"m 396 -15 q 264 9 326 -15 q 155 81 201 33 q 82 199 108 128 q 56 361 56 269 q 82 524 56 453 q 155 642 108 594 q 264 713 201 689 q 396 738 326 738 q 528 713 467 738 q 638 642 590 689 q 711 524 685 594 q 738 361 738 453 q 711 199 738 269 q 638 81 685 128 q 528 9 590 33 q 396 -15 467 -15 m 396 79 q 491 100 450 79 q 558 160 532 121 q 597 250 583 199 q 610 361 610 301 q 597 472 610 421 q 558 563 583 524 q 491 622 532 601 q 396 643 450 643 q 301 622 342 643 q 235 563 261 601 q 196 472 208 524 q 183 361 183 421 q 196 250 183 301 q 235 160 208 199 q 301 100 261 121 q 396 79 342 79 m 275 810 l 360 1007 l 446 1007 l 335 810 l 275 810 m 449 810 l 533 1007 l 618 1007 l 507 810 l 449 810 z "},"ō":{"ha":790,"x_min":56,"x_max":738,"o":"m 396 -15 q 264 9 326 -15 q 155 81 201 33 q 82 199 108 128 q 56 361 56 269 q 82 524 56 453 q 155 642 108 594 q 264 713 201 689 q 396 738 326 738 q 528 713 467 738 q 638 642 590 689 q 711 524 685 594 q 738 361 738 453 q 711 199 738 269 q 638 81 685 128 q 528 9 590 33 q 396 -15 467 -15 m 396 79 q 491 100 450 79 q 558 160 532 121 q 597 250 583 199 q 610 361 610 301 q 597 472 610 421 q 558 563 583 524 q 491 622 532 601 q 396 643 450 643 q 301 622 342 643 q 235 563 261 601 q 196 472 208 524 q 183 361 183 421 q 196 250 183 301 q 235 160 208 199 q 301 100 261 121 q 396 79 342 79 m 210 857 l 210 926 l 583 926 l 583 857 l 210 857 z "},"ø":{"ha":788,"x_min":56,"x_max":738,"o":"m 122 -37 l 622 786 l 668 761 l 168 -62 l 122 -37 m 396 -15 q 264 8 326 -15 q 155 80 201 32 q 82 199 108 128 q 56 361 56 269 q 82 524 56 454 q 155 642 108 594 q 264 714 201 690 q 396 738 326 738 q 528 714 467 738 q 638 642 590 690 q 711 524 685 594 q 738 361 738 454 q 711 199 738 269 q 638 80 685 128 q 528 8 590 32 q 396 -15 467 -15 m 396 78 q 491 99 450 78 q 558 159 532 121 q 597 249 583 197 q 610 361 610 301 q 597 473 610 421 q 558 563 583 525 q 491 623 532 601 q 396 644 450 644 q 301 623 342 644 q 235 563 261 601 q 196 473 208 525 q 183 361 183 421 q 196 249 183 301 q 235 159 208 197 q 301 99 261 121 q 396 78 342 78 z "},"ǿ":{"ha":788,"x_min":56,"x_max":738,"o":"m 122 -37 l 622 786 l 668 761 l 168 -62 l 122 -37 m 396 -15 q 264 8 326 -15 q 155 80 201 32 q 82 199 108 128 q 56 361 56 269 q 82 524 56 454 q 155 642 108 594 q 264 714 201 690 q 396 738 326 738 q 528 714 467 738 q 638 642 590 690 q 711 524 685 594 q 738 361 738 454 q 711 199 738 269 q 638 80 685 128 q 528 8 590 32 q 396 -15 467 -15 m 396 78 q 491 99 450 78 q 558 159 532 121 q 597 249 583 197 q 610 361 610 301 q 597 473 610 421 q 558 563 583 525 q 491 623 532 601 q 396 644 450 644 q 301 623 342 644 q 235 563 261 601 q 196 473 208 525 q 183 361 183 421 q 196 249 183 301 q 235 159 208 197 q 301 99 261 121 q 396 78 342 78 m 356 810 l 472 1007 l 582 1007 l 438 810 l 356 810 z "},"õ":{"ha":790,"x_min":56,"x_max":738,"o":"m 396 -15 q 264 9 326 -15 q 155 81 201 33 q 82 199 108 128 q 56 361 56 269 q 82 524 56 453 q 155 642 108 594 q 264 713 201 689 q 396 738 326 738 q 528 713 467 738 q 638 642 590 689 q 711 524 685 594 q 738 361 738 453 q 711 199 738 269 q 638 81 685 128 q 528 9 590 33 q 396 -15 467 -15 m 396 79 q 491 100 450 79 q 558 160 532 121 q 597 250 583 199 q 610 361 610 301 q 597 472 610 421 q 558 563 583 524 q 491 622 532 601 q 396 643 450 643 q 301 622 342 643 q 235 563 261 601 q 196 472 208 524 q 183 361 183 421 q 196 250 183 301 q 235 160 208 199 q 301 100 261 121 q 396 79 342 79 m 561 979 l 625 963 q 571 865 606 899 q 492 832 536 832 q 435 846 463 832 q 384 878 408 860 q 339 910 360 897 q 300 924 318 924 q 262 905 279 924 q 231 844 244 886 l 167 860 q 220 956 185 922 q 300 990 256 990 q 356 976 329 990 q 406 944 382 963 q 451 913 431 926 q 492 899 472 899 q 528 918 511 899 q 561 979 546 938 z "},"œ":{"ha":1286,"x_min":56,"x_max":1236,"o":"m 396 -15 q 264 9 326 -15 q 155 81 201 33 q 82 199 108 128 q 56 361 56 269 q 82 524 56 453 q 155 642 108 594 q 264 713 201 689 q 396 738 326 738 q 528 713 467 738 q 638 642 590 689 q 711 524 685 594 q 738 361 738 453 q 711 199 738 269 q 638 81 685 128 q 528 9 590 33 q 396 -15 467 -15 m 396 79 q 491 100 450 79 q 558 160 532 121 q 597 250 583 199 q 610 361 610 301 q 597 472 610 421 q 558 563 583 524 q 491 622 532 601 q 396 643 450 643 q 301 622 342 643 q 235 563 261 601 q 196 472 208 524 q 183 361 183 421 q 196 250 183 301 q 235 160 208 199 q 301 100 261 121 q 396 79 342 79 m 971 -15 q 774 33 853 -15 q 657 165 696 81 q 618 358 618 249 q 640 507 618 439 q 705 627 663 575 q 808 708 747 679 q 949 738 869 738 q 1088 708 1031 738 q 1178 624 1144 678 q 1223 499 1211 571 q 1225 340 1235 426 l 688 340 l 750 388 q 756 228 735 297 q 835 120 778 160 q 986 81 893 81 q 1098 93 1046 81 q 1183 118 1150 106 l 1199 31 q 1096 -1 1157 13 q 971 -15 1035 -15 m 689 413 l 1115 413 q 1117 425 1117 419 q 1117 435 1117 431 q 1097 548 1117 500 q 1040 622 1078 596 q 944 649 1003 649 q 830 610 876 649 q 761 510 783 572 q 743 378 739 447 l 689 413 z "},"p":{"ha":781,"x_min":93,"x_max":725,"o":"m 97 507 q 96 619 97 565 q 93 722 94 674 l 201 726 l 210 615 l 213 615 q 315 701 253 664 q 450 738 376 738 q 599 692 538 738 q 693 565 661 647 q 725 374 725 483 q 688 170 725 257 q 584 34 650 83 q 433 -15 518 -15 q 344 1 385 -15 q 273 44 303 18 q 224 94 243 69 l 221 94 l 221 -311 l 97 -311 l 97 507 m 403 85 q 513 125 469 85 q 576 229 556 165 q 597 368 597 293 q 576 510 597 450 q 513 603 554 571 q 408 636 471 636 q 334 621 369 636 q 269 581 299 606 q 222 529 240 557 l 222 219 q 256 156 232 188 q 318 105 281 125 q 403 85 356 85 z "},"ṕ":{"ha":781,"x_min":93,"x_max":725,"o":"m 97 507 q 96 619 97 565 q 93 722 94 674 l 201 726 l 210 615 l 213 615 q 315 701 253 664 q 450 738 376 738 q 599 692 538 738 q 693 565 661 647 q 725 374 725 483 q 688 170 725 257 q 584 34 650 83 q 433 -15 518 -15 q 344 1 385 -15 q 273 44 303 18 q 224 94 243 69 l 221 94 l 221 -311 l 97 -311 l 97 507 m 403 85 q 513 125 469 85 q 576 229 556 165 q 597 368 597 293 q 576 510 597 450 q 513 603 554 571 q 408 636 471 636 q 334 621 369 636 q 269 581 299 606 q 222 529 240 557 l 222 219 q 256 156 232 188 q 318 105 281 125 q 403 85 356 85 m 360 810 l 476 1007 l 586 1007 l 442 810 l 360 810 z "},"ṗ":{"ha":781,"x_min":93,"x_max":725,"o":"m 97 507 q 96 619 97 565 q 93 722 94 674 l 201 726 l 210 615 l 213 615 q 315 701 253 664 q 450 738 376 738 q 599 692 538 738 q 693 565 661 647 q 725 374 725 483 q 688 170 725 257 q 584 34 650 83 q 433 -15 518 -15 q 344 1 385 -15 q 273 44 303 18 q 224 94 243 69 l 221 94 l 221 -311 l 97 -311 l 97 507 m 403 85 q 513 125 469 85 q 576 229 556 165 q 597 368 597 293 q 576 510 597 450 q 513 603 554 571 q 408 636 471 636 q 334 621 369 636 q 269 581 299 606 q 222 529 240 557 l 222 219 q 256 156 232 188 q 318 105 281 125 q 403 85 356 85 m 400 842 q 351 860 371 842 q 332 907 332 879 q 351 954 332 935 q 400 974 371 974 q 449 954 429 974 q 468 907 468 935 q 449 860 468 879 q 400 842 429 842 z "},"þ":{"ha":782,"x_min":97,"x_max":725,"o":"m 97 -311 l 97 1039 l 222 1043 l 222 621 l 224 621 q 317 701 257 664 q 450 738 376 738 q 599 692 538 738 q 693 565 661 647 q 725 374 725 483 q 688 170 725 257 q 585 34 650 83 q 435 -15 519 -15 q 344 1 385 -15 q 273 44 303 18 q 224 94 243 69 l 222 94 l 222 -311 l 97 -311 m 403 85 q 513 125 469 85 q 576 229 556 165 q 597 368 597 293 q 576 510 597 450 q 513 603 556 571 q 408 636 471 636 q 335 621 371 636 q 270 581 299 606 q 222 529 242 557 l 222 219 q 258 156 233 188 q 319 105 282 125 q 403 85 356 85 z "},"q":{"ha":779,"x_min":54,"x_max":685,"o":"m 557 99 l 554 99 q 472 20 526 56 q 340 -15 417 -15 q 191 31 256 -15 q 90 162 126 78 q 54 354 54 246 q 92 553 54 468 q 197 688 129 639 q 353 738 264 738 q 472 710 418 738 q 567 642 526 683 l 568 642 l 578 726 l 685 722 q 683 626 683 679 q 682 517 682 574 l 682 -311 l 557 -311 l 557 99 m 378 85 q 494 124 447 85 q 557 214 542 164 l 557 560 q 483 615 526 593 q 389 638 440 638 q 276 599 322 638 q 205 497 229 561 q 181 356 181 433 q 204 217 181 279 q 272 120 228 156 q 378 85 317 85 z "},"r":{"ha":493,"x_min":93,"x_max":464,"o":"m 97 0 l 97 518 q 96 630 97 582 q 93 722 94 678 l 203 726 l 213 599 l 215 599 q 314 700 254 661 q 464 735 374 739 l 464 624 q 322 601 383 629 q 222 510 261 572 l 222 0 l 97 0 z "},"ŕ":{"ha":493,"x_min":93,"x_max":464,"o":"m 97 0 l 97 518 q 96 630 97 582 q 93 722 94 678 l 203 726 l 213 599 l 215 599 q 314 700 254 661 q 464 735 374 739 l 464 624 q 322 601 383 629 q 222 510 261 572 l 222 0 l 97 0 m 226 810 l 343 1007 l 453 1007 l 308 810 l 226 810 z "},"ř":{"ha":493,"x_min":58,"x_max":479,"o":"m 97 0 l 97 518 q 96 630 97 582 q 93 722 94 678 l 203 726 l 213 599 l 215 599 q 314 700 254 661 q 464 735 374 739 l 464 624 q 322 601 383 629 q 222 510 261 572 l 222 0 l 97 0 m 206 810 l 58 1008 l 158 1008 l 267 851 l 379 1008 l 479 1008 l 328 810 l 206 810 z "},"ŗ":{"ha":493,"x_min":93,"x_max":464,"o":"m 97 0 l 97 518 q 96 630 97 582 q 93 722 94 678 l 203 726 l 213 599 l 215 599 q 314 700 254 661 q 464 735 374 739 l 464 624 q 322 601 383 629 q 222 510 261 572 l 222 0 l 97 0 m 119 -57 l 200 -57 l 163 -304 l 94 -304 l 119 -57 z "},"ṙ":{"ha":493,"x_min":93,"x_max":464,"o":"m 97 0 l 97 518 q 96 630 97 582 q 93 722 94 678 l 203 726 l 213 599 l 215 599 q 314 700 254 661 q 464 735 374 739 l 464 624 q 322 601 383 629 q 222 510 261 572 l 222 0 l 97 0 m 267 842 q 218 860 238 842 q 199 907 199 879 q 218 954 199 935 q 267 974 238 974 q 315 954 296 974 q 335 907 335 935 q 315 860 335 879 q 267 842 296 842 z "},"ṛ":{"ha":493,"x_min":90,"x_max":464,"o":"m 97 0 l 97 518 q 96 630 97 582 q 93 722 94 678 l 203 726 l 213 599 l 215 599 q 314 700 254 661 q 464 735 374 739 l 464 624 q 322 601 383 629 q 222 510 261 572 l 222 0 l 97 0 m 160 -199 q 111 -180 131 -199 q 92 -133 92 -161 q 111 -86 92 -106 q 160 -67 131 -67 q 208 -86 189 -67 q 228 -133 228 -106 q 208 -180 228 -161 q 160 -199 189 -199 z "},"ṝ":{"ha":493,"x_min":81,"x_max":464,"o":"m 97 0 l 97 518 q 96 630 97 582 q 93 722 94 678 l 203 726 l 213 599 l 215 599 q 314 700 254 661 q 464 735 374 739 l 464 624 q 322 601 383 629 q 222 510 261 572 l 222 0 l 97 0 m 160 -199 q 111 -180 131 -199 q 92 -133 92 -161 q 111 -86 92 -106 q 160 -67 131 -67 q 208 -86 189 -67 q 228 -133 228 -106 q 208 -180 228 -161 q 160 -199 189 -199 m 81 857 l 81 926 l 454 926 l 454 857 l 81 857 z "},"s":{"ha":596,"x_min":56,"x_max":539,"o":"m 264 -15 q 153 -3 210 -15 q 56 31 97 10 l 74 117 q 129 98 97 107 q 197 83 161 89 q 267 78 232 78 q 378 108 339 78 q 418 189 418 139 q 394 252 418 228 q 334 295 371 276 q 256 331 297 314 q 168 374 211 350 q 97 438 125 399 q 68 535 68 476 q 99 641 68 596 q 188 712 131 686 q 321 738 244 738 q 424 726 374 738 q 510 696 474 714 l 492 610 q 444 626 472 618 q 385 640 415 635 q 322 646 354 646 q 223 617 257 646 q 189 544 189 588 q 209 487 189 510 q 263 447 229 464 q 336 414 297 431 q 429 369 382 396 q 508 303 476 343 q 539 199 539 263 q 504 86 539 135 q 408 11 469 38 q 264 -15 346 -15 z "},"ś":{"ha":596,"x_min":56,"x_max":539,"o":"m 264 -15 q 153 -3 210 -15 q 56 31 97 10 l 74 117 q 129 98 97 107 q 197 83 161 89 q 267 78 232 78 q 378 108 339 78 q 418 189 418 139 q 394 252 418 228 q 334 295 371 276 q 256 331 297 314 q 168 374 211 350 q 97 438 125 399 q 68 535 68 476 q 99 641 68 596 q 188 712 131 686 q 321 738 244 738 q 424 726 374 738 q 510 696 474 714 l 492 610 q 444 626 472 618 q 385 640 415 635 q 322 646 354 646 q 223 617 257 646 q 189 544 189 588 q 209 487 189 510 q 263 447 229 464 q 336 414 297 431 q 429 369 382 396 q 508 303 476 343 q 539 199 539 263 q 504 86 539 135 q 408 11 469 38 q 264 -15 346 -15 m 269 810 l 386 1007 l 496 1007 l 351 810 l 269 810 z "},"š":{"ha":596,"x_min":56,"x_max":539,"o":"m 264 -15 q 153 -3 210 -15 q 56 31 97 10 l 74 117 q 129 98 97 107 q 197 83 161 89 q 267 78 232 78 q 378 108 339 78 q 418 189 418 139 q 394 252 418 228 q 334 295 371 276 q 256 331 297 314 q 168 374 211 350 q 97 438 125 399 q 68 535 68 476 q 99 641 68 596 q 188 712 131 686 q 321 738 244 738 q 424 726 374 738 q 510 696 474 714 l 492 610 q 444 626 472 618 q 385 640 415 635 q 322 646 354 646 q 223 617 257 646 q 189 544 189 588 q 209 487 189 510 q 263 447 229 464 q 336 414 297 431 q 429 369 382 396 q 508 303 476 343 q 539 199 539 263 q 504 86 539 135 q 408 11 469 38 q 264 -15 346 -15 m 249 810 l 101 1008 l 201 1008 l 310 851 l 422 1008 l 522 1008 l 371 810 l 249 810 z "},"ş":{"ha":596,"x_min":56,"x_max":539,"o":"m 264 -15 q 153 -3 210 -15 q 56 31 97 10 l 74 117 q 129 98 97 107 q 197 83 161 89 q 267 78 232 78 q 378 108 339 78 q 418 189 418 139 q 394 252 418 228 q 334 295 371 276 q 256 331 297 314 q 168 374 211 350 q 97 438 125 399 q 68 535 68 476 q 99 641 68 596 q 188 712 131 686 q 321 738 244 738 q 424 726 374 738 q 510 696 474 714 l 492 610 q 444 626 472 618 q 385 640 415 635 q 322 646 354 646 q 223 617 257 646 q 189 544 189 588 q 209 487 189 510 q 263 447 229 464 q 336 414 297 431 q 429 369 382 396 q 508 303 476 343 q 539 199 539 263 q 504 86 539 135 q 408 11 469 38 q 264 -15 346 -15 m 279 -328 q 214 -322 247 -328 q 149 -308 181 -317 l 169 -264 q 225 -274 197 -271 q 278 -278 253 -278 q 374 -254 340 -278 q 407 -193 407 -231 q 384 -146 407 -161 q 324 -131 361 -131 q 246 -146 288 -131 l 221 -119 l 278 0 l 332 0 l 283 -100 q 379 -94 336 -87 q 448 -126 422 -101 q 474 -192 474 -150 q 420 -291 474 -254 q 279 -328 367 -328 z "},"ŝ":{"ha":596,"x_min":56,"x_max":539,"o":"m 264 -15 q 153 -3 210 -15 q 56 31 97 10 l 74 117 q 129 98 97 107 q 197 83 161 89 q 267 78 232 78 q 378 108 339 78 q 418 189 418 139 q 394 252 418 228 q 334 295 371 276 q 256 331 297 314 q 168 374 211 350 q 97 438 125 399 q 68 535 68 476 q 99 641 68 596 q 188 712 131 686 q 321 738 244 738 q 424 726 374 738 q 510 696 474 714 l 492 610 q 444 626 472 618 q 385 640 415 635 q 322 646 354 646 q 223 617 257 646 q 189 544 189 588 q 209 487 189 510 q 263 447 229 464 q 336 414 297 431 q 429 369 382 396 q 508 303 476 343 q 539 199 539 263 q 504 86 539 135 q 408 11 469 38 q 264 -15 346 -15 m 99 810 l 247 1008 l 369 1008 l 522 810 l 422 810 l 310 967 l 197 810 l 99 810 z "},"ș":{"ha":596,"x_min":56,"x_max":539,"o":"m 264 -15 q 153 -3 210 -15 q 56 31 97 10 l 74 117 q 129 98 97 107 q 197 83 161 89 q 267 78 232 78 q 378 108 339 78 q 418 189 418 139 q 394 252 418 228 q 334 295 371 276 q 256 331 297 314 q 168 374 211 350 q 97 438 125 399 q 68 535 68 476 q 99 641 68 596 q 188 712 131 686 q 321 738 244 738 q 424 726 374 738 q 510 696 474 714 l 492 610 q 444 626 472 618 q 385 640 415 635 q 322 646 354 646 q 223 617 257 646 q 189 544 189 588 q 209 487 189 510 q 263 447 229 464 q 336 414 297 431 q 429 369 382 396 q 508 303 476 343 q 539 199 539 263 q 504 86 539 135 q 408 11 469 38 q 264 -15 346 -15 m 264 -57 l 344 -57 l 307 -304 l 239 -304 l 264 -57 z "},"ṡ":{"ha":596,"x_min":56,"x_max":539,"o":"m 264 -15 q 153 -3 210 -15 q 56 31 97 10 l 74 117 q 129 98 97 107 q 197 83 161 89 q 267 78 232 78 q 378 108 339 78 q 418 189 418 139 q 394 252 418 228 q 334 295 371 276 q 256 331 297 314 q 168 374 211 350 q 97 438 125 399 q 68 535 68 476 q 99 641 68 596 q 188 712 131 686 q 321 738 244 738 q 424 726 374 738 q 510 696 474 714 l 492 610 q 444 626 472 618 q 385 640 415 635 q 322 646 354 646 q 223 617 257 646 q 189 544 189 588 q 209 487 189 510 q 263 447 229 464 q 336 414 297 431 q 429 369 382 396 q 508 303 476 343 q 539 199 539 263 q 504 86 539 135 q 408 11 469 38 q 264 -15 346 -15 m 311 842 q 263 860 282 842 q 243 907 243 879 q 263 954 243 935 q 311 974 282 974 q 360 954 340 974 q 379 907 379 935 q 360 860 379 879 q 311 842 340 842 z "},"ṣ":{"ha":596,"x_min":56,"x_max":539,"o":"m 264 -15 q 153 -3 210 -15 q 56 31 97 10 l 74 117 q 129 98 97 107 q 197 83 161 89 q 267 78 232 78 q 378 108 339 78 q 418 189 418 139 q 394 252 418 228 q 334 295 371 276 q 256 331 297 314 q 168 374 211 350 q 97 438 125 399 q 68 535 68 476 q 99 641 68 596 q 188 712 131 686 q 321 738 244 738 q 424 726 374 738 q 510 696 474 714 l 492 610 q 444 626 472 618 q 385 640 415 635 q 322 646 354 646 q 223 617 257 646 q 189 544 189 588 q 209 487 189 510 q 263 447 229 464 q 336 414 297 431 q 429 369 382 396 q 508 303 476 343 q 539 199 539 263 q 504 86 539 135 q 408 11 469 38 q 264 -15 346 -15 m 306 -199 q 257 -180 276 -199 q 238 -133 238 -161 q 257 -86 238 -106 q 306 -67 276 -67 q 354 -86 335 -67 q 374 -133 374 -106 q 354 -180 374 -161 q 306 -199 335 -199 z "},"ṩ":{"ha":596,"x_min":56,"x_max":539,"o":"m 264 -15 q 153 -3 210 -15 q 56 31 97 10 l 74 117 q 129 98 97 107 q 197 83 161 89 q 267 78 232 78 q 378 108 339 78 q 418 189 418 139 q 394 252 418 228 q 334 295 371 276 q 256 331 297 314 q 168 374 211 350 q 97 438 125 399 q 68 535 68 476 q 99 641 68 596 q 188 712 131 686 q 321 738 244 738 q 424 726 374 738 q 510 696 474 714 l 492 610 q 444 626 472 618 q 385 640 415 635 q 322 646 354 646 q 223 617 257 646 q 189 544 189 588 q 209 487 189 510 q 263 447 229 464 q 336 414 297 431 q 429 369 382 396 q 508 303 476 343 q 539 199 539 263 q 504 86 539 135 q 408 11 469 38 q 264 -15 346 -15 m 306 -199 q 257 -180 276 -199 q 238 -133 238 -161 q 257 -86 238 -106 q 306 -67 276 -67 q 354 -86 335 -67 q 374 -133 374 -106 q 354 -180 374 -161 q 306 -199 335 -199 m 311 842 q 263 860 282 842 q 243 907 243 879 q 263 954 243 935 q 311 974 282 974 q 360 954 340 974 q 379 907 379 935 q 360 860 379 879 q 311 842 340 842 z "},"ß":{"ha":838,"x_min":108,"x_max":778,"o":"m 511 -15 q 412 -3 461 -15 q 322 28 363 8 l 339 117 q 413 92 372 103 q 497 81 454 81 q 614 115 571 81 q 657 200 657 149 q 632 272 657 242 q 569 331 607 303 q 494 389 532 358 q 431 459 456 419 q 406 554 406 499 q 430 656 406 607 q 497 751 454 706 q 599 839 540 797 l 581 813 q 536 942 581 892 q 410 992 492 992 q 310 964 346 992 q 257 891 274 936 q 236 792 240 846 q 232 686 232 739 l 232 0 l 108 0 l 108 676 q 114 792 108 733 q 136 903 119 850 q 186 999 153 957 q 273 1065 219 1040 q 407 1089 326 1089 q 558 1056 496 1089 q 654 963 621 1022 q 690 825 688 904 q 574 708 621 772 q 526 576 526 644 q 551 498 526 532 q 615 435 576 464 q 690 374 653 406 q 753 301 728 343 q 778 201 778 260 q 742 85 778 133 q 647 10 707 36 q 511 -15 586 -15 z "},"t":{"ha":489,"x_min":28,"x_max":446,"o":"m 317 -15 q 222 4 258 -15 q 167 56 185 24 q 142 131 149 89 q 135 217 135 172 l 135 631 l 28 631 l 35 718 l 140 722 l 149 886 l 258 910 l 258 722 l 443 722 l 438 631 l 258 631 l 258 231 q 266 165 258 197 q 297 111 274 132 q 364 90 319 90 q 406 94 386 90 q 442 101 426 97 l 446 7 q 388 -8 424 -1 q 317 -15 351 -15 z "},"ŧ":{"ha":468,"x_min":26,"x_max":425,"o":"m 297 -14 q 199 10 236 -14 q 144 84 161 35 q 126 208 126 133 l 126 342 l 26 342 l 31 417 l 126 417 l 126 586 l 28 586 l 35 674 l 129 679 l 142 833 l 251 858 l 251 679 l 424 679 l 417 586 l 251 586 l 251 417 l 401 417 l 396 342 l 251 342 l 251 222 q 265 138 251 167 q 299 99 278 110 q 346 89 321 89 q 389 93 372 89 q 421 101 406 97 l 425 6 q 368 -8 403 -1 q 297 -14 333 -14 z "},"ť":{"ha":824,"x_min":28,"x_max":729,"o":"m 317 -15 q 222 4 258 -15 q 167 56 185 24 q 142 131 149 89 q 135 217 135 172 l 135 631 l 28 631 l 35 718 l 140 722 l 149 886 l 258 910 l 258 722 l 443 722 l 438 631 l 258 631 l 258 231 q 266 165 258 197 q 297 111 274 132 q 364 90 319 90 q 406 94 386 90 q 442 101 426 97 l 446 7 q 388 -8 424 -1 q 317 -15 351 -15 m 629 690 l 539 703 l 601 1051 l 729 1051 l 629 690 z "},"ţ":{"ha":489,"x_min":28,"x_max":454,"o":"m 317 -15 q 222 4 258 -15 q 167 56 185 24 q 142 131 149 89 q 135 217 135 172 l 135 631 l 28 631 l 35 718 l 140 722 l 149 886 l 258 910 l 258 722 l 443 722 l 438 631 l 258 631 l 258 231 q 266 165 258 197 q 297 111 274 132 q 364 90 319 90 q 406 94 386 90 q 442 101 426 97 l 446 7 q 388 -8 424 -1 q 317 -15 351 -15 m 260 -328 q 194 -322 228 -328 q 129 -308 161 -317 l 150 -264 q 206 -274 178 -271 q 258 -278 233 -278 q 354 -254 321 -278 q 388 -193 388 -231 q 365 -146 388 -161 q 305 -131 342 -131 q 226 -146 268 -131 l 201 -119 l 258 0 l 313 0 l 264 -100 q 360 -94 317 -87 q 428 -126 403 -101 q 454 -192 454 -150 q 401 -291 454 -254 q 260 -328 347 -328 z "},"ṱ":{"ha":489,"x_min":28,"x_max":499,"o":"m 317 -15 q 222 4 258 -15 q 167 56 185 24 q 142 131 149 89 q 135 217 135 172 l 135 631 l 28 631 l 35 718 l 140 722 l 149 886 l 258 910 l 258 722 l 443 722 l 438 631 l 258 631 l 258 231 q 266 165 258 197 q 297 111 274 132 q 364 90 319 90 q 406 94 386 90 q 442 101 426 97 l 446 7 q 388 -8 424 -1 q 317 -15 351 -15 m 75 -257 l 224 -58 l 346 -58 l 499 -257 l 399 -257 l 286 -100 l 174 -257 l 75 -257 z "},"ț":{"ha":489,"x_min":28,"x_max":446,"o":"m 317 -15 q 222 4 258 -15 q 167 56 185 24 q 142 131 149 89 q 135 217 135 172 l 135 631 l 28 631 l 35 718 l 140 722 l 149 886 l 258 910 l 258 722 l 443 722 l 438 631 l 258 631 l 258 231 q 266 165 258 197 q 297 111 274 132 q 364 90 319 90 q 406 94 386 90 q 442 101 426 97 l 446 7 q 388 -8 424 -1 q 317 -15 351 -15 m 244 -57 l 325 -57 l 288 -304 l 219 -304 l 244 -57 z "},"ẗ":{"ha":489,"x_min":8,"x_max":446,"o":"m 317 -15 q 222 4 258 -15 q 167 56 185 24 q 142 131 149 89 q 135 217 135 172 l 135 631 l 28 631 l 35 718 l 140 722 l 149 886 l 258 910 l 258 722 l 443 722 l 438 631 l 258 631 l 258 231 q 266 165 258 197 q 297 111 274 132 q 364 90 319 90 q 406 94 386 90 q 442 101 426 97 l 446 7 q 388 -8 424 -1 q 317 -15 351 -15 m 76 1006 q 28 1024 47 1006 q 8 1071 8 1043 q 28 1118 8 1099 q 76 1138 47 1138 q 125 1118 106 1138 q 144 1071 144 1099 q 125 1024 144 1043 q 76 1006 106 1006 m 328 1006 q 279 1024 299 1006 q 260 1071 260 1043 q 279 1118 260 1099 q 328 1138 299 1138 q 376 1118 357 1138 q 396 1071 396 1099 q 376 1024 396 1043 q 328 1006 357 1006 z "},"ṫ":{"ha":489,"x_min":28,"x_max":446,"o":"m 317 -15 q 222 4 258 -15 q 167 56 185 24 q 142 131 149 89 q 135 217 135 172 l 135 631 l 28 631 l 35 718 l 140 722 l 149 886 l 258 910 l 258 722 l 443 722 l 438 631 l 258 631 l 258 231 q 266 165 258 197 q 297 111 274 132 q 364 90 319 90 q 406 94 386 90 q 442 101 426 97 l 446 7 q 388 -8 424 -1 q 317 -15 351 -15 m 203 1006 q 154 1024 174 1006 q 135 1071 135 1043 q 154 1118 135 1099 q 203 1138 174 1138 q 251 1118 232 1138 q 271 1071 271 1099 q 251 1024 271 1043 q 203 1006 232 1006 z "},"ṭ":{"ha":489,"x_min":28,"x_max":446,"o":"m 317 -15 q 222 4 258 -15 q 167 56 185 24 q 142 131 149 89 q 135 217 135 172 l 135 631 l 28 631 l 35 718 l 140 722 l 149 886 l 258 910 l 258 722 l 443 722 l 438 631 l 258 631 l 258 231 q 266 165 258 197 q 297 111 274 132 q 364 90 319 90 q 406 94 386 90 q 442 101 426 97 l 446 7 q 388 -8 424 -1 q 317 -15 351 -15 m 286 -199 q 238 -180 257 -199 q 218 -133 218 -161 q 238 -86 218 -106 q 286 -67 257 -67 q 335 -86 315 -67 q 354 -133 354 -106 q 335 -180 354 -161 q 286 -199 315 -199 z "},"u":{"ha":790,"x_min":94,"x_max":696,"o":"m 329 -15 q 199 20 251 -15 q 120 122 146 56 q 94 283 94 189 l 94 722 l 219 722 l 219 289 q 256 139 219 192 q 375 86 293 86 q 453 102 417 86 q 518 142 489 118 q 568 190 547 167 l 568 722 l 692 722 l 692 201 q 692 93 692 142 q 696 0 693 44 l 606 0 l 579 110 l 576 110 q 514 51 551 81 q 429 3 476 22 q 329 -15 382 -15 z "},"ú":{"ha":790,"x_min":94,"x_max":696,"o":"m 329 -15 q 199 20 251 -15 q 120 122 146 56 q 94 283 94 189 l 94 722 l 219 722 l 219 289 q 256 139 219 192 q 375 86 293 86 q 453 102 417 86 q 518 142 489 118 q 568 190 547 167 l 568 722 l 692 722 l 692 201 q 692 93 692 142 q 696 0 693 44 l 606 0 l 579 110 l 576 110 q 514 51 551 81 q 429 3 476 22 q 329 -15 382 -15 m 353 810 l 469 1007 l 579 1007 l 435 810 l 353 810 z "},"ŭ":{"ha":790,"x_min":94,"x_max":696,"o":"m 329 -15 q 199 20 251 -15 q 120 122 146 56 q 94 283 94 189 l 94 722 l 219 722 l 219 289 q 256 139 219 192 q 375 86 293 86 q 453 102 417 86 q 518 142 489 118 q 568 190 547 167 l 568 722 l 692 722 l 692 201 q 692 93 692 142 q 696 0 693 44 l 606 0 l 579 110 l 576 110 q 514 51 551 81 q 429 3 476 22 q 329 -15 382 -15 m 394 808 q 298 830 342 808 q 230 894 254 851 q 208 999 206 938 l 267 999 q 301 903 264 938 q 394 868 338 868 q 488 903 451 868 q 522 999 525 938 l 581 999 q 558 894 583 938 q 490 830 533 851 q 394 808 447 808 z "},"ǔ":{"ha":790,"x_min":94,"x_max":696,"o":"m 329 -15 q 199 20 251 -15 q 120 122 146 56 q 94 283 94 189 l 94 722 l 219 722 l 219 289 q 256 139 219 192 q 375 86 293 86 q 453 102 417 86 q 518 142 489 118 q 568 190 547 167 l 568 722 l 692 722 l 692 201 q 692 93 692 142 q 696 0 693 44 l 606 0 l 579 110 l 576 110 q 514 51 551 81 q 429 3 476 22 q 329 -15 382 -15 m 332 810 l 185 1008 l 285 1008 l 393 851 l 506 1008 l 606 1008 l 454 810 l 332 810 z "},"û":{"ha":790,"x_min":94,"x_max":696,"o":"m 329 -15 q 199 20 251 -15 q 120 122 146 56 q 94 283 94 189 l 94 722 l 219 722 l 219 289 q 256 139 219 192 q 375 86 293 86 q 453 102 417 86 q 518 142 489 118 q 568 190 547 167 l 568 722 l 692 722 l 692 201 q 692 93 692 142 q 696 0 693 44 l 606 0 l 579 110 l 576 110 q 514 51 551 81 q 429 3 476 22 q 329 -15 382 -15 m 182 810 l 331 1008 l 453 1008 l 606 810 l 506 810 l 393 967 l 281 810 l 182 810 z "},"ṷ":{"ha":790,"x_min":94,"x_max":696,"o":"m 329 -15 q 199 20 251 -15 q 120 122 146 56 q 94 283 94 189 l 94 722 l 219 722 l 219 289 q 256 139 219 192 q 375 86 293 86 q 453 102 417 86 q 518 142 489 118 q 568 190 547 167 l 568 722 l 692 722 l 692 201 q 692 93 692 142 q 696 0 693 44 l 606 0 l 579 110 l 576 110 q 514 51 551 81 q 429 3 476 22 q 329 -15 382 -15 m 192 -257 l 340 -58 l 463 -58 l 615 -257 l 515 -257 l 403 -100 l 290 -257 l 192 -257 z "},"ü":{"ha":790,"x_min":94,"x_max":696,"o":"m 329 -15 q 199 20 251 -15 q 120 122 146 56 q 94 283 94 189 l 94 722 l 219 722 l 219 289 q 256 139 219 192 q 375 86 293 86 q 453 102 417 86 q 518 142 489 118 q 568 190 547 167 l 568 722 l 692 722 l 692 201 q 692 93 692 142 q 696 0 693 44 l 606 0 l 579 110 l 576 110 q 514 51 551 81 q 429 3 476 22 q 329 -15 382 -15 m 268 842 q 219 860 239 842 q 200 907 200 879 q 219 954 200 935 q 268 974 239 974 q 317 954 297 974 q 336 907 336 935 q 317 860 336 879 q 268 842 297 842 m 519 842 q 471 860 490 842 q 451 907 451 879 q 471 954 451 935 q 519 974 490 974 q 568 954 549 974 q 588 907 588 935 q 568 860 588 879 q 519 842 549 842 z "}}}
